<svg version="1.1" xmlns="http://www.w3.org/2000/svg" xmlns:xlink="http://www.w3.org/1999/xlink" width="918.62158203125" height="506"><defs/><g><text fill="#eeeeee" stroke="none" font-family="Arial" font-size="24px" font-style="normal" font-weight="normal" text-decoration="none" x="0" y="0"></text><text fill="#eeeeee" stroke="none" font-family="Arial" font-size="24px" font-style="normal" font-weight="normal" text-decoration="none" x="0" y="30"></text><text fill="#eeeeee" stroke="none" font-family="Arial" font-size="24px" font-style="normal" font-weight="normal" text-decoration="none" x="0" y="60"></text><text fill="#eeeeee" stroke="none" font-family="Arial" font-size="24px" font-style="normal" font-weight="normal" text-decoration="none" x="0" y="90"></text><text fill="#eeeeee" stroke="none" font-family="Arial" font-size="24px" font-style="normal" font-weight="normal" text-decoration="none" x="0" y="120"></text><text fill="#eeeeee" stroke="none" font-family="Arial" font-size="24px" font-style="normal" font-weight="normal" text-decoration="none" x="0" y="150"></text><text fill="#eeeeee" stroke="none" font-family="Arial" font-size="24px" font-style="normal" font-weight="normal" text-decoration="none" x="0" y="180"></text><text fill="#eeeeee" stroke="none" font-family="Arial" font-size="24px" font-style="normal" font-weight="normal" text-decoration="none" x="0" y="210"></text><text fill="#eeeeee" stroke="none" font-family="Arial" font-size="24px" font-style="normal" font-weight="normal" text-decoration="none" x="0" y="240"></text><text fill="#eeeeee" stroke="none" font-family="Arial" font-size="24px" font-style="normal" font-weight="normal" text-decoration="none" x="0" y="270"></text><text fill="#eeeeee" stroke="none" font-family="Arial" font-size="24px" font-style="normal" font-weight="normal" text-decoration="none" x="0" y="300"></text><text fill="#eeeeee" stroke="none" font-family="Arial" font-size="24px" font-style="normal" font-weight="normal" text-decoration="none" x="0" y="330"></text><text fill="#eeeeee" stroke="none" font-family="Arial" font-size="24px" font-style="normal" font-weight="normal" text-decoration="none" x="0" y="360"></text><text fill="#eeeeee" stroke="none" font-family="Arial" font-size="24px" font-style="normal" font-weight="normal" text-decoration="none" x="0" y="390"></text><text fill="#eeeeee" stroke="none" font-family="Arial" font-size="24px" font-style="normal" font-weight="normal" text-decoration="none" x="0" y="420"></text><text fill="#eeeeee" stroke="none" font-family="Arial" font-size="24px" font-style="normal" font-weight="normal" text-decoration="none" x="0" y="450"></text><text fill="#eeeeee" stroke="none" font-family="Arial" font-size="24px" font-style="normal" font-weight="normal" text-decoration="none" x="0" y="480"></text><text fill="#eeeeee" stroke="none" font-family="Arial" font-size="24px" font-style="normal" font-weight="normal" text-decoration="none" x="200" y="0"></text><text fill="#eeeeee" stroke="none" font-family="Arial" font-size="24px" font-style="normal" font-weight="normal" text-decoration="none" x="200" y="30"></text><text fill="#eeeeee" stroke="none" font-family="Arial" font-size="24px" font-style="normal" font-weight="normal" text-decoration="none" x="200" y="60"></text><text fill="#eeeeee" stroke="none" font-family="Arial" font-size="24px" font-style="normal" font-weight="normal" text-decoration="none" x="200" y="90"></text><text fill="#eeeeee" stroke="none" font-family="Arial" font-size="24px" font-style="normal" font-weight="normal" text-decoration="none" x="200" y="120"></text><text fill="#eeeeee" stroke="none" font-family="Arial" font-size="24px" font-style="normal" font-weight="normal" text-decoration="none" x="200" y="150"></text><text fill="#eeeeee" stroke="none" font-family="Arial" font-size="24px" font-style="normal" font-weight="normal" text-decoration="none" x="200" y="180"></text><text fill="#eeeeee" stroke="none" font-family="Arial" font-size="24px" font-style="normal" font-weight="normal" text-decoration="none" x="200" y="210"></text><text fill="#eeeeee" stroke="none" font-family="Arial" font-size="24px" font-style="normal" font-weight="normal" text-decoration="none" x="200" y="240"></text><text fill="#eeeeee" stroke="none" font-family="Arial" font-size="24px" font-style="normal" font-weight="normal" text-decoration="none" x="200" y="270"></text><text fill="#eeeeee" stroke="none" font-family="Arial" font-size="24px" font-style="normal" font-weight="normal" text-decoration="none" x="200" y="300"></text><text fill="#eeeeee" stroke="none" font-family="Arial" font-size="24px" font-style="normal" font-weight="normal" text-decoration="none" x="200" y="330"></text><text fill="#eeeeee" stroke="none" font-family="Arial" font-size="24px" font-style="normal" font-weight="normal" text-decoration="none" x="200" y="360"></text><text fill="#eeeeee" stroke="none" font-family="Arial" font-size="24px" font-style="normal" font-weight="normal" text-decoration="none" x="200" y="390"></text><text fill="#eeeeee" stroke="none" font-family="Arial" font-size="24px" font-style="normal" font-weight="normal" text-decoration="none" x="200" y="420"></text><text fill="#eeeeee" stroke="none" font-family="Arial" font-size="24px" font-style="normal" font-weight="normal" text-decoration="none" x="200" y="450"></text><text fill="#eeeeee" stroke="none" font-family="Arial" font-size="24px" font-style="normal" font-weight="normal" text-decoration="none" x="200" y="480"></text><text fill="#eeeeee" stroke="none" font-family="Arial" font-size="24px" font-style="normal" font-weight="normal" text-decoration="none" x="400" y="0"></text><text fill="#eeeeee" stroke="none" font-family="Arial" font-size="24px" font-style="normal" font-weight="normal" text-decoration="none" x="400" y="30"></text><text fill="#eeeeee" stroke="none" font-family="Arial" font-size="24px" font-style="normal" font-weight="normal" text-decoration="none" x="400" y="60"></text><text fill="#eeeeee" stroke="none" font-family="Arial" font-size="24px" font-style="normal" font-weight="normal" text-decoration="none" x="400" y="90"></text><text fill="#eeeeee" stroke="none" font-family="Arial" font-size="24px" font-style="normal" font-weight="normal" text-decoration="none" x="400" y="120"></text><text fill="#eeeeee" stroke="none" font-family="Arial" font-size="24px" font-style="normal" font-weight="normal" text-decoration="none" x="400" y="150"></text><text fill="#eeeeee" stroke="none" font-family="Arial" font-size="24px" font-style="normal" font-weight="normal" text-decoration="none" x="400" y="180"></text><text fill="#eeeeee" stroke="none" font-family="Arial" font-size="24px" font-style="normal" font-weight="normal" text-decoration="none" x="400" y="210"></text><text fill="#eeeeee" stroke="none" font-family="Arial" font-size="24px" font-style="normal" font-weight="normal" text-decoration="none" x="400" y="240"></text><text fill="#eeeeee" stroke="none" font-family="Arial" font-size="24px" font-style="normal" font-weight="normal" text-decoration="none" x="400" y="270"></text><text fill="#eeeeee" stroke="none" font-family="Arial" font-size="24px" font-style="normal" font-weight="normal" text-decoration="none" x="400" y="300"></text><text fill="#eeeeee" stroke="none" font-family="Arial" font-size="24px" font-style="normal" font-weight="normal" text-decoration="none" x="400" y="330"></text><text fill="#eeeeee" stroke="none" font-family="Arial" font-size="24px" font-style="normal" font-weight="normal" text-decoration="none" x="400" y="360"></text><text fill="#eeeeee" stroke="none" font-family="Arial" font-size="24px" font-style="normal" font-weight="normal" text-decoration="none" x="400" y="390"></text><text fill="#eeeeee" stroke="none" font-family="Arial" font-size="24px" font-style="normal" font-weight="normal" text-decoration="none" x="400" y="420"></text><text fill="#eeeeee" stroke="none" font-family="Arial" font-size="24px" font-style="normal" font-weight="normal" text-decoration="none" x="400" y="450"></text><text fill="#eeeeee" stroke="none" font-family="Arial" font-size="24px" font-style="normal" font-weight="normal" text-decoration="none" x="400" y="480"></text><text fill="#eeeeee" stroke="none" font-family="Arial" font-size="24px" font-style="normal" font-weight="normal" text-decoration="none" x="600" y="0"></text><text fill="#eeeeee" stroke="none" font-family="Arial" font-size="24px" font-style="normal" font-weight="normal" text-decoration="none" x="600" y="30"></text><text fill="#eeeeee" stroke="none" font-family="Arial" font-size="24px" font-style="normal" font-weight="normal" text-decoration="none" x="600" y="60"></text><text fill="#eeeeee" stroke="none" font-family="Arial" font-size="24px" font-style="normal" font-weight="normal" text-decoration="none" x="600" y="90"></text><text fill="#eeeeee" stroke="none" font-family="Arial" font-size="24px" font-style="normal" font-weight="normal" text-decoration="none" x="600" y="120"></text><text fill="#eeeeee" stroke="none" font-family="Arial" font-size="24px" font-style="normal" font-weight="normal" text-decoration="none" x="600" y="150"></text><text fill="#eeeeee" stroke="none" font-family="Arial" font-size="24px" font-style="normal" font-weight="normal" text-decoration="none" x="600" y="180"></text><text fill="#eeeeee" stroke="none" font-family="Arial" font-size="24px" font-style="normal" font-weight="normal" text-decoration="none" x="600" y="210"></text><text fill="#eeeeee" stroke="none" font-family="Arial" font-size="24px" font-style="normal" font-weight="normal" text-decoration="none" x="600" y="240"></text><text fill="#eeeeee" stroke="none" font-family="Arial" font-size="24px" font-style="normal" font-weight="normal" text-decoration="none" x="600" y="270"></text><text fill="#eeeeee" stroke="none" font-family="Arial" font-size="24px" font-style="normal" font-weight="normal" text-decoration="none" x="600" y="300"></text><text fill="#eeeeee" stroke="none" font-family="Arial" font-size="24px" font-style="normal" font-weight="normal" text-decoration="none" x="600" y="330"></text><text fill="#eeeeee" stroke="none" font-family="Arial" font-size="24px" font-style="normal" font-weight="normal" text-decoration="none" x="600" y="360"></text><text fill="#eeeeee" stroke="none" font-family="Arial" font-size="24px" font-style="normal" font-weight="normal" text-decoration="none" x="600" y="390"></text><text fill="#eeeeee" stroke="none" font-family="Arial" font-size="24px" font-style="normal" font-weight="normal" text-decoration="none" x="600" y="420"></text><text fill="#eeeeee" stroke="none" font-family="Arial" font-size="24px" font-style="normal" font-weight="normal" text-decoration="none" x="600" y="450"></text><text fill="#eeeeee" stroke="none" font-family="Arial" font-size="24px" font-style="normal" font-weight="normal" text-decoration="none" x="600" y="480"></text><text fill="#eeeeee" stroke="none" font-family="Arial" font-size="24px" font-style="normal" font-weight="normal" text-decoration="none" x="800" y="0"></text><text fill="#eeeeee" stroke="none" font-family="Arial" font-size="24px" font-style="normal" font-weight="normal" text-decoration="none" x="800" y="30"></text><text fill="#eeeeee" stroke="none" font-family="Arial" font-size="24px" font-style="normal" font-weight="normal" text-decoration="none" x="800" y="60"></text><text fill="#eeeeee" stroke="none" font-family="Arial" font-size="24px" font-style="normal" font-weight="normal" text-decoration="none" x="800" y="90"></text><text fill="#eeeeee" stroke="none" font-family="Arial" font-size="24px" font-style="normal" font-weight="normal" text-decoration="none" x="800" y="120"></text><text fill="#eeeeee" stroke="none" font-family="Arial" font-size="24px" font-style="normal" font-weight="normal" text-decoration="none" x="800" y="150"></text><text fill="#eeeeee" stroke="none" font-family="Arial" font-size="24px" font-style="normal" font-weight="normal" text-decoration="none" x="800" y="180"></text><text fill="#eeeeee" stroke="none" font-family="Arial" font-size="24px" font-style="normal" font-weight="normal" text-decoration="none" x="800" y="210"></text><text fill="#eeeeee" stroke="none" font-family="Arial" font-size="24px" font-style="normal" font-weight="normal" text-decoration="none" x="800" y="240"></text><text fill="#eeeeee" stroke="none" font-family="Arial" font-size="24px" font-style="normal" font-weight="normal" text-decoration="none" x="800" y="270"></text><text fill="#eeeeee" stroke="none" font-family="Arial" font-size="24px" font-style="normal" font-weight="normal" text-decoration="none" x="800" y="300"></text><text fill="#eeeeee" stroke="none" font-family="Arial" font-size="24px" font-style="normal" font-weight="normal" text-decoration="none" x="800" y="330"></text><text fill="#eeeeee" stroke="none" font-family="Arial" font-size="24px" font-style="normal" font-weight="normal" text-decoration="none" x="800" y="360"></text><text fill="#eeeeee" stroke="none" font-family="Arial" font-size="24px" font-style="normal" font-weight="normal" text-decoration="none" x="800" y="390"></text><text fill="#eeeeee" stroke="none" font-family="Arial" font-size="24px" font-style="normal" font-weight="normal" text-decoration="none" x="800" y="420"></text><text fill="#eeeeee" stroke="none" font-family="Arial" font-size="24px" font-style="normal" font-weight="normal" text-decoration="none" x="800" y="450"></text><text fill="#eeeeee" stroke="none" font-family="Arial" font-size="24px" font-style="normal" font-weight="normal" text-decoration="none" x="800" y="480"></text><g transform="translate(-110,-166) scale(1,1)"><rect fill="#C0C0C0" stroke="none" x="127" y="407" width="185.6806640625" height="100" opacity="0.2"/></g><g transform="translate(-110,-166) scale(1,1)"><rect fill="#ffffff" stroke="none" x="120" y="400" width="185.6806640625" height="100"/></g><g transform="translate(-110,-166) scale(1,1)"><path fill="none" stroke="#000000" d="M 120 400 L 305.6806640625 400 L 305.6806640625 500 L 120 500 L 120 400 Z Z" stroke-miterlimit="10"/></g><g transform="translate(-110,-166) scale(1,1)"><path fill="none" stroke="#000000" d="M 120 425 L 305.6806640625 425" stroke-miterlimit="10"/></g><g transform="translate(-110,-166) scale(1,1)"><path fill="none" stroke="#000000" d="M 120 478 L 305.6806640625 478" stroke-miterlimit="10"/></g><g transform="translate(-110,-166) scale(1,1)"><g><path fill="none" stroke="none"/><text fill="#000000" stroke="none" font-family="Arial" font-size="13px" font-style="normal" font-weight="bold" text-decoration="none" x="153.2421875" y="418">SingleStageRefiner</text></g></g><g transform="translate(-110,-166) scale(1,1)"><g><path fill="none" stroke="none"/><text fill="#000000" stroke="none" font-family="Arial" font-size="13px" font-style="normal" font-weight="normal" text-decoration="none" x="125" y="441">+failurePenalty: FailurePenalty</text></g></g><g transform="translate(-110,-166) scale(1,1)"><g><path fill="none" stroke="none"/><text fill="#000000" stroke="none" font-family="Arial" font-size="13px" font-style="normal" font-weight="normal" text-decoration="none" x="125" y="456">+probability: number</text></g></g><g transform="translate(-110,-166) scale(1,1)"><g><path fill="none" stroke="none"/><text fill="#000000" stroke="none" font-family="Arial" font-size="13px" font-style="normal" font-weight="normal" text-decoration="none" x="125" y="471">+refineLevel: number</text></g></g><g transform="translate(-110,-166) scale(1,1)"><g><path fill="none" stroke="none"/><text fill="#000000" stroke="none" font-family="Arial" font-size="13px" font-style="normal" font-weight="normal" text-decoration="none" x="125" y="494">+refine(): number</text></g></g><g transform="translate(-110,-166) scale(1,1)"><path fill="#C0C0C0" stroke="none" d="M 208.26904296875 290.5 C 208.26904296875 284.1487248 213.41776776875 279 219.76904296875 279 C 226.12031816875 279 231.26904296875 284.1487248 231.26904296875 290.5 C 231.26904296875 296.8512752 226.12031816875 302 219.76904296875 302 C 213.41776776875 302 208.26904296875 296.8512752 208.26904296875 290.5 Z" opacity="0.2"/></g><g transform="translate(-110,-166) scale(1,1)"><path fill="#ffffff" stroke="none" d="M 201.26904296875 283.5 C 201.26904296875 277.1487248 206.41776776875 272 212.76904296875 272 C 219.12031816875 272 224.26904296875 277.1487248 224.26904296875 283.5 C 224.26904296875 289.8512752 219.12031816875 295 212.76904296875 295 C 206.41776776875 295 201.26904296875 289.8512752 201.26904296875 283.5 Z"/></g><g transform="translate(-110,-166) scale(1,1)"><path fill="none" stroke="#000000" d="M 201.26904296875 283.5 C 201.26904296875 277.1487248 206.41776776875 272 212.76904296875 272 C 219.12031816875 272 224.26904296875 277.1487248 224.26904296875 283.5 C 224.26904296875 289.8512752 219.12031816875 295 212.76904296875 295 C 206.41776776875 295 201.26904296875 289.8512752 201.26904296875 283.5 Z" stroke-miterlimit="10"/></g><g transform="translate(-110,-166) scale(1,1)"><g><path fill="none" stroke="none"/><text fill="#000000" stroke="none" font-family="Arial" font-size="13px" font-style="normal" font-weight="bold" text-decoration="none" x="168.33544921875" y="313">FailurePenalty</text></g></g><g transform="translate(-110,-166) scale(1,1)"><g><path fill="none" stroke="none"/><text fill="#000000" stroke="none" font-family="Arial" font-size="13px" font-style="normal" font-weight="normal" text-decoration="none" x="144.5" y="328">(from Core.Refinement)</text></g></g><g transform="translate(-110,-166) scale(1,1)"><rect fill="#C0C0C0" stroke="none" x="468" y="434" width="185.66162109375" height="47" opacity="0.2"/></g><g transform="translate(-110,-166) scale(1,1)"><rect fill="#ffffff" stroke="none" x="461" y="427" width="185.66162109375" height="47"/></g><g transform="translate(-110,-166) scale(1,1)"><path fill="none" stroke="#000000" d="M 461 427 L 646.66162109375 427 L 646.66162109375 474 L 461 474 L 461 427 Z Z" stroke-miterlimit="10"/></g><g transform="translate(-110,-166) scale(1,1)"><path fill="none" stroke="#000000" d="M 461 452 L 646.66162109375 452" stroke-miterlimit="10"/></g><g transform="translate(-110,-166) scale(1,1)"><g><path fill="none" stroke="none"/><text fill="#000000" stroke="none" font-family="Arial" font-size="13px" font-style="normal" font-weight="bold" text-decoration="none" x="488.811767578125" y="445">SingleSampleRefiner</text></g></g><g transform="translate(-110,-166) scale(1,1)"><g><path fill="none" stroke="none"/><text fill="#000000" stroke="none" font-family="Arial" font-size="13px" font-style="normal" font-weight="normal" text-decoration="none" x="466" y="468">+refine(): Array&lt;RefineResult&gt;</text></g></g><g transform="translate(-110,-166) scale(1,1)"><path fill="none" stroke="#000000" d="M 460 450 L 307 450" stroke-miterlimit="10"/></g><g transform="translate(-110,-166) scale(1,1)"><path fill="none" stroke="#000000" d="M 317.16267485762415 445.790482243984 L 307 450 L 317.16267485762415 454.209517756016" stroke-miterlimit="10"/></g><g transform="translate(-110,-166) scale(1,1)"><rect fill="#C0C0C0" stroke="none" x="484" y="183" width="153.8662109375" height="150" opacity="0.2"/></g><g transform="translate(-110,-166) scale(1,1)"><rect fill="#ffffff" stroke="none" x="477" y="176" width="153.8662109375" height="150"/></g><g transform="translate(-110,-166) scale(1,1)"><path fill="none" stroke="#000000" d="M 477 176 L 630.8662109375 176 L 630.8662109375 326 L 477 326 L 477 176 Z Z" stroke-miterlimit="10"/></g><g transform="translate(-110,-166) scale(1,1)"><path fill="none" stroke="#000000" d="M 477 229 L 630.8662109375 229" stroke-miterlimit="10"/></g><g transform="translate(-110,-166) scale(1,1)"><g><path fill="none" stroke="none"/><text fill="#000000" stroke="none" font-family="Arial" font-size="13px" font-style="normal" font-weight="normal" text-decoration="none" x="521.772705078125" y="192">«interface»</text></g></g><g transform="translate(-110,-166) scale(1,1)"><g><path fill="none" stroke="none"/><text fill="#000000" stroke="none" font-family="Arial" font-size="13px" font-style="normal" font-weight="bold" text-decoration="none" x="514.203125" y="207">RefineResult</text></g></g><g transform="translate(-110,-166) scale(1,1)"><g><path fill="none" stroke="none"/><text fill="#000000" stroke="none" font-family="Arial" font-size="13px" font-style="normal" font-weight="normal" text-decoration="none" x="483.140869140625" y="222">(from Domain.Simulator)</text></g></g><g transform="translate(-110,-166) scale(1,1)"><g><path fill="none" stroke="none"/><text fill="#000000" stroke="none" font-family="Arial" font-size="13px" font-style="normal" font-weight="normal" text-decoration="none" x="482" y="245">+refineLevel: number</text></g></g><g transform="translate(-110,-166) scale(1,1)"><g><path fill="none" stroke="none"/><text fill="#000000" stroke="none" font-family="Arial" font-size="13px" font-style="normal" font-weight="normal" text-decoration="none" x="482" y="260">+refineTimes: number</text></g></g><g transform="translate(-110,-166) scale(1,1)"><g><path fill="none" stroke="none"/><text fill="#000000" stroke="none" font-family="Arial" font-size="13px" font-style="normal" font-weight="normal" text-decoration="none" x="482" y="275">+material: RefineMaterial</text></g></g><g transform="translate(-110,-166) scale(1,1)"><g><path fill="none" stroke="none"/><text fill="#000000" stroke="none" font-family="Arial" font-size="13px" font-style="normal" font-weight="normal" text-decoration="none" x="482" y="290">+numBlessings: number</text></g></g><g transform="translate(-110,-166) scale(1,1)"><g><path fill="none" stroke="none"/><text fill="#000000" stroke="none" font-family="Arial" font-size="13px" font-style="normal" font-weight="normal" text-decoration="none" x="482" y="305">+numSuccess: number</text></g></g><g transform="translate(-110,-166) scale(1,1)"><g><path fill="none" stroke="none"/><text fill="#000000" stroke="none" font-family="Arial" font-size="13px" font-style="normal" font-weight="normal" text-decoration="none" x="482" y="320">+numSamples: number</text></g></g><g transform="translate(-110,-166) scale(1,1)"><path fill="none" stroke="#000000" d="M 553 426 L 553 327" stroke-miterlimit="10"/></g><g transform="translate(-110,-166) scale(1,1)"><path fill="none" stroke="#000000" d="M 557.209517756016 337.16267485762415 L 553 327 L 548.790482243984 337.16267485762415" stroke-miterlimit="10"/></g><g transform="translate(-110,-166) scale(1,1)"><rect fill="#C0C0C0" stroke="none" x="806" y="422" width="219.62158203125" height="70" opacity="0.2"/></g><g transform="translate(-110,-166) scale(1,1)"><rect fill="#ffffff" stroke="none" x="799" y="415" width="219.62158203125" height="70"/></g><g transform="translate(-110,-166) scale(1,1)"><path fill="none" stroke="#000000" d="M 799 415 L 1018.62158203125 415 L 1018.62158203125 485 L 799 485 L 799 415 Z Z" stroke-miterlimit="10"/></g><g transform="translate(-110,-166) scale(1,1)"><path fill="none" stroke="#000000" d="M 799 440 L 1018.62158203125 440" stroke-miterlimit="10"/></g><g transform="translate(-110,-166) scale(1,1)"><path fill="none" stroke="#000000" d="M 799 463 L 1018.62158203125 463" stroke-miterlimit="10"/></g><g transform="translate(-110,-166) scale(1,1)"><g><path fill="none" stroke="none"/><text fill="#000000" stroke="none" font-family="Arial" font-size="13px" font-style="normal" font-weight="bold" text-decoration="none" x="874.4921875" y="433">RefineUser</text></g></g><g transform="translate(-110,-166) scale(1,1)"><g><path fill="none" stroke="none"/><text fill="#000000" stroke="none" font-family="Arial" font-size="13px" font-style="normal" font-weight="normal" text-decoration="none" x="804" y="456">+props: RefineUserProps</text></g></g><g transform="translate(-110,-166) scale(1,1)"><g><path fill="none" stroke="none"/><text fill="#000000" stroke="none" font-family="Arial" font-size="13px" font-style="normal" font-weight="normal" text-decoration="none" x="804" y="479">+refine(): Array&lt;RefineResultProps&gt;</text></g></g><g transform="translate(-110,-166) scale(1,1)"><path fill="none" stroke="#000000" d="M 798 450 L 648 450" stroke-miterlimit="10"/></g><g transform="translate(-110,-166) scale(1,1)"><path fill="none" stroke="#000000" d="M 658.1626748576241 445.790482243984 L 648 450 L 658.1626748576241 454.209517756016" stroke-miterlimit="10"/></g><g transform="translate(-110,-166) scale(1,1)"><path fill="none" stroke="#000000" d="M 844 414 L 632 295" stroke-miterlimit="10"/></g><g transform="translate(-110,-166) scale(1,1)"><path fill="none" stroke="#000000" d="M 642.9224749968881 296.30366404504866 L 632 295 L 638.8015264509971 303.64518582428315" stroke-miterlimit="10"/></g><g transform="translate(-110,-166) scale(1,1)"><path fill="#C0C0C0" stroke="none" d="M 904.483154296875 282.5 C 904.483154296875 276.1487248 909.631879096875 271 915.983154296875 271 C 922.334429496875 271 927.483154296875 276.1487248 927.483154296875 282.5 C 927.483154296875 288.8512752 922.334429496875 294 915.983154296875 294 C 909.631879096875 294 904.483154296875 288.8512752 904.483154296875 282.5 Z" opacity="0.2"/></g><g transform="translate(-110,-166) scale(1,1)"><path fill="#ffffff" stroke="none" d="M 897.483154296875 275.5 C 897.483154296875 269.1487248 902.631879096875 264 908.983154296875 264 C 915.334429496875 264 920.483154296875 269.1487248 920.483154296875 275.5 C 920.483154296875 281.8512752 915.334429496875 287 908.983154296875 287 C 902.631879096875 287 897.483154296875 281.8512752 897.483154296875 275.5 Z"/></g><g transform="translate(-110,-166) scale(1,1)"><path fill="none" stroke="#000000" d="M 897.483154296875 275.5 C 897.483154296875 269.1487248 902.631879096875 264 908.983154296875 264 C 915.334429496875 264 920.483154296875 269.1487248 920.483154296875 275.5 C 920.483154296875 281.8512752 915.334429496875 287 908.983154296875 287 C 902.631879096875 287 897.483154296875 281.8512752 897.483154296875 275.5 Z" stroke-miterlimit="10"/></g><g transform="translate(-110,-166) scale(1,1)"><g><path fill="none" stroke="none"/><text fill="#000000" stroke="none" font-family="Arial" font-size="13px" font-style="normal" font-weight="bold" text-decoration="none" x="856.24365234375" y="305">RefineUserProps</text></g></g><g transform="translate(-110,-166) scale(1,1)"><g><path fill="none" stroke="none"/><text fill="#000000" stroke="none" font-family="Arial" font-size="13px" font-style="normal" font-weight="normal" text-decoration="none" x="846.5" y="320">(from Core.Simulator)</text></g></g><g transform="translate(-110,-166) scale(1,1)"><path fill="none" stroke="#000000" d="M 908 414 L 908 328" stroke-miterlimit="10"/></g><g transform="translate(-110,-166) scale(1,1)"><path fill="none" stroke="#000000" d="M 912.209517756016 338.16267485762415 L 908 328 L 903.790482243984 338.16267485762415" stroke-miterlimit="10"/></g><g transform="translate(-110,-166) scale(1,1)"><path fill="none" stroke="#000000" d="M 212 399 L 212 336" stroke-miterlimit="10"/></g><g transform="translate(-110,-166) scale(1,1)"><path fill="none" stroke="#000000" d="M 216.209517756016 346.16267485762415 L 212 336 L 207.790482243984 346.16267485762415" stroke-miterlimit="10"/></g><g transform="translate(-110,-166) scale(1,1)"><rect fill="#C0C0C0" stroke="none" x="423" y="607" width="275.271484375" height="62" opacity="0.2"/></g><g transform="translate(-110,-166) scale(1,1)"><rect fill="#ffffff" stroke="none" x="416" y="600" width="275.271484375" height="62"/></g><g transform="translate(-110,-166) scale(1,1)"><path fill="none" stroke="#000000" d="M 416 600 L 691.271484375 600 L 691.271484375 662 L 416 662 L 416 600 Z Z" stroke-miterlimit="10"/></g><g transform="translate(-110,-166) scale(1,1)"><path fill="none" stroke="#000000" d="M 416 625 L 691.271484375 625" stroke-miterlimit="10"/></g><g transform="translate(-110,-166) scale(1,1)"><g><path fill="none" stroke="none"/><text fill="#000000" stroke="none" font-family="Arial" font-size="13px" font-style="normal" font-weight="bold" text-decoration="none" x="460.442626953125" y="618">SingleSampleRefinerInitializer</text></g></g><g transform="translate(-110,-166) scale(1,1)"><g><path fill="none" stroke="none"/><text fill="#000000" stroke="none" font-family="Arial" font-size="13px" font-style="normal" font-weight="normal" text-decoration="none" x="421" y="641">+createBlessingDemand(): Array&lt;number&gt;</text></g></g><g transform="translate(-110,-166) scale(1,1)"><g><path fill="none" stroke="none"/><text fill="#000000" stroke="none" font-family="Arial" font-size="13px" font-style="normal" font-weight="normal" text-decoration="none" x="421" y="656">+createRefiners(): Array&lt;SingleStageRefiner&gt;</text></g></g><g transform="translate(-110,-166) scale(1,1)"><path fill="none" stroke="#000000" d="M 553 475 L 553 599" stroke-miterlimit="10"/></g><g transform="translate(-110,-166) scale(1,1)"><path fill="none" stroke="#000000" d="M 548.790482243984 588.8373251423759 L 553 599 L 557.209517756016 588.8373251423759" stroke-miterlimit="10"/></g></g></svg>