<svg version="1.1" xmlns="http://www.w3.org/2000/svg" xmlns:xlink="http://www.w3.org/1999/xlink" width="901.8662109375" height="281"><defs/><g><text fill="#eeeeee" stroke="none" font-family="Arial" font-size="24px" font-style="normal" font-weight="normal" text-decoration="none" x="0" y="0"></text><text fill="#eeeeee" stroke="none" font-family="Arial" font-size="24px" font-style="normal" font-weight="normal" text-decoration="none" x="0" y="30"></text><text fill="#eeeeee" stroke="none" font-family="Arial" font-size="24px" font-style="normal" font-weight="normal" text-decoration="none" x="0" y="60"></text><text fill="#eeeeee" stroke="none" font-family="Arial" font-size="24px" font-style="normal" font-weight="normal" text-decoration="none" x="0" y="90"></text><text fill="#eeeeee" stroke="none" font-family="Arial" font-size="24px" font-style="normal" font-weight="normal" text-decoration="none" x="0" y="120"></text><text fill="#eeeeee" stroke="none" font-family="Arial" font-size="24px" font-style="normal" font-weight="normal" text-decoration="none" x="0" y="150"></text><text fill="#eeeeee" stroke="none" font-family="Arial" font-size="24px" font-style="normal" font-weight="normal" text-decoration="none" x="0" y="180"></text><text fill="#eeeeee" stroke="none" font-family="Arial" font-size="24px" font-style="normal" font-weight="normal" text-decoration="none" x="0" y="210"></text><text fill="#eeeeee" stroke="none" font-family="Arial" font-size="24px" font-style="normal" font-weight="normal" text-decoration="none" x="0" y="240"></text><text fill="#eeeeee" stroke="none" font-family="Arial" font-size="24px" font-style="normal" font-weight="normal" text-decoration="none" x="0" y="270"></text><text fill="#eeeeee" stroke="none" font-family="Arial" font-size="24px" font-style="normal" font-weight="normal" text-decoration="none" x="200" y="0"></text><text fill="#eeeeee" stroke="none" font-family="Arial" font-size="24px" font-style="normal" font-weight="normal" text-decoration="none" x="200" y="30"></text><text fill="#eeeeee" stroke="none" font-family="Arial" font-size="24px" font-style="normal" font-weight="normal" text-decoration="none" x="200" y="60"></text><text fill="#eeeeee" stroke="none" font-family="Arial" font-size="24px" font-style="normal" font-weight="normal" text-decoration="none" x="200" y="90"></text><text fill="#eeeeee" stroke="none" font-family="Arial" font-size="24px" font-style="normal" font-weight="normal" text-decoration="none" x="200" y="120"></text><text fill="#eeeeee" stroke="none" font-family="Arial" font-size="24px" font-style="normal" font-weight="normal" text-decoration="none" x="200" y="150"></text><text fill="#eeeeee" stroke="none" font-family="Arial" font-size="24px" font-style="normal" font-weight="normal" text-decoration="none" x="200" y="180"></text><text fill="#eeeeee" stroke="none" font-family="Arial" font-size="24px" font-style="normal" font-weight="normal" text-decoration="none" x="200" y="210"></text><text fill="#eeeeee" stroke="none" font-family="Arial" font-size="24px" font-style="normal" font-weight="normal" text-decoration="none" x="200" y="240"></text><text fill="#eeeeee" stroke="none" font-family="Arial" font-size="24px" font-style="normal" font-weight="normal" text-decoration="none" x="200" y="270"></text><text fill="#eeeeee" stroke="none" font-family="Arial" font-size="24px" font-style="normal" font-weight="normal" text-decoration="none" x="400" y="0"></text><text fill="#eeeeee" stroke="none" font-family="Arial" font-size="24px" font-style="normal" font-weight="normal" text-decoration="none" x="400" y="30"></text><text fill="#eeeeee" stroke="none" font-family="Arial" font-size="24px" font-style="normal" font-weight="normal" text-decoration="none" x="400" y="60"></text><text fill="#eeeeee" stroke="none" font-family="Arial" font-size="24px" font-style="normal" font-weight="normal" text-decoration="none" x="400" y="90"></text><text fill="#eeeeee" stroke="none" font-family="Arial" font-size="24px" font-style="normal" font-weight="normal" text-decoration="none" x="400" y="120"></text><text fill="#eeeeee" stroke="none" font-family="Arial" font-size="24px" font-style="normal" font-weight="normal" text-decoration="none" x="400" y="150"></text><text fill="#eeeeee" stroke="none" font-family="Arial" font-size="24px" font-style="normal" font-weight="normal" text-decoration="none" x="400" y="180"></text><text fill="#eeeeee" stroke="none" font-family="Arial" font-size="24px" font-style="normal" font-weight="normal" text-decoration="none" x="400" y="210"></text><text fill="#eeeeee" stroke="none" font-family="Arial" font-size="24px" font-style="normal" font-weight="normal" text-decoration="none" x="400" y="240"></text><text fill="#eeeeee" stroke="none" font-family="Arial" font-size="24px" font-style="normal" font-weight="normal" text-decoration="none" x="400" y="270"></text><text fill="#eeeeee" stroke="none" font-family="Arial" font-size="24px" font-style="normal" font-weight="normal" text-decoration="none" x="600" y="0"></text><text fill="#eeeeee" stroke="none" font-family="Arial" font-size="24px" font-style="normal" font-weight="normal" text-decoration="none" x="600" y="30"></text><text fill="#eeeeee" stroke="none" font-family="Arial" font-size="24px" font-style="normal" font-weight="normal" text-decoration="none" x="600" y="60"></text><text fill="#eeeeee" stroke="none" font-family="Arial" font-size="24px" font-style="normal" font-weight="normal" text-decoration="none" x="600" y="90"></text><text fill="#eeeeee" stroke="none" font-family="Arial" font-size="24px" font-style="normal" font-weight="normal" text-decoration="none" x="600" y="120"></text><text fill="#eeeeee" stroke="none" font-family="Arial" font-size="24px" font-style="normal" font-weight="normal" text-decoration="none" x="600" y="150"></text><text fill="#eeeeee" stroke="none" font-family="Arial" font-size="24px" font-style="normal" font-weight="normal" text-decoration="none" x="600" y="180"></text><text fill="#eeeeee" stroke="none" font-family="Arial" font-size="24px" font-style="normal" font-weight="normal" text-decoration="none" x="600" y="210"></text><text fill="#eeeeee" stroke="none" font-family="Arial" font-size="24px" font-style="normal" font-weight="normal" text-decoration="none" x="600" y="240"></text><text fill="#eeeeee" stroke="none" font-family="Arial" font-size="24px" font-style="normal" font-weight="normal" text-decoration="none" x="600" y="270"></text><text fill="#eeeeee" stroke="none" font-family="Arial" font-size="24px" font-style="normal" font-weight="normal" text-decoration="none" x="800" y="0"></text><text fill="#eeeeee" stroke="none" font-family="Arial" font-size="24px" font-style="normal" font-weight="normal" text-decoration="none" x="800" y="30"></text><text fill="#eeeeee" stroke="none" font-family="Arial" font-size="24px" font-style="normal" font-weight="normal" text-decoration="none" x="800" y="60"></text><text fill="#eeeeee" stroke="none" font-family="Arial" font-size="24px" font-style="normal" font-weight="normal" text-decoration="none" x="800" y="90"></text><text fill="#eeeeee" stroke="none" font-family="Arial" font-size="24px" font-style="normal" font-weight="normal" text-decoration="none" x="800" y="120"></text><text fill="#eeeeee" stroke="none" font-family="Arial" font-size="24px" font-style="normal" font-weight="normal" text-decoration="none" x="800" y="150"></text><text fill="#eeeeee" stroke="none" font-family="Arial" font-size="24px" font-style="normal" font-weight="normal" text-decoration="none" x="800" y="180"></text><text fill="#eeeeee" stroke="none" font-family="Arial" font-size="24px" font-style="normal" font-weight="normal" text-decoration="none" x="800" y="210"></text><text fill="#eeeeee" stroke="none" font-family="Arial" font-size="24px" font-style="normal" font-weight="normal" text-decoration="none" x="800" y="240"></text><text fill="#eeeeee" stroke="none" font-family="Arial" font-size="24px" font-style="normal" font-weight="normal" text-decoration="none" x="800" y="270"></text><g transform="translate(-110,-54) scale(1,1)"><rect fill="#C0C0C0" stroke="none" x="127" y="226" width="295.4951171875" height="62" opacity="0.2"/></g><g transform="translate(-110,-54) scale(1,1)"><rect fill="#ffffff" stroke="none" x="120" y="219" width="295.4951171875" height="62"/></g><g transform="translate(-110,-54) scale(1,1)"><path fill="none" stroke="#000000" d="M 120 219 L 415.4951171875 219 L 415.4951171875 281 L 120 281 L 120 219 Z Z" stroke-miterlimit="10"/></g><g transform="translate(-110,-54) scale(1,1)"><path fill="none" stroke="#000000" d="M 120 244 L 415.4951171875 244" stroke-miterlimit="10"/></g><g transform="translate(-110,-54) scale(1,1)"><g><path fill="none" stroke="none"/><text fill="#000000" stroke="none" font-family="Arial" font-size="13px" font-style="normal" font-weight="bold" text-decoration="none" x="221.517578125" y="237">CostCalculator</text></g></g><g transform="translate(-110,-54) scale(1,1)"><g><path fill="none" stroke="none"/><text fill="#000000" stroke="none" font-family="Arial" font-size="13px" font-style="normal" font-weight="normal" text-decoration="none" x="125" y="260">+constructor(numSuccessList)</text></g></g><g transform="translate(-110,-54) scale(1,1)"><g><path fill="none" stroke="none"/><text fill="#000000" stroke="none" font-family="Arial" font-size="13px" font-style="normal" font-weight="normal" text-decoration="none" x="125" y="275">+calculate(priceList, quantityList): Array&lt;number&gt;</text></g></g><g transform="translate(-110,-54) scale(1,1)"><rect fill="#C0C0C0" stroke="none" x="503" y="207" width="231.18701171875" height="100" opacity="0.2"/></g><g transform="translate(-110,-54) scale(1,1)"><rect fill="#ffffff" stroke="none" x="496" y="200" width="231.18701171875" height="100"/></g><g transform="translate(-110,-54) scale(1,1)"><path fill="none" stroke="#000000" d="M 496 200 L 727.18701171875 200 L 727.18701171875 300 L 496 300 L 496 200 Z Z" stroke-miterlimit="10"/></g><g transform="translate(-110,-54) scale(1,1)"><path fill="none" stroke="#000000" d="M 496 225 L 727.18701171875 225" stroke-miterlimit="10"/></g><g transform="translate(-110,-54) scale(1,1)"><path fill="none" stroke="#000000" d="M 496 278 L 727.18701171875 278" stroke-miterlimit="10"/></g><g transform="translate(-110,-54) scale(1,1)"><g><path fill="none" stroke="none"/><text fill="#000000" stroke="none" font-family="Arial" font-size="13px" font-style="normal" font-weight="bold" text-decoration="none" x="544.048095703125" y="218">RefineStatsCalculator</text></g></g><g transform="translate(-110,-54) scale(1,1)"><g><path fill="none" stroke="none"/><text fill="#000000" stroke="none" font-family="Arial" font-size="13px" font-style="normal" font-weight="normal" text-decoration="none" x="501" y="241">+refinePriceProps: RefinePriceProps</text></g></g><g transform="translate(-110,-54) scale(1,1)"><g><path fill="none" stroke="none"/><text fill="#000000" stroke="none" font-family="Arial" font-size="13px" font-style="normal" font-weight="normal" text-decoration="none" x="501" y="256">+refineResultProps: RefineResult</text></g></g><g transform="translate(-110,-54) scale(1,1)"><g><path fill="none" stroke="none"/><text fill="#000000" stroke="none" font-family="Arial" font-size="13px" font-style="normal" font-weight="normal" text-decoration="none" x="501" y="271">+numSample: number</text></g></g><g transform="translate(-110,-54) scale(1,1)"><g><path fill="none" stroke="none"/><text fill="#000000" stroke="none" font-family="Arial" font-size="13px" font-style="normal" font-weight="normal" text-decoration="none" x="501" y="294">+calculate(): Array&lt;RefineStatsProps&gt;</text></g></g><g transform="translate(-110,-54) scale(1,1)"><path fill="none" stroke="#000000" d="M 495 250 L 416 250" stroke-miterlimit="10"/></g><g transform="translate(-110,-54) scale(1,1)"><path fill="none" stroke="#000000" d="M 426.16267485762415 245.790482243984 L 416 250 L 426.16267485762415 254.209517756016" stroke-miterlimit="10"/></g><g transform="translate(-110,-54) scale(1,1)"><path fill="#C0C0C0" stroke="none" d="M 462.483154296875 82.5 C 462.483154296875 76.1487248 467.631879096875 71 473.983154296875 71 C 480.334429496875 71 485.483154296875 76.1487248 485.483154296875 82.5 C 485.483154296875 88.8512752 480.334429496875 94 473.983154296875 94 C 467.631879096875 94 462.483154296875 88.8512752 462.483154296875 82.5 Z" opacity="0.2"/></g><g transform="translate(-110,-54) scale(1,1)"><path fill="#ffffff" stroke="none" d="M 455.483154296875 75.5 C 455.483154296875 69.1487248 460.631879096875 64 466.983154296875 64 C 473.334429496875 64 478.483154296875 69.1487248 478.483154296875 75.5 C 478.483154296875 81.8512752 473.334429496875 87 466.983154296875 87 C 460.631879096875 87 455.483154296875 81.8512752 455.483154296875 75.5 Z"/></g><g transform="translate(-110,-54) scale(1,1)"><path fill="none" stroke="#000000" d="M 455.483154296875 75.5 C 455.483154296875 69.1487248 460.631879096875 64 466.983154296875 64 C 473.334429496875 64 478.483154296875 69.1487248 478.483154296875 75.5 C 478.483154296875 81.8512752 473.334429496875 87 466.983154296875 87 C 460.631879096875 87 455.483154296875 81.8512752 455.483154296875 75.5 Z" stroke-miterlimit="10"/></g><g transform="translate(-110,-54) scale(1,1)"><g><path fill="none" stroke="none"/><text fill="#000000" stroke="none" font-family="Arial" font-size="13px" font-style="normal" font-weight="bold" text-decoration="none" x="412.79638671875" y="105">RefinePriceProps</text></g></g><g transform="translate(-110,-54) scale(1,1)"><g><path fill="none" stroke="none"/><text fill="#000000" stroke="none" font-family="Arial" font-size="13px" font-style="normal" font-weight="normal" text-decoration="none" x="404.5" y="120">(from Core.Simulator)</text></g></g><g transform="translate(-110,-54) scale(1,1)"><path fill="none" stroke="#000000" d="M 563 199 L 497 128" stroke-miterlimit="10"/></g><g transform="translate(-110,-54) scale(1,1)"><path fill="none" stroke="#000000" d="M 507.00238353414693 132.57737082131507 L 497 128 L 500.8360632772666 138.30944317278127" stroke-miterlimit="10"/></g><g transform="translate(-110,-54) scale(1,1)"><path fill="#C0C0C0" stroke="none" d="M 727.483154296875 82.5 C 727.483154296875 76.1487248 732.631879096875 71 738.983154296875 71 C 745.334429496875 71 750.483154296875 76.1487248 750.483154296875 82.5 C 750.483154296875 88.8512752 745.334429496875 94 738.983154296875 94 C 732.631879096875 94 727.483154296875 88.8512752 727.483154296875 82.5 Z" opacity="0.2"/></g><g transform="translate(-110,-54) scale(1,1)"><path fill="#ffffff" stroke="none" d="M 720.483154296875 75.5 C 720.483154296875 69.1487248 725.631879096875 64 731.983154296875 64 C 738.334429496875 64 743.483154296875 69.1487248 743.483154296875 75.5 C 743.483154296875 81.8512752 738.334429496875 87 731.983154296875 87 C 725.631879096875 87 720.483154296875 81.8512752 720.483154296875 75.5 Z"/></g><g transform="translate(-110,-54) scale(1,1)"><path fill="none" stroke="#000000" d="M 720.483154296875 75.5 C 720.483154296875 69.1487248 725.631879096875 64 731.983154296875 64 C 738.334429496875 64 743.483154296875 69.1487248 743.483154296875 75.5 C 743.483154296875 81.8512752 738.334429496875 87 731.983154296875 87 C 725.631879096875 87 720.483154296875 81.8512752 720.483154296875 75.5 Z" stroke-miterlimit="10"/></g><g transform="translate(-110,-54) scale(1,1)"><g><path fill="none" stroke="none"/><text fill="#000000" stroke="none" font-family="Arial" font-size="13px" font-style="normal" font-weight="bold" text-decoration="none" x="677.802734375" y="105">RefineStatsProps</text></g></g><g transform="translate(-110,-54) scale(1,1)"><g><path fill="none" stroke="none"/><text fill="#000000" stroke="none" font-family="Arial" font-size="13px" font-style="normal" font-weight="normal" text-decoration="none" x="669.5" y="120">(from Core.Simulator)</text></g></g><g transform="translate(-110,-54) scale(1,1)"><path fill="none" stroke="#000000" d="M 650 199 L 705 128" stroke-miterlimit="10"/></g><g transform="translate(-110,-54) scale(1,1)"><path fill="none" stroke="#000000" d="M 702.104234337247 138.61199986931874 L 705 128 L 695.4485673935942 133.45620153268624" stroke-miterlimit="10"/></g><g transform="translate(-110,-54) scale(1,1)"><rect fill="#C0C0C0" stroke="none" x="855" y="182" width="153.8662109375" height="150" opacity="0.2"/></g><g transform="translate(-110,-54) scale(1,1)"><rect fill="#ffffff" stroke="none" x="848" y="175" width="153.8662109375" height="150"/></g><g transform="translate(-110,-54) scale(1,1)"><path fill="none" stroke="#000000" d="M 848 175 L 1001.8662109375 175 L 1001.8662109375 325 L 848 325 L 848 175 Z Z" stroke-miterlimit="10"/></g><g transform="translate(-110,-54) scale(1,1)"><path fill="none" stroke="#000000" d="M 848 228 L 1001.8662109375 228" stroke-miterlimit="10"/></g><g transform="translate(-110,-54) scale(1,1)"><g><path fill="none" stroke="none"/><text fill="#000000" stroke="none" font-family="Arial" font-size="13px" font-style="normal" font-weight="normal" text-decoration="none" x="892.772705078125" y="191">«interface»</text></g></g><g transform="translate(-110,-54) scale(1,1)"><g><path fill="none" stroke="none"/><text fill="#000000" stroke="none" font-family="Arial" font-size="13px" font-style="normal" font-weight="bold" text-decoration="none" x="885.203125" y="206">RefineResult</text></g></g><g transform="translate(-110,-54) scale(1,1)"><g><path fill="none" stroke="none"/><text fill="#000000" stroke="none" font-family="Arial" font-size="13px" font-style="normal" font-weight="normal" text-decoration="none" x="854.140869140625" y="221">(from Domain.Simulator)</text></g></g><g transform="translate(-110,-54) scale(1,1)"><g><path fill="none" stroke="none"/><text fill="#000000" stroke="none" font-family="Arial" font-size="13px" font-style="normal" font-weight="normal" text-decoration="none" x="853" y="244">+refineLevel: number</text></g></g><g transform="translate(-110,-54) scale(1,1)"><g><path fill="none" stroke="none"/><text fill="#000000" stroke="none" font-family="Arial" font-size="13px" font-style="normal" font-weight="normal" text-decoration="none" x="853" y="259">+refineTimes: number</text></g></g><g transform="translate(-110,-54) scale(1,1)"><g><path fill="none" stroke="none"/><text fill="#000000" stroke="none" font-family="Arial" font-size="13px" font-style="normal" font-weight="normal" text-decoration="none" x="853" y="274">+material: RefineMaterial</text></g></g><g transform="translate(-110,-54) scale(1,1)"><g><path fill="none" stroke="none"/><text fill="#000000" stroke="none" font-family="Arial" font-size="13px" font-style="normal" font-weight="normal" text-decoration="none" x="853" y="289">+numBlessings: number</text></g></g><g transform="translate(-110,-54) scale(1,1)"><g><path fill="none" stroke="none"/><text fill="#000000" stroke="none" font-family="Arial" font-size="13px" font-style="normal" font-weight="normal" text-decoration="none" x="853" y="304">+numSuccess: number</text></g></g><g transform="translate(-110,-54) scale(1,1)"><g><path fill="none" stroke="none"/><text fill="#000000" stroke="none" font-family="Arial" font-size="13px" font-style="normal" font-weight="normal" text-decoration="none" x="853" y="319">+numSamples: number</text></g></g><g transform="translate(-110,-54) scale(1,1)"><path fill="none" stroke="#000000" d="M 728 250 L 847 250" stroke-miterlimit="10"/></g><g transform="translate(-110,-54) scale(1,1)"><path fill="none" stroke="#000000" d="M 836.8373251423759 254.209517756016 L 847 250 L 836.8373251423758 245.790482243984" stroke-miterlimit="10"/></g></g></svg>