<svg version="1.1" xmlns="http://www.w3.org/2000/svg" xmlns:xlink="http://www.w3.org/1999/xlink" width="1013.58251953125" height="680"><defs/><g><text fill="#eeeeee" stroke="none" font-family="Arial" font-size="24px" font-style="normal" font-weight="normal" text-decoration="none" x="0" y="0"></text><text fill="#eeeeee" stroke="none" font-family="Arial" font-size="24px" font-style="normal" font-weight="normal" text-decoration="none" x="0" y="30"></text><text fill="#eeeeee" stroke="none" font-family="Arial" font-size="24px" font-style="normal" font-weight="normal" text-decoration="none" x="0" y="60"></text><text fill="#eeeeee" stroke="none" font-family="Arial" font-size="24px" font-style="normal" font-weight="normal" text-decoration="none" x="0" y="90"></text><text fill="#eeeeee" stroke="none" font-family="Arial" font-size="24px" font-style="normal" font-weight="normal" text-decoration="none" x="0" y="120"></text><text fill="#eeeeee" stroke="none" font-family="Arial" font-size="24px" font-style="normal" font-weight="normal" text-decoration="none" x="0" y="150"></text><text fill="#eeeeee" stroke="none" font-family="Arial" font-size="24px" font-style="normal" font-weight="normal" text-decoration="none" x="0" y="180"></text><text fill="#eeeeee" stroke="none" font-family="Arial" font-size="24px" font-style="normal" font-weight="normal" text-decoration="none" x="0" y="210"></text><text fill="#eeeeee" stroke="none" font-family="Arial" font-size="24px" font-style="normal" font-weight="normal" text-decoration="none" x="0" y="240"></text><text fill="#eeeeee" stroke="none" font-family="Arial" font-size="24px" font-style="normal" font-weight="normal" text-decoration="none" x="0" y="270"></text><text fill="#eeeeee" stroke="none" font-family="Arial" font-size="24px" font-style="normal" font-weight="normal" text-decoration="none" x="0" y="300"></text><text fill="#eeeeee" stroke="none" font-family="Arial" font-size="24px" font-style="normal" font-weight="normal" text-decoration="none" x="0" y="330"></text><text fill="#eeeeee" stroke="none" font-family="Arial" font-size="24px" font-style="normal" font-weight="normal" text-decoration="none" x="0" y="360"></text><text fill="#eeeeee" stroke="none" font-family="Arial" font-size="24px" font-style="normal" font-weight="normal" text-decoration="none" x="0" y="390"></text><text fill="#eeeeee" stroke="none" font-family="Arial" font-size="24px" font-style="normal" font-weight="normal" text-decoration="none" x="0" y="420"></text><text fill="#eeeeee" stroke="none" font-family="Arial" font-size="24px" font-style="normal" font-weight="normal" text-decoration="none" x="0" y="450"></text><text fill="#eeeeee" stroke="none" font-family="Arial" font-size="24px" font-style="normal" font-weight="normal" text-decoration="none" x="0" y="480"></text><text fill="#eeeeee" stroke="none" font-family="Arial" font-size="24px" font-style="normal" font-weight="normal" text-decoration="none" x="0" y="510"></text><text fill="#eeeeee" stroke="none" font-family="Arial" font-size="24px" font-style="normal" font-weight="normal" text-decoration="none" x="0" y="540"></text><text fill="#eeeeee" stroke="none" font-family="Arial" font-size="24px" font-style="normal" font-weight="normal" text-decoration="none" x="0" y="570"></text><text fill="#eeeeee" stroke="none" font-family="Arial" font-size="24px" font-style="normal" font-weight="normal" text-decoration="none" x="0" y="600"></text><text fill="#eeeeee" stroke="none" font-family="Arial" font-size="24px" font-style="normal" font-weight="normal" text-decoration="none" x="0" y="630"></text><text fill="#eeeeee" stroke="none" font-family="Arial" font-size="24px" font-style="normal" font-weight="normal" text-decoration="none" x="0" y="660"></text><text fill="#eeeeee" stroke="none" font-family="Arial" font-size="24px" font-style="normal" font-weight="normal" text-decoration="none" x="200" y="0"></text><text fill="#eeeeee" stroke="none" font-family="Arial" font-size="24px" font-style="normal" font-weight="normal" text-decoration="none" x="200" y="30"></text><text fill="#eeeeee" stroke="none" font-family="Arial" font-size="24px" font-style="normal" font-weight="normal" text-decoration="none" x="200" y="60"></text><text fill="#eeeeee" stroke="none" font-family="Arial" font-size="24px" font-style="normal" font-weight="normal" text-decoration="none" x="200" y="90"></text><text fill="#eeeeee" stroke="none" font-family="Arial" font-size="24px" font-style="normal" font-weight="normal" text-decoration="none" x="200" y="120"></text><text fill="#eeeeee" stroke="none" font-family="Arial" font-size="24px" font-style="normal" font-weight="normal" text-decoration="none" x="200" y="150"></text><text fill="#eeeeee" stroke="none" font-family="Arial" font-size="24px" font-style="normal" font-weight="normal" text-decoration="none" x="200" y="180"></text><text fill="#eeeeee" stroke="none" font-family="Arial" font-size="24px" font-style="normal" font-weight="normal" text-decoration="none" x="200" y="210"></text><text fill="#eeeeee" stroke="none" font-family="Arial" font-size="24px" font-style="normal" font-weight="normal" text-decoration="none" x="200" y="240"></text><text fill="#eeeeee" stroke="none" font-family="Arial" font-size="24px" font-style="normal" font-weight="normal" text-decoration="none" x="200" y="270"></text><text fill="#eeeeee" stroke="none" font-family="Arial" font-size="24px" font-style="normal" font-weight="normal" text-decoration="none" x="200" y="300"></text><text fill="#eeeeee" stroke="none" font-family="Arial" font-size="24px" font-style="normal" font-weight="normal" text-decoration="none" x="200" y="330"></text><text fill="#eeeeee" stroke="none" font-family="Arial" font-size="24px" font-style="normal" font-weight="normal" text-decoration="none" x="200" y="360"></text><text fill="#eeeeee" stroke="none" font-family="Arial" font-size="24px" font-style="normal" font-weight="normal" text-decoration="none" x="200" y="390"></text><text fill="#eeeeee" stroke="none" font-family="Arial" font-size="24px" font-style="normal" font-weight="normal" text-decoration="none" x="200" y="420"></text><text fill="#eeeeee" stroke="none" font-family="Arial" font-size="24px" font-style="normal" font-weight="normal" text-decoration="none" x="200" y="450"></text><text fill="#eeeeee" stroke="none" font-family="Arial" font-size="24px" font-style="normal" font-weight="normal" text-decoration="none" x="200" y="480"></text><text fill="#eeeeee" stroke="none" font-family="Arial" font-size="24px" font-style="normal" font-weight="normal" text-decoration="none" x="200" y="510"></text><text fill="#eeeeee" stroke="none" font-family="Arial" font-size="24px" font-style="normal" font-weight="normal" text-decoration="none" x="200" y="540"></text><text fill="#eeeeee" stroke="none" font-family="Arial" font-size="24px" font-style="normal" font-weight="normal" text-decoration="none" x="200" y="570"></text><text fill="#eeeeee" stroke="none" font-family="Arial" font-size="24px" font-style="normal" font-weight="normal" text-decoration="none" x="200" y="600"></text><text fill="#eeeeee" stroke="none" font-family="Arial" font-size="24px" font-style="normal" font-weight="normal" text-decoration="none" x="200" y="630"></text><text fill="#eeeeee" stroke="none" font-family="Arial" font-size="24px" font-style="normal" font-weight="normal" text-decoration="none" x="200" y="660"></text><text fill="#eeeeee" stroke="none" font-family="Arial" font-size="24px" font-style="normal" font-weight="normal" text-decoration="none" x="400" y="0"></text><text fill="#eeeeee" stroke="none" font-family="Arial" font-size="24px" font-style="normal" font-weight="normal" text-decoration="none" x="400" y="30"></text><text fill="#eeeeee" stroke="none" font-family="Arial" font-size="24px" font-style="normal" font-weight="normal" text-decoration="none" x="400" y="60"></text><text fill="#eeeeee" stroke="none" font-family="Arial" font-size="24px" font-style="normal" font-weight="normal" text-decoration="none" x="400" y="90"></text><text fill="#eeeeee" stroke="none" font-family="Arial" font-size="24px" font-style="normal" font-weight="normal" text-decoration="none" x="400" y="120"></text><text fill="#eeeeee" stroke="none" font-family="Arial" font-size="24px" font-style="normal" font-weight="normal" text-decoration="none" x="400" y="150"></text><text fill="#eeeeee" stroke="none" font-family="Arial" font-size="24px" font-style="normal" font-weight="normal" text-decoration="none" x="400" y="180"></text><text fill="#eeeeee" stroke="none" font-family="Arial" font-size="24px" font-style="normal" font-weight="normal" text-decoration="none" x="400" y="210"></text><text fill="#eeeeee" stroke="none" font-family="Arial" font-size="24px" font-style="normal" font-weight="normal" text-decoration="none" x="400" y="240"></text><text fill="#eeeeee" stroke="none" font-family="Arial" font-size="24px" font-style="normal" font-weight="normal" text-decoration="none" x="400" y="270"></text><text fill="#eeeeee" stroke="none" font-family="Arial" font-size="24px" font-style="normal" font-weight="normal" text-decoration="none" x="400" y="300"></text><text fill="#eeeeee" stroke="none" font-family="Arial" font-size="24px" font-style="normal" font-weight="normal" text-decoration="none" x="400" y="330"></text><text fill="#eeeeee" stroke="none" font-family="Arial" font-size="24px" font-style="normal" font-weight="normal" text-decoration="none" x="400" y="360"></text><text fill="#eeeeee" stroke="none" font-family="Arial" font-size="24px" font-style="normal" font-weight="normal" text-decoration="none" x="400" y="390"></text><text fill="#eeeeee" stroke="none" font-family="Arial" font-size="24px" font-style="normal" font-weight="normal" text-decoration="none" x="400" y="420"></text><text fill="#eeeeee" stroke="none" font-family="Arial" font-size="24px" font-style="normal" font-weight="normal" text-decoration="none" x="400" y="450"></text><text fill="#eeeeee" stroke="none" font-family="Arial" font-size="24px" font-style="normal" font-weight="normal" text-decoration="none" x="400" y="480"></text><text fill="#eeeeee" stroke="none" font-family="Arial" font-size="24px" font-style="normal" font-weight="normal" text-decoration="none" x="400" y="510"></text><text fill="#eeeeee" stroke="none" font-family="Arial" font-size="24px" font-style="normal" font-weight="normal" text-decoration="none" x="400" y="540"></text><text fill="#eeeeee" stroke="none" font-family="Arial" font-size="24px" font-style="normal" font-weight="normal" text-decoration="none" x="400" y="570"></text><text fill="#eeeeee" stroke="none" font-family="Arial" font-size="24px" font-style="normal" font-weight="normal" text-decoration="none" x="400" y="600"></text><text fill="#eeeeee" stroke="none" font-family="Arial" font-size="24px" font-style="normal" font-weight="normal" text-decoration="none" x="400" y="630"></text><text fill="#eeeeee" stroke="none" font-family="Arial" font-size="24px" font-style="normal" font-weight="normal" text-decoration="none" x="400" y="660"></text><text fill="#eeeeee" stroke="none" font-family="Arial" font-size="24px" font-style="normal" font-weight="normal" text-decoration="none" x="600" y="0"></text><text fill="#eeeeee" stroke="none" font-family="Arial" font-size="24px" font-style="normal" font-weight="normal" text-decoration="none" x="600" y="30"></text><text fill="#eeeeee" stroke="none" font-family="Arial" font-size="24px" font-style="normal" font-weight="normal" text-decoration="none" x="600" y="60"></text><text fill="#eeeeee" stroke="none" font-family="Arial" font-size="24px" font-style="normal" font-weight="normal" text-decoration="none" x="600" y="90"></text><text fill="#eeeeee" stroke="none" font-family="Arial" font-size="24px" font-style="normal" font-weight="normal" text-decoration="none" x="600" y="120"></text><text fill="#eeeeee" stroke="none" font-family="Arial" font-size="24px" font-style="normal" font-weight="normal" text-decoration="none" x="600" y="150"></text><text fill="#eeeeee" stroke="none" font-family="Arial" font-size="24px" font-style="normal" font-weight="normal" text-decoration="none" x="600" y="180"></text><text fill="#eeeeee" stroke="none" font-family="Arial" font-size="24px" font-style="normal" font-weight="normal" text-decoration="none" x="600" y="210"></text><text fill="#eeeeee" stroke="none" font-family="Arial" font-size="24px" font-style="normal" font-weight="normal" text-decoration="none" x="600" y="240"></text><text fill="#eeeeee" stroke="none" font-family="Arial" font-size="24px" font-style="normal" font-weight="normal" text-decoration="none" x="600" y="270"></text><text fill="#eeeeee" stroke="none" font-family="Arial" font-size="24px" font-style="normal" font-weight="normal" text-decoration="none" x="600" y="300"></text><text fill="#eeeeee" stroke="none" font-family="Arial" font-size="24px" font-style="normal" font-weight="normal" text-decoration="none" x="600" y="330"></text><text fill="#eeeeee" stroke="none" font-family="Arial" font-size="24px" font-style="normal" font-weight="normal" text-decoration="none" x="600" y="360"></text><text fill="#eeeeee" stroke="none" font-family="Arial" font-size="24px" font-style="normal" font-weight="normal" text-decoration="none" x="600" y="390"></text><text fill="#eeeeee" stroke="none" font-family="Arial" font-size="24px" font-style="normal" font-weight="normal" text-decoration="none" x="600" y="420"></text><text fill="#eeeeee" stroke="none" font-family="Arial" font-size="24px" font-style="normal" font-weight="normal" text-decoration="none" x="600" y="450"></text><text fill="#eeeeee" stroke="none" font-family="Arial" font-size="24px" font-style="normal" font-weight="normal" text-decoration="none" x="600" y="480"></text><text fill="#eeeeee" stroke="none" font-family="Arial" font-size="24px" font-style="normal" font-weight="normal" text-decoration="none" x="600" y="510"></text><text fill="#eeeeee" stroke="none" font-family="Arial" font-size="24px" font-style="normal" font-weight="normal" text-decoration="none" x="600" y="540"></text><text fill="#eeeeee" stroke="none" font-family="Arial" font-size="24px" font-style="normal" font-weight="normal" text-decoration="none" x="600" y="570"></text><text fill="#eeeeee" stroke="none" font-family="Arial" font-size="24px" font-style="normal" font-weight="normal" text-decoration="none" x="600" y="600"></text><text fill="#eeeeee" stroke="none" font-family="Arial" font-size="24px" font-style="normal" font-weight="normal" text-decoration="none" x="600" y="630"></text><text fill="#eeeeee" stroke="none" font-family="Arial" font-size="24px" font-style="normal" font-weight="normal" text-decoration="none" x="600" y="660"></text><text fill="#eeeeee" stroke="none" font-family="Arial" font-size="24px" font-style="normal" font-weight="normal" text-decoration="none" x="800" y="0"></text><text fill="#eeeeee" stroke="none" font-family="Arial" font-size="24px" font-style="normal" font-weight="normal" text-decoration="none" x="800" y="30"></text><text fill="#eeeeee" stroke="none" font-family="Arial" font-size="24px" font-style="normal" font-weight="normal" text-decoration="none" x="800" y="60"></text><text fill="#eeeeee" stroke="none" font-family="Arial" font-size="24px" font-style="normal" font-weight="normal" text-decoration="none" x="800" y="90"></text><text fill="#eeeeee" stroke="none" font-family="Arial" font-size="24px" font-style="normal" font-weight="normal" text-decoration="none" x="800" y="120"></text><text fill="#eeeeee" stroke="none" font-family="Arial" font-size="24px" font-style="normal" font-weight="normal" text-decoration="none" x="800" y="150"></text><text fill="#eeeeee" stroke="none" font-family="Arial" font-size="24px" font-style="normal" font-weight="normal" text-decoration="none" x="800" y="180"></text><text fill="#eeeeee" stroke="none" font-family="Arial" font-size="24px" font-style="normal" font-weight="normal" text-decoration="none" x="800" y="210"></text><text fill="#eeeeee" stroke="none" font-family="Arial" font-size="24px" font-style="normal" font-weight="normal" text-decoration="none" x="800" y="240"></text><text fill="#eeeeee" stroke="none" font-family="Arial" font-size="24px" font-style="normal" font-weight="normal" text-decoration="none" x="800" y="270"></text><text fill="#eeeeee" stroke="none" font-family="Arial" font-size="24px" font-style="normal" font-weight="normal" text-decoration="none" x="800" y="300"></text><text fill="#eeeeee" stroke="none" font-family="Arial" font-size="24px" font-style="normal" font-weight="normal" text-decoration="none" x="800" y="330"></text><text fill="#eeeeee" stroke="none" font-family="Arial" font-size="24px" font-style="normal" font-weight="normal" text-decoration="none" x="800" y="360"></text><text fill="#eeeeee" stroke="none" font-family="Arial" font-size="24px" font-style="normal" font-weight="normal" text-decoration="none" x="800" y="390"></text><text fill="#eeeeee" stroke="none" font-family="Arial" font-size="24px" font-style="normal" font-weight="normal" text-decoration="none" x="800" y="420"></text><text fill="#eeeeee" stroke="none" font-family="Arial" font-size="24px" font-style="normal" font-weight="normal" text-decoration="none" x="800" y="450"></text><text fill="#eeeeee" stroke="none" font-family="Arial" font-size="24px" font-style="normal" font-weight="normal" text-decoration="none" x="800" y="480"></text><text fill="#eeeeee" stroke="none" font-family="Arial" font-size="24px" font-style="normal" font-weight="normal" text-decoration="none" x="800" y="510"></text><text fill="#eeeeee" stroke="none" font-family="Arial" font-size="24px" font-style="normal" font-weight="normal" text-decoration="none" x="800" y="540"></text><text fill="#eeeeee" stroke="none" font-family="Arial" font-size="24px" font-style="normal" font-weight="normal" text-decoration="none" x="800" y="570"></text><text fill="#eeeeee" stroke="none" font-family="Arial" font-size="24px" font-style="normal" font-weight="normal" text-decoration="none" x="800" y="600"></text><text fill="#eeeeee" stroke="none" font-family="Arial" font-size="24px" font-style="normal" font-weight="normal" text-decoration="none" x="800" y="630"></text><text fill="#eeeeee" stroke="none" font-family="Arial" font-size="24px" font-style="normal" font-weight="normal" text-decoration="none" x="800" y="660"></text><text fill="#eeeeee" stroke="none" font-family="Arial" font-size="24px" font-style="normal" font-weight="normal" text-decoration="none" x="1000" y="0"></text><text fill="#eeeeee" stroke="none" font-family="Arial" font-size="24px" font-style="normal" font-weight="normal" text-decoration="none" x="1000" y="30"></text><text fill="#eeeeee" stroke="none" font-family="Arial" font-size="24px" font-style="normal" font-weight="normal" text-decoration="none" x="1000" y="60"></text><text fill="#eeeeee" stroke="none" font-family="Arial" font-size="24px" font-style="normal" font-weight="normal" text-decoration="none" x="1000" y="90"></text><text fill="#eeeeee" stroke="none" font-family="Arial" font-size="24px" font-style="normal" font-weight="normal" text-decoration="none" x="1000" y="120"></text><text fill="#eeeeee" stroke="none" font-family="Arial" font-size="24px" font-style="normal" font-weight="normal" text-decoration="none" x="1000" y="150"></text><text fill="#eeeeee" stroke="none" font-family="Arial" font-size="24px" font-style="normal" font-weight="normal" text-decoration="none" x="1000" y="180"></text><text fill="#eeeeee" stroke="none" font-family="Arial" font-size="24px" font-style="normal" font-weight="normal" text-decoration="none" x="1000" y="210"></text><text fill="#eeeeee" stroke="none" font-family="Arial" font-size="24px" font-style="normal" font-weight="normal" text-decoration="none" x="1000" y="240"></text><text fill="#eeeeee" stroke="none" font-family="Arial" font-size="24px" font-style="normal" font-weight="normal" text-decoration="none" x="1000" y="270"></text><text fill="#eeeeee" stroke="none" font-family="Arial" font-size="24px" font-style="normal" font-weight="normal" text-decoration="none" x="1000" y="300"></text><text fill="#eeeeee" stroke="none" font-family="Arial" font-size="24px" font-style="normal" font-weight="normal" text-decoration="none" x="1000" y="330"></text><text fill="#eeeeee" stroke="none" font-family="Arial" font-size="24px" font-style="normal" font-weight="normal" text-decoration="none" x="1000" y="360"></text><text fill="#eeeeee" stroke="none" font-family="Arial" font-size="24px" font-style="normal" font-weight="normal" text-decoration="none" x="1000" y="390"></text><text fill="#eeeeee" stroke="none" font-family="Arial" font-size="24px" font-style="normal" font-weight="normal" text-decoration="none" x="1000" y="420"></text><text fill="#eeeeee" stroke="none" font-family="Arial" font-size="24px" font-style="normal" font-weight="normal" text-decoration="none" x="1000" y="450"></text><text fill="#eeeeee" stroke="none" font-family="Arial" font-size="24px" font-style="normal" font-weight="normal" text-decoration="none" x="1000" y="480"></text><text fill="#eeeeee" stroke="none" font-family="Arial" font-size="24px" font-style="normal" font-weight="normal" text-decoration="none" x="1000" y="510"></text><text fill="#eeeeee" stroke="none" font-family="Arial" font-size="24px" font-style="normal" font-weight="normal" text-decoration="none" x="1000" y="540"></text><text fill="#eeeeee" stroke="none" font-family="Arial" font-size="24px" font-style="normal" font-weight="normal" text-decoration="none" x="1000" y="570"></text><text fill="#eeeeee" stroke="none" font-family="Arial" font-size="24px" font-style="normal" font-weight="normal" text-decoration="none" x="1000" y="600"></text><text fill="#eeeeee" stroke="none" font-family="Arial" font-size="24px" font-style="normal" font-weight="normal" text-decoration="none" x="1000" y="630"></text><text fill="#eeeeee" stroke="none" font-family="Arial" font-size="24px" font-style="normal" font-weight="normal" text-decoration="none" x="1000" y="660"></text><g transform="translate(-42,-134) scale(1,1)"><rect fill="#C0C0C0" stroke="none" x="354" y="151" width="144.56689453125" height="44" opacity="0.2"/></g><g transform="translate(-42,-134) scale(1,1)"><rect fill="#ffffff" stroke="none" x="347" y="144" width="144.56689453125" height="44"/></g><g transform="translate(-42,-134) scale(1,1)"><path fill="none" stroke="#000000" d="M 347 144 L 491.56689453125 144 L 491.56689453125 188 L 347 188 L 347 144 Z Z" stroke-miterlimit="10"/></g><g transform="translate(-42,-134) scale(1,1)"><g><path fill="none" stroke="none"/><text fill="#000000" stroke="none" font-family="Arial" font-size="13px" font-style="normal" font-weight="bold" text-decoration="none" x="359.094970703125" y="162">EquipmentInfoView</text></g></g><g transform="translate(-42,-134) scale(1,1)"><rect fill="#C0C0C0" stroke="none" x="354" y="254" width="144.56689453125" height="44" opacity="0.2"/></g><g transform="translate(-42,-134) scale(1,1)"><rect fill="#ffffff" stroke="none" x="347" y="247" width="144.56689453125" height="44"/></g><g transform="translate(-42,-134) scale(1,1)"><path fill="none" stroke="#000000" d="M 347 247 L 491.56689453125 247 L 491.56689453125 291 L 347 291 L 347 247 Z Z" stroke-miterlimit="10"/></g><g transform="translate(-42,-134) scale(1,1)"><g><path fill="none" stroke="none"/><text fill="#000000" stroke="none" font-family="Arial" font-size="13px" font-style="normal" font-weight="bold" text-decoration="none" x="368.11181640625" y="265">MaterialInfoView</text></g></g><g transform="translate(-42,-134) scale(1,1)"><rect fill="#C0C0C0" stroke="none" x="354" y="353" width="144.56689453125" height="44" opacity="0.2"/></g><g transform="translate(-42,-134) scale(1,1)"><rect fill="#ffffff" stroke="none" x="347" y="346" width="144.56689453125" height="44"/></g><g transform="translate(-42,-134) scale(1,1)"><path fill="none" stroke="#000000" d="M 347 346 L 491.56689453125 346 L 491.56689453125 390 L 347 390 L 347 346 Z Z" stroke-miterlimit="10"/></g><g transform="translate(-42,-134) scale(1,1)"><g><path fill="none" stroke="none"/><text fill="#000000" stroke="none" font-family="Arial" font-size="13px" font-style="normal" font-weight="bold" text-decoration="none" x="372.812255859375" y="364">RefineInfoView</text></g></g><g transform="translate(-42,-134) scale(1,1)"><rect fill="#C0C0C0" stroke="none" x="354" y="459" width="144.56689453125" height="44" opacity="0.2"/></g><g transform="translate(-42,-134) scale(1,1)"><rect fill="#ffffff" stroke="none" x="347" y="452" width="144.56689453125" height="44"/></g><g transform="translate(-42,-134) scale(1,1)"><path fill="none" stroke="#000000" d="M 347 452 L 491.56689453125 452 L 491.56689453125 496 L 347 496 L 347 452 Z Z" stroke-miterlimit="10"/></g><g transform="translate(-42,-134) scale(1,1)"><g><path fill="none" stroke="none"/><text fill="#000000" stroke="none" font-family="Arial" font-size="13px" font-style="normal" font-weight="bold" text-decoration="none" x="359.42822265625" y="470">RefineProcessView</text></g></g><g transform="translate(-42,-134) scale(1,1)"><rect fill="#C0C0C0" stroke="none" x="354" y="666" width="144.56689453125" height="44" opacity="0.2"/></g><g transform="translate(-42,-134) scale(1,1)"><rect fill="#ffffff" stroke="none" x="347" y="659" width="144.56689453125" height="44"/></g><g transform="translate(-42,-134) scale(1,1)"><path fill="none" stroke="#000000" d="M 347 659 L 491.56689453125 659 L 491.56689453125 703 L 347 703 L 347 659 Z Z" stroke-miterlimit="10"/></g><g transform="translate(-42,-134) scale(1,1)"><g><path fill="none" stroke="none"/><text fill="#000000" stroke="none" font-family="Arial" font-size="13px" font-style="normal" font-weight="bold" text-decoration="none" x="364.858642578125" y="677">RefineRangeView</text></g></g><g transform="translate(-42,-134) scale(1,1)"><rect fill="#C0C0C0" stroke="none" x="354" y="563" width="144.56689453125" height="44" opacity="0.2"/></g><g transform="translate(-42,-134) scale(1,1)"><rect fill="#ffffff" stroke="none" x="347" y="556" width="144.56689453125" height="44"/></g><g transform="translate(-42,-134) scale(1,1)"><path fill="none" stroke="#000000" d="M 347 556 L 491.56689453125 556 L 491.56689453125 600 L 347 600 L 347 556 Z Z" stroke-miterlimit="10"/></g><g transform="translate(-42,-134) scale(1,1)"><g><path fill="none" stroke="none"/><text fill="#000000" stroke="none" font-family="Arial" font-size="13px" font-style="normal" font-weight="bold" text-decoration="none" x="351.5" y="574">RefineSimulationView</text></g></g><g transform="translate(-42,-134) scale(1,1)"><rect fill="#C0C0C0" stroke="none" x="354" y="767" width="144.56689453125" height="44" opacity="0.2"/></g><g transform="translate(-42,-134) scale(1,1)"><rect fill="#ffffff" stroke="none" x="347" y="760" width="144.56689453125" height="44"/></g><g transform="translate(-42,-134) scale(1,1)"><path fill="none" stroke="#000000" d="M 347 760 L 491.56689453125 760 L 491.56689453125 804 L 347 804 L 347 760 Z Z" stroke-miterlimit="10"/></g><g transform="translate(-42,-134) scale(1,1)"><g><path fill="none" stroke="none"/><text fill="#000000" stroke="none" font-family="Arial" font-size="13px" font-style="normal" font-weight="bold" text-decoration="none" x="368.8291015625" y="778">RefineStatsView</text></g></g><g transform="translate(-42,-134) scale(1,1)"><rect fill="#C0C0C0" stroke="none" x="59" y="565" width="197.58251953125" height="39" opacity="0.2"/></g><g transform="translate(-42,-134) scale(1,1)"><rect fill="#ffffff" stroke="none" x="52" y="558" width="197.58251953125" height="39"/></g><g transform="translate(-42,-134) scale(1,1)"><path fill="none" stroke="#000000" d="M 52 558 L 249.58251953125 558 L 249.58251953125 597 L 52 597 L 52 558 Z Z" stroke-miterlimit="10"/></g><g transform="translate(-42,-134) scale(1,1)"><g><path fill="none" stroke="none"/><text fill="#000000" stroke="none" font-family="Arial" font-size="13px" font-style="normal" font-weight="bold" text-decoration="none" x="105.66259765625" y="576">CustomButton</text></g></g><g transform="translate(-42,-134) scale(1,1)"><g><path fill="none" stroke="none"/><text fill="#000000" stroke="none" font-family="Arial" font-size="13px" font-style="normal" font-weight="normal" text-decoration="none" x="56.5" y="591">(from Presentation.Components)</text></g></g><g transform="translate(-42,-134) scale(1,1)"><rect fill="#C0C0C0" stroke="none" x="59" y="151" width="197.58251953125" height="39" opacity="0.2"/></g><g transform="translate(-42,-134) scale(1,1)"><rect fill="#ffffff" stroke="none" x="52" y="144" width="197.58251953125" height="39"/></g><g transform="translate(-42,-134) scale(1,1)"><path fill="none" stroke="#000000" d="M 52 144 L 249.58251953125 144 L 249.58251953125 183 L 52 183 L 52 144 Z Z" stroke-miterlimit="10"/></g><g transform="translate(-42,-134) scale(1,1)"><g><path fill="none" stroke="none"/><text fill="#000000" stroke="none" font-family="Arial" font-size="13px" font-style="normal" font-weight="bold" text-decoration="none" x="92.65625" y="162">CustomCombobox</text></g></g><g transform="translate(-42,-134) scale(1,1)"><g><path fill="none" stroke="none"/><text fill="#000000" stroke="none" font-family="Arial" font-size="13px" font-style="normal" font-weight="normal" text-decoration="none" x="56.5" y="177">(from Presentation.Components)</text></g></g><g transform="translate(-42,-134) scale(1,1)"><rect fill="#C0C0C0" stroke="none" x="59" y="671" width="197.58251953125" height="39" opacity="0.2"/></g><g transform="translate(-42,-134) scale(1,1)"><rect fill="#ffffff" stroke="none" x="52" y="664" width="197.58251953125" height="39"/></g><g transform="translate(-42,-134) scale(1,1)"><path fill="none" stroke="#000000" d="M 52 664 L 249.58251953125 664 L 249.58251953125 703 L 52 703 L 52 664 Z Z" stroke-miterlimit="10"/></g><g transform="translate(-42,-134) scale(1,1)"><g><path fill="none" stroke="none"/><text fill="#000000" stroke="none" font-family="Arial" font-size="13px" font-style="normal" font-weight="bold" text-decoration="none" x="108.534912109375" y="682">CustomSlider</text></g></g><g transform="translate(-42,-134) scale(1,1)"><g><path fill="none" stroke="none"/><text fill="#000000" stroke="none" font-family="Arial" font-size="13px" font-style="normal" font-weight="normal" text-decoration="none" x="56.5" y="697">(from Presentation.Components)</text></g></g><g transform="translate(-42,-134) scale(1,1)"><rect fill="#C0C0C0" stroke="none" x="591" y="407" width="197.58251953125" height="39" opacity="0.2"/></g><g transform="translate(-42,-134) scale(1,1)"><rect fill="#ffffff" stroke="none" x="584" y="400" width="197.58251953125" height="39"/></g><g transform="translate(-42,-134) scale(1,1)"><path fill="none" stroke="#000000" d="M 584 400 L 781.58251953125 400 L 781.58251953125 439 L 584 439 L 584 400 Z Z" stroke-miterlimit="10"/></g><g transform="translate(-42,-134) scale(1,1)"><g><path fill="none" stroke="none"/><text fill="#000000" stroke="none" font-family="Arial" font-size="13px" font-style="normal" font-weight="bold" text-decoration="none" x="616.71533203125" y="418">CustomSwitchButton</text></g></g><g transform="translate(-42,-134) scale(1,1)"><g><path fill="none" stroke="none"/><text fill="#000000" stroke="none" font-family="Arial" font-size="13px" font-style="normal" font-weight="normal" text-decoration="none" x="588.5" y="433">(from Presentation.Components)</text></g></g><g transform="translate(-42,-134) scale(1,1)"><rect fill="#C0C0C0" stroke="none" x="59" y="255" width="197.58251953125" height="39" opacity="0.2"/></g><g transform="translate(-42,-134) scale(1,1)"><rect fill="#ffffff" stroke="none" x="52" y="248" width="197.58251953125" height="39"/></g><g transform="translate(-42,-134) scale(1,1)"><path fill="none" stroke="#000000" d="M 52 248 L 249.58251953125 248 L 249.58251953125 287 L 52 287 L 52 248 Z Z" stroke-miterlimit="10"/></g><g transform="translate(-42,-134) scale(1,1)"><g><path fill="none" stroke="none"/><text fill="#000000" stroke="none" font-family="Arial" font-size="13px" font-style="normal" font-weight="bold" text-decoration="none" x="84.84228515625" y="266">CustomToggleButton</text></g></g><g transform="translate(-42,-134) scale(1,1)"><g><path fill="none" stroke="none"/><text fill="#000000" stroke="none" font-family="Arial" font-size="13px" font-style="normal" font-weight="normal" text-decoration="none" x="56.5" y="281">(from Presentation.Components)</text></g></g><g transform="translate(-42,-134) scale(1,1)"><rect fill="#C0C0C0" stroke="none" x="855" y="407" width="197.58251953125" height="39" opacity="0.2"/></g><g transform="translate(-42,-134) scale(1,1)"><rect fill="#ffffff" stroke="none" x="848" y="400" width="197.58251953125" height="39"/></g><g transform="translate(-42,-134) scale(1,1)"><path fill="none" stroke="#000000" d="M 848 400 L 1045.58251953125 400 L 1045.58251953125 439 L 848 439 L 848 400 Z Z" stroke-miterlimit="10"/></g><g transform="translate(-42,-134) scale(1,1)"><g><path fill="none" stroke="none"/><text fill="#000000" stroke="none" font-family="Arial" font-size="13px" font-style="normal" font-weight="bold" text-decoration="none" x="894.181884765625" y="418">NumberTextField</text></g></g><g transform="translate(-42,-134) scale(1,1)"><g><path fill="none" stroke="none"/><text fill="#000000" stroke="none" font-family="Arial" font-size="13px" font-style="normal" font-weight="normal" text-decoration="none" x="852.5" y="433">(from Presentation.Components)</text></g></g><g transform="translate(-42,-134) scale(1,1)"><path fill="none" stroke="#000000" d="M 347 168 L 304 168 L 304 264 L 250 264" stroke-miterlimit="10"/></g><g transform="translate(-42,-134) scale(1,1)"><path fill="none" stroke="#000000" d="M 260.16267485762415 259.790482243984 L 250 264 L 260.16267485762415 268.209517756016" stroke-miterlimit="10"/></g><g transform="translate(-42,-134) scale(1,1)"><path fill="none" stroke="#000000" d="M 347 168 L 250 168" stroke-miterlimit="10"/></g><g transform="translate(-42,-134) scale(1,1)"><path fill="none" stroke="#000000" d="M 260.16267485762415 163.790482243984 L 250 168 L 260.16267485762415 172.209517756016" stroke-miterlimit="10"/></g><g transform="translate(-42,-134) scale(1,1)"><path fill="none" stroke="#000000" d="M 492 163 L 946 163 L 946 400" stroke-miterlimit="10"/></g><g transform="translate(-42,-134) scale(1,1)"><path fill="none" stroke="#000000" d="M 941.790482243984 389.83732514237585 L 946 400 L 950.209517756016 389.83732514237585" stroke-miterlimit="10"/></g><g transform="translate(-42,-134) scale(1,1)"><path fill="none" stroke="#000000" d="M 492 264 L 946 264 L 946 400" stroke-miterlimit="10"/></g><g transform="translate(-42,-134) scale(1,1)"><path fill="none" stroke="#000000" d="M 941.790482243984 389.83732514237585 L 946 400 L 950.209517756016 389.83732514237585" stroke-miterlimit="10"/></g><g transform="translate(-42,-134) scale(1,1)"><path fill="none" stroke="#000000" d="M 492 368 L 690 368 L 690 400" stroke-miterlimit="10"/></g><g transform="translate(-42,-134) scale(1,1)"><path fill="none" stroke="#000000" d="M 685.790482243984 389.83732514237585 L 690 400 L 694.209517756016 389.83732514237585" stroke-miterlimit="10"/></g><g transform="translate(-42,-134) scale(1,1)"><path fill="none" stroke="#000000" d="M 492 368 L 946 368 L 946 400" stroke-miterlimit="10"/></g><g transform="translate(-42,-134) scale(1,1)"><path fill="none" stroke="#000000" d="M 941.790482243984 389.83732514237585 L 946 400 L 950.209517756016 389.83732514237585" stroke-miterlimit="10"/></g><g transform="translate(-42,-134) scale(1,1)"><path fill="none" stroke="#000000" d="M 492 480 L 690 480 L 690 439" stroke-miterlimit="10"/></g><g transform="translate(-42,-134) scale(1,1)"><path fill="none" stroke="#000000" d="M 694.209517756016 449.16267485762415 L 690 439 L 685.790482243984 449.16267485762415" stroke-miterlimit="10"/></g><g transform="translate(-42,-134) scale(1,1)"><path fill="none" stroke="#000000" d="M 347 478 L 152 478 L 152 287" stroke-miterlimit="10"/></g><g transform="translate(-42,-134) scale(1,1)"><path fill="none" stroke="#000000" d="M 156.209517756016 297.16267485762415 L 152 287 L 147.790482243984 297.16267485762415" stroke-miterlimit="10"/></g><g transform="translate(-42,-134) scale(1,1)"><path fill="none" stroke="#000000" d="M 347 683 L 250 683" stroke-miterlimit="10"/></g><g transform="translate(-42,-134) scale(1,1)"><path fill="none" stroke="#000000" d="M 260.16267485762415 678.790482243984 L 250 683 L 260.16267485762415 687.209517756016" stroke-miterlimit="10"/></g><g transform="translate(-42,-134) scale(1,1)"><path fill="none" stroke="#000000" d="M 347 578 L 250 578" stroke-miterlimit="10"/></g><g transform="translate(-42,-134) scale(1,1)"><path fill="none" stroke="#000000" d="M 260.16267485762415 573.790482243984 L 250 578 L 260.16267485762415 582.209517756016" stroke-miterlimit="10"/></g><g transform="translate(-42,-134) scale(1,1)"><path fill="none" stroke="#000000" d="M 492 576 L 946 576 L 946 439" stroke-miterlimit="10"/></g><g transform="translate(-42,-134) scale(1,1)"><path fill="none" stroke="#000000" d="M 950.209517756016 449.16267485762415 L 946 439 L 941.790482243984 449.16267485762415" stroke-miterlimit="10"/></g></g></svg>