<svg version="1.1" xmlns="http://www.w3.org/2000/svg" xmlns:xlink="http://www.w3.org/1999/xlink" width="598.47900390625" height="173"><defs/><g><text fill="#eeeeee" stroke="none" font-family="Arial" font-size="24px" font-style="normal" font-weight="normal" text-decoration="none" x="0" y="0"></text><text fill="#eeeeee" stroke="none" font-family="Arial" font-size="24px" font-style="normal" font-weight="normal" text-decoration="none" x="0" y="30"></text><text fill="#eeeeee" stroke="none" font-family="Arial" font-size="24px" font-style="normal" font-weight="normal" text-decoration="none" x="0" y="60"></text><text fill="#eeeeee" stroke="none" font-family="Arial" font-size="24px" font-style="normal" font-weight="normal" text-decoration="none" x="0" y="90"></text><text fill="#eeeeee" stroke="none" font-family="Arial" font-size="24px" font-style="normal" font-weight="normal" text-decoration="none" x="0" y="120"></text><text fill="#eeeeee" stroke="none" font-family="Arial" font-size="24px" font-style="normal" font-weight="normal" text-decoration="none" x="0" y="150"></text><text fill="#eeeeee" stroke="none" font-family="Arial" font-size="24px" font-style="normal" font-weight="normal" text-decoration="none" x="200" y="0"></text><text fill="#eeeeee" stroke="none" font-family="Arial" font-size="24px" font-style="normal" font-weight="normal" text-decoration="none" x="200" y="30"></text><text fill="#eeeeee" stroke="none" font-family="Arial" font-size="24px" font-style="normal" font-weight="normal" text-decoration="none" x="200" y="60"></text><text fill="#eeeeee" stroke="none" font-family="Arial" font-size="24px" font-style="normal" font-weight="normal" text-decoration="none" x="200" y="90"></text><text fill="#eeeeee" stroke="none" font-family="Arial" font-size="24px" font-style="normal" font-weight="normal" text-decoration="none" x="200" y="120"></text><text fill="#eeeeee" stroke="none" font-family="Arial" font-size="24px" font-style="normal" font-weight="normal" text-decoration="none" x="200" y="150"></text><text fill="#eeeeee" stroke="none" font-family="Arial" font-size="24px" font-style="normal" font-weight="normal" text-decoration="none" x="400" y="0"></text><text fill="#eeeeee" stroke="none" font-family="Arial" font-size="24px" font-style="normal" font-weight="normal" text-decoration="none" x="400" y="30"></text><text fill="#eeeeee" stroke="none" font-family="Arial" font-size="24px" font-style="normal" font-weight="normal" text-decoration="none" x="400" y="60"></text><text fill="#eeeeee" stroke="none" font-family="Arial" font-size="24px" font-style="normal" font-weight="normal" text-decoration="none" x="400" y="90"></text><text fill="#eeeeee" stroke="none" font-family="Arial" font-size="24px" font-style="normal" font-weight="normal" text-decoration="none" x="400" y="120"></text><text fill="#eeeeee" stroke="none" font-family="Arial" font-size="24px" font-style="normal" font-weight="normal" text-decoration="none" x="400" y="150"></text><g transform="translate(-62,-122) scale(1,1)"><rect fill="#C0C0C0" stroke="none" x="582" y="139" width="30.191601562499955" height="15" opacity="0.2"/></g><g transform="translate(-62,-122) scale(1,1)"><rect fill="#C0C0C0" stroke="none" x="582" y="153" width="75.47900390625" height="25" opacity="0.2"/></g><g transform="translate(-62,-122) scale(1,1)"><rect fill="#ffffff" stroke="none" x="575" y="147" width="75.47900390625" height="24"/></g><g transform="translate(-62,-122) scale(1,1)"><path fill="none" stroke="#000000" d="M 575 147 L 650.47900390625 147 L 650.47900390625 171 L 575 171 L 575 147 Z Z" stroke-miterlimit="10"/></g><g transform="translate(-62,-122) scale(1,1)"><rect fill="#ffffff" stroke="none" x="575" y="132" width="30.191601562499955" height="15"/></g><g transform="translate(-62,-122) scale(1,1)"><path fill="none" stroke="#000000" d="M 575 132 L 605.1916015625 132 L 605.1916015625 147 L 575 147 L 575 132 Z Z" stroke-miterlimit="10"/></g><g transform="translate(-62,-122) scale(1,1)"><rect fill="#ffffff" stroke="none" x="575" y="146" width="75.47900390625" height="25"/></g><g transform="translate(-62,-122) scale(1,1)"><path fill="none" stroke="#000000" d="M 575 146 L 650.47900390625 146 L 650.47900390625 171 L 575 171 L 575 146 Z Z" stroke-miterlimit="10"/></g><g transform="translate(-62,-122) scale(1,1)"><g><path fill="none" stroke="none"/><text fill="#000000" stroke="none" font-family="Arial" font-size="13px" font-style="normal" font-weight="bold" text-decoration="none" x="597.930419921875" y="165">Core</text></g></g><g transform="translate(-62,-122) scale(1,1)"><rect fill="#C0C0C0" stroke="none" x="452" y="139" width="27.5966796875" height="15" opacity="0.2"/></g><g transform="translate(-62,-122) scale(1,1)"><rect fill="#C0C0C0" stroke="none" x="452" y="153" width="68.99169921875" height="25" opacity="0.2"/></g><g transform="translate(-62,-122) scale(1,1)"><rect fill="#ffffff" stroke="none" x="445" y="147" width="68.99169921875" height="24"/></g><g transform="translate(-62,-122) scale(1,1)"><path fill="none" stroke="#000000" d="M 445 147 L 513.99169921875 147 L 513.99169921875 171 L 445 171 L 445 147 Z Z" stroke-miterlimit="10"/></g><g transform="translate(-62,-122) scale(1,1)"><rect fill="#ffffff" stroke="none" x="445" y="132" width="27.5966796875" height="15"/></g><g transform="translate(-62,-122) scale(1,1)"><path fill="none" stroke="#000000" d="M 445 132 L 472.5966796875 132 L 472.5966796875 147 L 445 147 L 445 132 Z Z" stroke-miterlimit="10"/></g><g transform="translate(-62,-122) scale(1,1)"><rect fill="#ffffff" stroke="none" x="445" y="146" width="68.99169921875" height="25"/></g><g transform="translate(-62,-122) scale(1,1)"><path fill="none" stroke="#000000" d="M 445 146 L 513.99169921875 146 L 513.99169921875 171 L 445 171 L 445 146 Z Z" stroke-miterlimit="10"/></g><g transform="translate(-62,-122) scale(1,1)"><g><path fill="none" stroke="none"/><text fill="#000000" stroke="none" font-family="Arial" font-size="13px" font-style="normal" font-weight="bold" text-decoration="none" x="455.660400390625" y="165">Domain</text></g></g><g transform="translate(-62,-122) scale(1,1)"><rect fill="#C0C0C0" stroke="none" x="247" y="139" width="56.49374999999998" height="15" opacity="0.2"/></g><g transform="translate(-62,-122) scale(1,1)"><rect fill="#C0C0C0" stroke="none" x="247" y="153" width="141.234375" height="25" opacity="0.2"/></g><g transform="translate(-62,-122) scale(1,1)"><rect fill="#ffffff" stroke="none" x="240" y="147" width="141.234375" height="24"/></g><g transform="translate(-62,-122) scale(1,1)"><path fill="none" stroke="#000000" d="M 240 147 L 381.234375 147 L 381.234375 171 L 240 171 L 240 147 Z Z" stroke-miterlimit="10"/></g><g transform="translate(-62,-122) scale(1,1)"><rect fill="#ffffff" stroke="none" x="240" y="132" width="56.49374999999998" height="15"/></g><g transform="translate(-62,-122) scale(1,1)"><path fill="none" stroke="#000000" d="M 240 132 L 296.49375 132 L 296.49375 147 L 240 147 L 240 132 Z Z" stroke-miterlimit="10"/></g><g transform="translate(-62,-122) scale(1,1)"><rect fill="#ffffff" stroke="none" x="240" y="146" width="141.234375" height="25"/></g><g transform="translate(-62,-122) scale(1,1)"><path fill="none" stroke="#000000" d="M 240 146 L 381.234375 146 L 381.234375 171 L 240 171 L 240 146 Z Z" stroke-miterlimit="10"/></g><g transform="translate(-62,-122) scale(1,1)"><g><path fill="none" stroke="none"/><text fill="#000000" stroke="none" font-family="Arial" font-size="13px" font-style="normal" font-weight="bold" text-decoration="none" x="296.528564453125" y="165">Data</text></g></g><g transform="translate(-62,-122) scale(1,1)"><rect fill="#C0C0C0" stroke="none" x="79" y="139" width="42.909765625000006" height="15" opacity="0.2"/></g><g transform="translate(-62,-122) scale(1,1)"><rect fill="#C0C0C0" stroke="none" x="79" y="153" width="107.2744140625" height="25" opacity="0.2"/></g><g transform="translate(-62,-122) scale(1,1)"><rect fill="#ffffff" stroke="none" x="72" y="147" width="107.2744140625" height="24"/></g><g transform="translate(-62,-122) scale(1,1)"><path fill="none" stroke="#000000" d="M 72 147 L 179.2744140625 147 L 179.2744140625 171 L 72 171 L 72 147 Z Z" stroke-miterlimit="10"/></g><g transform="translate(-62,-122) scale(1,1)"><rect fill="#ffffff" stroke="none" x="72" y="132" width="42.909765625000006" height="15"/></g><g transform="translate(-62,-122) scale(1,1)"><path fill="none" stroke="#000000" d="M 72 132 L 114.909765625 132 L 114.909765625 147 L 72 147 L 72 132 Z Z" stroke-miterlimit="10"/></g><g transform="translate(-62,-122) scale(1,1)"><rect fill="#ffffff" stroke="none" x="72" y="146" width="107.2744140625" height="25"/></g><g transform="translate(-62,-122) scale(1,1)"><path fill="none" stroke="#000000" d="M 72 146 L 179.2744140625 146 L 179.2744140625 171 L 72 171 L 72 146 Z Z" stroke-miterlimit="10"/></g><g transform="translate(-62,-122) scale(1,1)"><g><path fill="none" stroke="none"/><text fill="#000000" stroke="none" font-family="Arial" font-size="13px" font-style="normal" font-weight="bold" text-decoration="none" x="86.265869140625" y="165">Presentation</text></g></g><g transform="translate(-62,-122) scale(1,1)"><path fill="none" stroke="#000000" d="M 515 151 L 574 151" stroke-miterlimit="10" stroke-dasharray="3"/></g><g transform="translate(-62,-122) scale(1,1)"><path fill="none" stroke="#000000" d="M 563.8373251423759 155.209517756016 L 574 151 L 563.8373251423758 146.790482243984" stroke-miterlimit="10"/></g><g transform="translate(-62,-122) scale(1,1)"><path fill="none" stroke="#000000" d="M 382 151 L 444 151" stroke-miterlimit="10" stroke-dasharray="3"/></g><g transform="translate(-62,-122) scale(1,1)"><path fill="none" stroke="#000000" d="M 433.83732514237585 155.209517756016 L 444 151 L 433.83732514237585 146.790482243984" stroke-miterlimit="10"/></g><g transform="translate(-62,-122) scale(1,1)"><path fill="none" stroke="#000000" d="M 180 151 L 239 151" stroke-miterlimit="10" stroke-dasharray="3"/></g><g transform="translate(-62,-122) scale(1,1)"><path fill="none" stroke="#000000" d="M 228.83732514237585 155.209517756016 L 239 151 L 228.83732514237585 146.790482243984" stroke-miterlimit="10"/></g><g transform="translate(-62,-122) scale(1,1)"><rect fill="#ffffff" stroke="none" x="240" y="171" width="141.234375" height="54"/></g><g transform="translate(-62,-122) scale(1,1)"><path fill="none" stroke="#000000" d="M 240 171 L 381.234375 171 L 381.234375 225 L 240 225 L 240 171 Z Z" stroke-miterlimit="10"/></g><g transform="translate(-62,-122) scale(1,1)"><g><path fill="none" stroke="none"/><text fill="#000000" stroke="none" font-family="Arial" font-size="13px" font-style="normal" font-weight="normal" text-decoration="none" x="245" y="186">RefinePricePropsStore</text></g></g><g transform="translate(-62,-122) scale(1,1)"><g><path fill="none" stroke="none"/><text fill="#000000" stroke="none" font-family="Arial" font-size="13px" font-style="normal" font-weight="normal" text-decoration="none" x="245" y="201">RefineStatsPropsStore</text></g></g><g transform="translate(-62,-122) scale(1,1)"><g><path fill="none" stroke="none"/><text fill="#000000" stroke="none" font-family="Arial" font-size="13px" font-style="normal" font-weight="normal" text-decoration="none" x="245" y="216">RefineUserPropsStore</text></g></g><g transform="translate(-62,-122) scale(1,1)"><rect fill="#ffffff" stroke="none" x="72" y="171" width="107.2744140625" height="114"/></g><g transform="translate(-62,-122) scale(1,1)"><path fill="none" stroke="#000000" d="M 72 171 L 179.2744140625 171 L 179.2744140625 285 L 72 285 L 72 171 Z Z" stroke-miterlimit="10"/></g><g transform="translate(-62,-122) scale(1,1)"><g><path fill="none" stroke="none"/><text fill="#000000" stroke="none" font-family="Arial" font-size="13px" font-style="normal" font-weight="normal" text-decoration="none" x="77" y="186">EquipmentInfo</text></g></g><g transform="translate(-62,-122) scale(1,1)"><g><path fill="none" stroke="none"/><text fill="#000000" stroke="none" font-family="Arial" font-size="13px" font-style="normal" font-weight="normal" text-decoration="none" x="77" y="201">MaterialInfo</text></g></g><g transform="translate(-62,-122) scale(1,1)"><g><path fill="none" stroke="none"/><text fill="#000000" stroke="none" font-family="Arial" font-size="13px" font-style="normal" font-weight="normal" text-decoration="none" x="77" y="216">RefineInfo</text></g></g><g transform="translate(-62,-122) scale(1,1)"><g><path fill="none" stroke="none"/><text fill="#000000" stroke="none" font-family="Arial" font-size="13px" font-style="normal" font-weight="normal" text-decoration="none" x="77" y="231">RefineProcess</text></g></g><g transform="translate(-62,-122) scale(1,1)"><g><path fill="none" stroke="none"/><text fill="#000000" stroke="none" font-family="Arial" font-size="13px" font-style="normal" font-weight="normal" text-decoration="none" x="77" y="246">RefineRange</text></g></g><g transform="translate(-62,-122) scale(1,1)"><g><path fill="none" stroke="none"/><text fill="#000000" stroke="none" font-family="Arial" font-size="13px" font-style="normal" font-weight="normal" text-decoration="none" x="77" y="261">RefineSimulation</text></g></g><g transform="translate(-62,-122) scale(1,1)"><g><path fill="none" stroke="none"/><text fill="#000000" stroke="none" font-family="Arial" font-size="13px" font-style="normal" font-weight="normal" text-decoration="none" x="77" y="276">RefineStats</text></g></g><g transform="translate(-62,-122) scale(1,1)"><rect fill="#ffffff" stroke="none" x="575" y="171" width="75.47900390625" height="69"/></g><g transform="translate(-62,-122) scale(1,1)"><path fill="none" stroke="#000000" d="M 575 171 L 650.47900390625 171 L 650.47900390625 240 L 575 240 L 575 171 Z Z" stroke-miterlimit="10"/></g><g transform="translate(-62,-122) scale(1,1)"><g><path fill="none" stroke="none"/><text fill="#000000" stroke="none" font-family="Arial" font-size="13px" font-style="normal" font-weight="normal" text-decoration="none" x="580" y="186">Core</text></g></g><g transform="translate(-62,-122) scale(1,1)"><g><path fill="none" stroke="none"/><text fill="#000000" stroke="none" font-family="Arial" font-size="13px" font-style="normal" font-weight="normal" text-decoration="none" x="580" y="201">Refinement</text></g></g><g transform="translate(-62,-122) scale(1,1)"><g><path fill="none" stroke="none"/><text fill="#000000" stroke="none" font-family="Arial" font-size="13px" font-style="normal" font-weight="normal" text-decoration="none" x="580" y="216">Simulator</text></g></g><g transform="translate(-62,-122) scale(1,1)"><g><path fill="none" stroke="none"/><text fill="#000000" stroke="none" font-family="Arial" font-size="13px" font-style="normal" font-weight="normal" text-decoration="none" x="580" y="231">Table</text></g></g><g transform="translate(-62,-122) scale(1,1)"><rect fill="#ffffff" stroke="none" x="445" y="171" width="68.99169921875" height="24"/></g><g transform="translate(-62,-122) scale(1,1)"><path fill="none" stroke="#000000" d="M 445 171 L 513.99169921875 171 L 513.99169921875 195 L 445 195 L 445 171 Z Z" stroke-miterlimit="10"/></g><g transform="translate(-62,-122) scale(1,1)"><g><path fill="none" stroke="none"/><text fill="#000000" stroke="none" font-family="Arial" font-size="13px" font-style="normal" font-weight="normal" text-decoration="none" x="450" y="186">API</text></g></g></g></svg>