<svg version="1.1" xmlns="http://www.w3.org/2000/svg" xmlns:xlink="http://www.w3.org/1999/xlink" width="611.20703125" height="355"><defs/><g><text fill="#eeeeee" stroke="none" font-family="Arial" font-size="24px" font-style="normal" font-weight="normal" text-decoration="none" x="0" y="0"></text><text fill="#eeeeee" stroke="none" font-family="Arial" font-size="24px" font-style="normal" font-weight="normal" text-decoration="none" x="0" y="30"></text><text fill="#eeeeee" stroke="none" font-family="Arial" font-size="24px" font-style="normal" font-weight="normal" text-decoration="none" x="0" y="60"></text><text fill="#eeeeee" stroke="none" font-family="Arial" font-size="24px" font-style="normal" font-weight="normal" text-decoration="none" x="0" y="90"></text><text fill="#eeeeee" stroke="none" font-family="Arial" font-size="24px" font-style="normal" font-weight="normal" text-decoration="none" x="0" y="120"></text><text fill="#eeeeee" stroke="none" font-family="Arial" font-size="24px" font-style="normal" font-weight="normal" text-decoration="none" x="0" y="150"></text><text fill="#eeeeee" stroke="none" font-family="Arial" font-size="24px" font-style="normal" font-weight="normal" text-decoration="none" x="0" y="180"></text><text fill="#eeeeee" stroke="none" font-family="Arial" font-size="24px" font-style="normal" font-weight="normal" text-decoration="none" x="0" y="210"></text><text fill="#eeeeee" stroke="none" font-family="Arial" font-size="24px" font-style="normal" font-weight="normal" text-decoration="none" x="0" y="240"></text><text fill="#eeeeee" stroke="none" font-family="Arial" font-size="24px" font-style="normal" font-weight="normal" text-decoration="none" x="0" y="270"></text><text fill="#eeeeee" stroke="none" font-family="Arial" font-size="24px" font-style="normal" font-weight="normal" text-decoration="none" x="0" y="300"></text><text fill="#eeeeee" stroke="none" font-family="Arial" font-size="24px" font-style="normal" font-weight="normal" text-decoration="none" x="0" y="330"></text><text fill="#eeeeee" stroke="none" font-family="Arial" font-size="24px" font-style="normal" font-weight="normal" text-decoration="none" x="200" y="0"></text><text fill="#eeeeee" stroke="none" font-family="Arial" font-size="24px" font-style="normal" font-weight="normal" text-decoration="none" x="200" y="30"></text><text fill="#eeeeee" stroke="none" font-family="Arial" font-size="24px" font-style="normal" font-weight="normal" text-decoration="none" x="200" y="60"></text><text fill="#eeeeee" stroke="none" font-family="Arial" font-size="24px" font-style="normal" font-weight="normal" text-decoration="none" x="200" y="90"></text><text fill="#eeeeee" stroke="none" font-family="Arial" font-size="24px" font-style="normal" font-weight="normal" text-decoration="none" x="200" y="120"></text><text fill="#eeeeee" stroke="none" font-family="Arial" font-size="24px" font-style="normal" font-weight="normal" text-decoration="none" x="200" y="150"></text><text fill="#eeeeee" stroke="none" font-family="Arial" font-size="24px" font-style="normal" font-weight="normal" text-decoration="none" x="200" y="180"></text><text fill="#eeeeee" stroke="none" font-family="Arial" font-size="24px" font-style="normal" font-weight="normal" text-decoration="none" x="200" y="210"></text><text fill="#eeeeee" stroke="none" font-family="Arial" font-size="24px" font-style="normal" font-weight="normal" text-decoration="none" x="200" y="240"></text><text fill="#eeeeee" stroke="none" font-family="Arial" font-size="24px" font-style="normal" font-weight="normal" text-decoration="none" x="200" y="270"></text><text fill="#eeeeee" stroke="none" font-family="Arial" font-size="24px" font-style="normal" font-weight="normal" text-decoration="none" x="200" y="300"></text><text fill="#eeeeee" stroke="none" font-family="Arial" font-size="24px" font-style="normal" font-weight="normal" text-decoration="none" x="200" y="330"></text><text fill="#eeeeee" stroke="none" font-family="Arial" font-size="24px" font-style="normal" font-weight="normal" text-decoration="none" x="400" y="0"></text><text fill="#eeeeee" stroke="none" font-family="Arial" font-size="24px" font-style="normal" font-weight="normal" text-decoration="none" x="400" y="30"></text><text fill="#eeeeee" stroke="none" font-family="Arial" font-size="24px" font-style="normal" font-weight="normal" text-decoration="none" x="400" y="60"></text><text fill="#eeeeee" stroke="none" font-family="Arial" font-size="24px" font-style="normal" font-weight="normal" text-decoration="none" x="400" y="90"></text><text fill="#eeeeee" stroke="none" font-family="Arial" font-size="24px" font-style="normal" font-weight="normal" text-decoration="none" x="400" y="120"></text><text fill="#eeeeee" stroke="none" font-family="Arial" font-size="24px" font-style="normal" font-weight="normal" text-decoration="none" x="400" y="150"></text><text fill="#eeeeee" stroke="none" font-family="Arial" font-size="24px" font-style="normal" font-weight="normal" text-decoration="none" x="400" y="180"></text><text fill="#eeeeee" stroke="none" font-family="Arial" font-size="24px" font-style="normal" font-weight="normal" text-decoration="none" x="400" y="210"></text><text fill="#eeeeee" stroke="none" font-family="Arial" font-size="24px" font-style="normal" font-weight="normal" text-decoration="none" x="400" y="240"></text><text fill="#eeeeee" stroke="none" font-family="Arial" font-size="24px" font-style="normal" font-weight="normal" text-decoration="none" x="400" y="270"></text><text fill="#eeeeee" stroke="none" font-family="Arial" font-size="24px" font-style="normal" font-weight="normal" text-decoration="none" x="400" y="300"></text><text fill="#eeeeee" stroke="none" font-family="Arial" font-size="24px" font-style="normal" font-weight="normal" text-decoration="none" x="400" y="330"></text><text fill="#eeeeee" stroke="none" font-family="Arial" font-size="24px" font-style="normal" font-weight="normal" text-decoration="none" x="600" y="0"></text><text fill="#eeeeee" stroke="none" font-family="Arial" font-size="24px" font-style="normal" font-weight="normal" text-decoration="none" x="600" y="30"></text><text fill="#eeeeee" stroke="none" font-family="Arial" font-size="24px" font-style="normal" font-weight="normal" text-decoration="none" x="600" y="60"></text><text fill="#eeeeee" stroke="none" font-family="Arial" font-size="24px" font-style="normal" font-weight="normal" text-decoration="none" x="600" y="90"></text><text fill="#eeeeee" stroke="none" font-family="Arial" font-size="24px" font-style="normal" font-weight="normal" text-decoration="none" x="600" y="120"></text><text fill="#eeeeee" stroke="none" font-family="Arial" font-size="24px" font-style="normal" font-weight="normal" text-decoration="none" x="600" y="150"></text><text fill="#eeeeee" stroke="none" font-family="Arial" font-size="24px" font-style="normal" font-weight="normal" text-decoration="none" x="600" y="180"></text><text fill="#eeeeee" stroke="none" font-family="Arial" font-size="24px" font-style="normal" font-weight="normal" text-decoration="none" x="600" y="210"></text><text fill="#eeeeee" stroke="none" font-family="Arial" font-size="24px" font-style="normal" font-weight="normal" text-decoration="none" x="600" y="240"></text><text fill="#eeeeee" stroke="none" font-family="Arial" font-size="24px" font-style="normal" font-weight="normal" text-decoration="none" x="600" y="270"></text><text fill="#eeeeee" stroke="none" font-family="Arial" font-size="24px" font-style="normal" font-weight="normal" text-decoration="none" x="600" y="300"></text><text fill="#eeeeee" stroke="none" font-family="Arial" font-size="24px" font-style="normal" font-weight="normal" text-decoration="none" x="600" y="330"></text><g transform="translate(-134,-126) scale(1,1)"><rect fill="#C0C0C0" stroke="none" x="199" y="263" width="518.0185546875" height="107" opacity="0.2"/></g><g transform="translate(-134,-126) scale(1,1)"><rect fill="#ffffff" stroke="none" x="192" y="256" width="518.0185546875" height="107"/></g><g transform="translate(-134,-126) scale(1,1)"><path fill="none" stroke="#000000" d="M 192 256 L 710.0185546875 256 L 710.0185546875 363 L 192 363 L 192 256 Z Z" stroke-miterlimit="10"/></g><g transform="translate(-134,-126) scale(1,1)"><path fill="none" stroke="#000000" d="M 192 281 L 710.0185546875 281" stroke-miterlimit="10"/></g><g transform="translate(-134,-126) scale(1,1)"><g><path fill="none" stroke="none"/><text fill="#000000" stroke="none" font-family="Arial" font-size="13px" font-style="normal" font-weight="bold" text-decoration="none" x="440.173828125" y="274">API</text></g></g><g transform="translate(-134,-126) scale(1,1)"><g><path fill="none" stroke="none"/><text fill="#000000" stroke="none" font-family="Arial" font-size="13px" font-style="normal" font-weight="normal" text-decoration="none" x="197" y="297">+queryRefineMaterial(props: RefineMaterialQueryProps)</text></g></g><g transform="translate(-134,-126) scale(1,1)"><g><path fill="none" stroke="none"/><text fill="#000000" stroke="none" font-family="Arial" font-size="13px" font-style="normal" font-weight="normal" text-decoration="none" x="197" y="312">+queryRefineMaterialDistinct(props: RefineMaterialQueryProps)</text></g></g><g transform="translate(-134,-126) scale(1,1)"><g><path fill="none" stroke="none"/><text fill="#000000" stroke="none" font-family="Arial" font-size="13px" font-style="normal" font-weight="normal" text-decoration="none" x="197" y="327">+queryRefineMaterialByChineseName(name: string)</text></g></g><g transform="translate(-134,-126) scale(1,1)"><g><path fill="none" stroke="none"/><text fill="#000000" stroke="none" font-family="Arial" font-size="13px" font-style="normal" font-weight="normal" text-decoration="none" x="197" y="342">+queryRefineProbability(props: RefineProbabilityQueryProps)</text></g></g><g transform="translate(-134,-126) scale(1,1)"><g><path fill="none" stroke="none"/><text fill="#000000" stroke="none" font-family="Arial" font-size="13px" font-style="normal" font-weight="normal" text-decoration="none" x="197" y="357">+calculateStats(refineUserProps: RefineUserProps, refinePriceProps: RefinePriceProps)</text></g></g><g transform="translate(-134,-126) scale(1,1)"><rect fill="#C0C0C0" stroke="none" x="519" y="143" width="177.09228515625" height="39" opacity="0.2"/></g><g transform="translate(-134,-126) scale(1,1)"><rect fill="#ffffff" stroke="none" x="512" y="136" width="177.09228515625" height="39"/></g><g transform="translate(-134,-126) scale(1,1)"><path fill="none" stroke="#000000" d="M 512 136 L 689.09228515625 136 L 689.09228515625 175 L 512 175 L 512 136 Z Z" stroke-miterlimit="10"/></g><g transform="translate(-134,-126) scale(1,1)"><g><path fill="none" stroke="none"/><text fill="#000000" stroke="none" font-family="Arial" font-size="13px" font-style="normal" font-weight="bold" text-decoration="none" x="516.5" y="154">RefineMaterialTableQuerier</text></g></g><g transform="translate(-134,-126) scale(1,1)"><g><path fill="none" stroke="none"/><text fill="#000000" stroke="none" font-family="Arial" font-size="13px" font-style="normal" font-weight="normal" text-decoration="none" x="541.66845703125" y="169">(from Domain.Table)</text></g></g><g transform="translate(-134,-126) scale(1,1)"><rect fill="#C0C0C0" stroke="none" x="183" y="143" width="195.138671875" height="39" opacity="0.2"/></g><g transform="translate(-134,-126) scale(1,1)"><rect fill="#ffffff" stroke="none" x="176" y="136" width="195.138671875" height="39"/></g><g transform="translate(-134,-126) scale(1,1)"><path fill="none" stroke="#000000" d="M 176 136 L 371.138671875 136 L 371.138671875 175 L 176 175 L 176 136 Z Z" stroke-miterlimit="10"/></g><g transform="translate(-134,-126) scale(1,1)"><g><path fill="none" stroke="none"/><text fill="#000000" stroke="none" font-family="Arial" font-size="13px" font-style="normal" font-weight="bold" text-decoration="none" x="180.5" y="154">RefineProbabilityTableQuerier</text></g></g><g transform="translate(-134,-126) scale(1,1)"><g><path fill="none" stroke="none"/><text fill="#000000" stroke="none" font-family="Arial" font-size="13px" font-style="normal" font-weight="normal" text-decoration="none" x="214.691650390625" y="169">(from Domain.Table)</text></g></g><g transform="translate(-134,-126) scale(1,1)"><rect fill="#C0C0C0" stroke="none" x="151" y="439" width="218.50439453125" height="39" opacity="0.2"/></g><g transform="translate(-134,-126) scale(1,1)"><rect fill="#ffffff" stroke="none" x="144" y="432" width="218.50439453125" height="39"/></g><g transform="translate(-134,-126) scale(1,1)"><path fill="none" stroke="#000000" d="M 144 432 L 362.50439453125 432 L 362.50439453125 471 L 144 471 L 144 432 Z Z" stroke-miterlimit="10"/></g><g transform="translate(-134,-126) scale(1,1)"><g><path fill="none" stroke="none"/><text fill="#000000" stroke="none" font-family="Arial" font-size="13px" font-style="normal" font-weight="bold" text-decoration="none" x="218.93359375" y="450">RefineUser</text></g></g><g transform="translate(-134,-126) scale(1,1)"><g><path fill="none" stroke="none"/><text fill="#000000" stroke="none" font-family="Arial" font-size="13px" font-style="normal" font-weight="normal" text-decoration="none" x="148.5" y="465">(from Domain.Simulator.RefineUser)</text></g></g><g transform="translate(-134,-126) scale(1,1)"><rect fill="#C0C0C0" stroke="none" x="463" y="439" width="279.20703125" height="39" opacity="0.2"/></g><g transform="translate(-134,-126) scale(1,1)"><rect fill="#ffffff" stroke="none" x="456" y="432" width="279.20703125" height="39"/></g><g transform="translate(-134,-126) scale(1,1)"><path fill="none" stroke="#000000" d="M 456 432 L 735.20703125 432 L 735.20703125 471 L 456 471 L 456 432 Z Z" stroke-miterlimit="10"/></g><g transform="translate(-134,-126) scale(1,1)"><g><path fill="none" stroke="none"/><text fill="#000000" stroke="none" font-family="Arial" font-size="13px" font-style="normal" font-weight="bold" text-decoration="none" x="528.05810546875" y="450">RefineStatsCalculator</text></g></g><g transform="translate(-134,-126) scale(1,1)"><g><path fill="none" stroke="none"/><text fill="#000000" stroke="none" font-family="Arial" font-size="13px" font-style="normal" font-weight="normal" text-decoration="none" x="460.5" y="465">(from Domain.Simulator.RefineStatsCalculator)</text></g></g><g transform="translate(-134,-126) scale(1,1)"><path fill="none" stroke="#000000" d="M 256 363 L 256 432" stroke-miterlimit="10"/></g><g transform="translate(-134,-126) scale(1,1)"><path fill="none" stroke="#000000" d="M 251.790482243984 421.83732514237585 L 256 432 L 260.209517756016 421.83732514237585" stroke-miterlimit="10"/></g><g transform="translate(-134,-126) scale(1,1)"><path fill="none" stroke="#000000" d="M 600 363 L 600 432" stroke-miterlimit="10"/></g><g transform="translate(-134,-126) scale(1,1)"><path fill="none" stroke="#000000" d="M 595.790482243984 421.83732514237585 L 600 432 L 604.209517756016 421.83732514237585" stroke-miterlimit="10"/></g><g transform="translate(-134,-126) scale(1,1)"><path fill="none" stroke="#000000" d="M 272 256 L 272 175" stroke-miterlimit="10"/></g><g transform="translate(-134,-126) scale(1,1)"><path fill="none" stroke="#000000" d="M 276.209517756016 185.16267485762415 L 272 175 L 267.790482243984 185.16267485762415" stroke-miterlimit="10"/></g><g transform="translate(-134,-126) scale(1,1)"><path fill="none" stroke="#000000" d="M 600 256 L 600 175" stroke-miterlimit="10"/></g><g transform="translate(-134,-126) scale(1,1)"><path fill="none" stroke="#000000" d="M 604.209517756016 185.16267485762415 L 600 175 L 595.790482243984 185.16267485762415" stroke-miterlimit="10"/></g></g></svg>