<svg version="1.1" xmlns="http://www.w3.org/2000/svg" xmlns:xlink="http://www.w3.org/1999/xlink" width="466.62451171875" height="228"><defs/><g><text fill="#eeeeee" stroke="none" font-family="Arial" font-size="24px" font-style="normal" font-weight="normal" text-decoration="none" x="0" y="0"></text><text fill="#eeeeee" stroke="none" font-family="Arial" font-size="24px" font-style="normal" font-weight="normal" text-decoration="none" x="0" y="30"></text><text fill="#eeeeee" stroke="none" font-family="Arial" font-size="24px" font-style="normal" font-weight="normal" text-decoration="none" x="0" y="60"></text><text fill="#eeeeee" stroke="none" font-family="Arial" font-size="24px" font-style="normal" font-weight="normal" text-decoration="none" x="0" y="90"></text><text fill="#eeeeee" stroke="none" font-family="Arial" font-size="24px" font-style="normal" font-weight="normal" text-decoration="none" x="0" y="120"></text><text fill="#eeeeee" stroke="none" font-family="Arial" font-size="24px" font-style="normal" font-weight="normal" text-decoration="none" x="0" y="150"></text><text fill="#eeeeee" stroke="none" font-family="Arial" font-size="24px" font-style="normal" font-weight="normal" text-decoration="none" x="0" y="180"></text><text fill="#eeeeee" stroke="none" font-family="Arial" font-size="24px" font-style="normal" font-weight="normal" text-decoration="none" x="0" y="210"></text><text fill="#eeeeee" stroke="none" font-family="Arial" font-size="24px" font-style="normal" font-weight="normal" text-decoration="none" x="200" y="0"></text><text fill="#eeeeee" stroke="none" font-family="Arial" font-size="24px" font-style="normal" font-weight="normal" text-decoration="none" x="200" y="30"></text><text fill="#eeeeee" stroke="none" font-family="Arial" font-size="24px" font-style="normal" font-weight="normal" text-decoration="none" x="200" y="60"></text><text fill="#eeeeee" stroke="none" font-family="Arial" font-size="24px" font-style="normal" font-weight="normal" text-decoration="none" x="200" y="90"></text><text fill="#eeeeee" stroke="none" font-family="Arial" font-size="24px" font-style="normal" font-weight="normal" text-decoration="none" x="200" y="120"></text><text fill="#eeeeee" stroke="none" font-family="Arial" font-size="24px" font-style="normal" font-weight="normal" text-decoration="none" x="200" y="150"></text><text fill="#eeeeee" stroke="none" font-family="Arial" font-size="24px" font-style="normal" font-weight="normal" text-decoration="none" x="200" y="180"></text><text fill="#eeeeee" stroke="none" font-family="Arial" font-size="24px" font-style="normal" font-weight="normal" text-decoration="none" x="200" y="210"></text><text fill="#eeeeee" stroke="none" font-family="Arial" font-size="24px" font-style="normal" font-weight="normal" text-decoration="none" x="400" y="0"></text><text fill="#eeeeee" stroke="none" font-family="Arial" font-size="24px" font-style="normal" font-weight="normal" text-decoration="none" x="400" y="30"></text><text fill="#eeeeee" stroke="none" font-family="Arial" font-size="24px" font-style="normal" font-weight="normal" text-decoration="none" x="400" y="60"></text><text fill="#eeeeee" stroke="none" font-family="Arial" font-size="24px" font-style="normal" font-weight="normal" text-decoration="none" x="400" y="90"></text><text fill="#eeeeee" stroke="none" font-family="Arial" font-size="24px" font-style="normal" font-weight="normal" text-decoration="none" x="400" y="120"></text><text fill="#eeeeee" stroke="none" font-family="Arial" font-size="24px" font-style="normal" font-weight="normal" text-decoration="none" x="400" y="150"></text><text fill="#eeeeee" stroke="none" font-family="Arial" font-size="24px" font-style="normal" font-weight="normal" text-decoration="none" x="400" y="180"></text><text fill="#eeeeee" stroke="none" font-family="Arial" font-size="24px" font-style="normal" font-weight="normal" text-decoration="none" x="400" y="210"></text><g transform="translate(-70,-38) scale(1,1)"><rect fill="#C0C0C0" stroke="none" x="246" y="55" width="145.5380859375" height="52" opacity="0.2"/></g><g transform="translate(-70,-38) scale(1,1)"><rect fill="#ffffff" stroke="none" x="239" y="48" width="145.5380859375" height="52"/></g><g transform="translate(-70,-38) scale(1,1)"><path fill="none" stroke="#000000" d="M 239 48 L 384.5380859375 48 L 384.5380859375 100 L 239 100 L 239 48 Z Z" stroke-miterlimit="10"/></g><g transform="translate(-70,-38) scale(1,1)"><g><path fill="none" stroke="none"/><text fill="#000000" stroke="none" font-family="Arial" font-size="13px" font-style="normal" font-weight="normal" text-decoration="none" x="279.608642578125" y="64">«interface»</text></g></g><g transform="translate(-70,-38) scale(1,1)"><g><path fill="none" stroke="none"/><text fill="#000000" stroke="none" font-family="Arial" font-size="13px" font-style="normal" font-weight="bold" text-decoration="none" x="267.33544921875" y="79">FailurePenalty</text></g></g><g transform="translate(-70,-38) scale(1,1)"><g><path fill="none" stroke="none"/><text fill="#000000" stroke="none" font-family="Arial" font-size="13px" font-style="normal" font-weight="normal" text-decoration="none" x="243.5" y="94">(from Core.Refinement)</text></g></g><g transform="translate(-70,-38) scale(1,1)"><rect fill="#C0C0C0" stroke="none" x="430" y="239" width="103.62451171875" height="24" opacity="0.2"/></g><g transform="translate(-70,-38) scale(1,1)"><rect fill="#ffffff" stroke="none" x="423" y="232" width="103.62451171875" height="24"/></g><g transform="translate(-70,-38) scale(1,1)"><path fill="none" stroke="#000000" d="M 423 232 L 526.62451171875 232 L 526.62451171875 256 L 423 256 L 423 232 Z Z" stroke-miterlimit="10"/></g><g transform="translate(-70,-38) scale(1,1)"><g><path fill="none" stroke="none"/><text fill="#000000" stroke="none" font-family="Arial" font-size="13px" font-style="normal" font-weight="bold" text-decoration="none" x="427.5" y="250">EquipmentSafe</text></g></g><g transform="translate(-70,-38) scale(1,1)"><rect fill="#C0C0C0" stroke="none" x="270" y="239" width="99.30810546875" height="24" opacity="0.2"/></g><g transform="translate(-70,-38) scale(1,1)"><rect fill="#ffffff" stroke="none" x="263" y="232" width="99.30810546875" height="24"/></g><g transform="translate(-70,-38) scale(1,1)"><path fill="none" stroke="#000000" d="M 263 232 L 362.30810546875 232 L 362.30810546875 256 L 263 256 L 263 232 Z Z" stroke-miterlimit="10"/></g><g transform="translate(-70,-38) scale(1,1)"><g><path fill="none" stroke="none"/><text fill="#000000" stroke="none" font-family="Arial" font-size="13px" font-style="normal" font-weight="bold" text-decoration="none" x="267.5" y="250">ItemDestroyed</text></g></g><g transform="translate(-70,-38) scale(1,1)"><rect fill="#C0C0C0" stroke="none" x="87" y="239" width="114.498046875" height="24" opacity="0.2"/></g><g transform="translate(-70,-38) scale(1,1)"><rect fill="#ffffff" stroke="none" x="80" y="232" width="114.498046875" height="24"/></g><g transform="translate(-70,-38) scale(1,1)"><path fill="none" stroke="#000000" d="M 80 232 L 194.498046875 232 L 194.498046875 256 L 80 256 L 80 232 Z Z" stroke-miterlimit="10"/></g><g transform="translate(-70,-38) scale(1,1)"><g><path fill="none" stroke="none"/><text fill="#000000" stroke="none" font-family="Arial" font-size="13px" font-style="normal" font-weight="bold" text-decoration="none" x="84.5" y="250">RefineDecreased</text></g></g><g transform="translate(-70,-38) scale(1,1)"><path fill="none" stroke="#000000" d="M 150 231 L 283 101" stroke-miterlimit="10" stroke-dasharray="3"/></g><g transform="translate(-70,-38) scale(1,1)"><path fill="#FFFFFF" stroke="none" d="M 274.34967914702554 121.22799913833782 L 283 101 L 262.57994410486805 109.18665482597669"/></g><g transform="translate(-70,-38) scale(1,1)"><path fill="none" stroke="#000000" d="M 274.34967914702554 121.22799913833782 L 283 101 L 262.57994410486805 109.18665482597669 L 274.34967914702554 121.22799913833782" stroke-miterlimit="10"/></g><g transform="translate(-70,-38) scale(1,1)"><path fill="none" stroke="#000000" d="M 312 231 L 311 101" stroke-miterlimit="10" stroke-dasharray="3"/></g><g transform="translate(-70,-38) scale(1,1)"><path fill="#FFFFFF" stroke="none" d="M 319.57513065765784 121.25998850454009 L 311 101 L 302.73755777926874 121.38950829591232"/></g><g transform="translate(-70,-38) scale(1,1)"><path fill="none" stroke="#000000" d="M 319.57513065765784 121.25998850454009 L 311 101 L 302.73755777926874 121.38950829591232 L 319.57513065765784 121.25998850454009" stroke-miterlimit="10"/></g><g transform="translate(-70,-38) scale(1,1)"><path fill="none" stroke="#000000" d="M 462 231 L 337 101" stroke-miterlimit="10" stroke-dasharray="3"/></g><g transform="translate(-70,-38) scale(1,1)"><path fill="#FFFFFF" stroke="none" d="M 357.1563962201599 109.81587723462184 L 337 101 L 345.01895787684873 121.48649102626717"/></g><g transform="translate(-70,-38) scale(1,1)"><path fill="none" stroke="#000000" d="M 357.1563962201599 109.81587723462184 L 337 101 L 345.01895787684873 121.48649102626717 L 357.1563962201599 109.81587723462184" stroke-miterlimit="10"/></g></g></svg>