<svg version="1.1" xmlns="http://www.w3.org/2000/svg" xmlns:xlink="http://www.w3.org/1999/xlink" width="845.76171875" height="617"><defs/><g><text fill="#eeeeee" stroke="none" font-family="Arial" font-size="24px" font-style="normal" font-weight="normal" text-decoration="none" x="0" y="0"></text><text fill="#eeeeee" stroke="none" font-family="Arial" font-size="24px" font-style="normal" font-weight="normal" text-decoration="none" x="0" y="30"></text><text fill="#eeeeee" stroke="none" font-family="Arial" font-size="24px" font-style="normal" font-weight="normal" text-decoration="none" x="0" y="60"></text><text fill="#eeeeee" stroke="none" font-family="Arial" font-size="24px" font-style="normal" font-weight="normal" text-decoration="none" x="0" y="90"></text><text fill="#eeeeee" stroke="none" font-family="Arial" font-size="24px" font-style="normal" font-weight="normal" text-decoration="none" x="0" y="120"></text><text fill="#eeeeee" stroke="none" font-family="Arial" font-size="24px" font-style="normal" font-weight="normal" text-decoration="none" x="0" y="150"></text><text fill="#eeeeee" stroke="none" font-family="Arial" font-size="24px" font-style="normal" font-weight="normal" text-decoration="none" x="0" y="180"></text><text fill="#eeeeee" stroke="none" font-family="Arial" font-size="24px" font-style="normal" font-weight="normal" text-decoration="none" x="0" y="210"></text><text fill="#eeeeee" stroke="none" font-family="Arial" font-size="24px" font-style="normal" font-weight="normal" text-decoration="none" x="0" y="240"></text><text fill="#eeeeee" stroke="none" font-family="Arial" font-size="24px" font-style="normal" font-weight="normal" text-decoration="none" x="0" y="270"></text><text fill="#eeeeee" stroke="none" font-family="Arial" font-size="24px" font-style="normal" font-weight="normal" text-decoration="none" x="0" y="300"></text><text fill="#eeeeee" stroke="none" font-family="Arial" font-size="24px" font-style="normal" font-weight="normal" text-decoration="none" x="0" y="330"></text><text fill="#eeeeee" stroke="none" font-family="Arial" font-size="24px" font-style="normal" font-weight="normal" text-decoration="none" x="0" y="360"></text><text fill="#eeeeee" stroke="none" font-family="Arial" font-size="24px" font-style="normal" font-weight="normal" text-decoration="none" x="0" y="390"></text><text fill="#eeeeee" stroke="none" font-family="Arial" font-size="24px" font-style="normal" font-weight="normal" text-decoration="none" x="0" y="420"></text><text fill="#eeeeee" stroke="none" font-family="Arial" font-size="24px" font-style="normal" font-weight="normal" text-decoration="none" x="0" y="450"></text><text fill="#eeeeee" stroke="none" font-family="Arial" font-size="24px" font-style="normal" font-weight="normal" text-decoration="none" x="0" y="480"></text><text fill="#eeeeee" stroke="none" font-family="Arial" font-size="24px" font-style="normal" font-weight="normal" text-decoration="none" x="0" y="510"></text><text fill="#eeeeee" stroke="none" font-family="Arial" font-size="24px" font-style="normal" font-weight="normal" text-decoration="none" x="0" y="540"></text><text fill="#eeeeee" stroke="none" font-family="Arial" font-size="24px" font-style="normal" font-weight="normal" text-decoration="none" x="0" y="570"></text><text fill="#eeeeee" stroke="none" font-family="Arial" font-size="24px" font-style="normal" font-weight="normal" text-decoration="none" x="0" y="600"></text><text fill="#eeeeee" stroke="none" font-family="Arial" font-size="24px" font-style="normal" font-weight="normal" text-decoration="none" x="200" y="0"></text><text fill="#eeeeee" stroke="none" font-family="Arial" font-size="24px" font-style="normal" font-weight="normal" text-decoration="none" x="200" y="30"></text><text fill="#eeeeee" stroke="none" font-family="Arial" font-size="24px" font-style="normal" font-weight="normal" text-decoration="none" x="200" y="60"></text><text fill="#eeeeee" stroke="none" font-family="Arial" font-size="24px" font-style="normal" font-weight="normal" text-decoration="none" x="200" y="90"></text><text fill="#eeeeee" stroke="none" font-family="Arial" font-size="24px" font-style="normal" font-weight="normal" text-decoration="none" x="200" y="120"></text><text fill="#eeeeee" stroke="none" font-family="Arial" font-size="24px" font-style="normal" font-weight="normal" text-decoration="none" x="200" y="150"></text><text fill="#eeeeee" stroke="none" font-family="Arial" font-size="24px" font-style="normal" font-weight="normal" text-decoration="none" x="200" y="180"></text><text fill="#eeeeee" stroke="none" font-family="Arial" font-size="24px" font-style="normal" font-weight="normal" text-decoration="none" x="200" y="210"></text><text fill="#eeeeee" stroke="none" font-family="Arial" font-size="24px" font-style="normal" font-weight="normal" text-decoration="none" x="200" y="240"></text><text fill="#eeeeee" stroke="none" font-family="Arial" font-size="24px" font-style="normal" font-weight="normal" text-decoration="none" x="200" y="270"></text><text fill="#eeeeee" stroke="none" font-family="Arial" font-size="24px" font-style="normal" font-weight="normal" text-decoration="none" x="200" y="300"></text><text fill="#eeeeee" stroke="none" font-family="Arial" font-size="24px" font-style="normal" font-weight="normal" text-decoration="none" x="200" y="330"></text><text fill="#eeeeee" stroke="none" font-family="Arial" font-size="24px" font-style="normal" font-weight="normal" text-decoration="none" x="200" y="360"></text><text fill="#eeeeee" stroke="none" font-family="Arial" font-size="24px" font-style="normal" font-weight="normal" text-decoration="none" x="200" y="390"></text><text fill="#eeeeee" stroke="none" font-family="Arial" font-size="24px" font-style="normal" font-weight="normal" text-decoration="none" x="200" y="420"></text><text fill="#eeeeee" stroke="none" font-family="Arial" font-size="24px" font-style="normal" font-weight="normal" text-decoration="none" x="200" y="450"></text><text fill="#eeeeee" stroke="none" font-family="Arial" font-size="24px" font-style="normal" font-weight="normal" text-decoration="none" x="200" y="480"></text><text fill="#eeeeee" stroke="none" font-family="Arial" font-size="24px" font-style="normal" font-weight="normal" text-decoration="none" x="200" y="510"></text><text fill="#eeeeee" stroke="none" font-family="Arial" font-size="24px" font-style="normal" font-weight="normal" text-decoration="none" x="200" y="540"></text><text fill="#eeeeee" stroke="none" font-family="Arial" font-size="24px" font-style="normal" font-weight="normal" text-decoration="none" x="200" y="570"></text><text fill="#eeeeee" stroke="none" font-family="Arial" font-size="24px" font-style="normal" font-weight="normal" text-decoration="none" x="200" y="600"></text><text fill="#eeeeee" stroke="none" font-family="Arial" font-size="24px" font-style="normal" font-weight="normal" text-decoration="none" x="400" y="0"></text><text fill="#eeeeee" stroke="none" font-family="Arial" font-size="24px" font-style="normal" font-weight="normal" text-decoration="none" x="400" y="30"></text><text fill="#eeeeee" stroke="none" font-family="Arial" font-size="24px" font-style="normal" font-weight="normal" text-decoration="none" x="400" y="60"></text><text fill="#eeeeee" stroke="none" font-family="Arial" font-size="24px" font-style="normal" font-weight="normal" text-decoration="none" x="400" y="90"></text><text fill="#eeeeee" stroke="none" font-family="Arial" font-size="24px" font-style="normal" font-weight="normal" text-decoration="none" x="400" y="120"></text><text fill="#eeeeee" stroke="none" font-family="Arial" font-size="24px" font-style="normal" font-weight="normal" text-decoration="none" x="400" y="150"></text><text fill="#eeeeee" stroke="none" font-family="Arial" font-size="24px" font-style="normal" font-weight="normal" text-decoration="none" x="400" y="180"></text><text fill="#eeeeee" stroke="none" font-family="Arial" font-size="24px" font-style="normal" font-weight="normal" text-decoration="none" x="400" y="210"></text><text fill="#eeeeee" stroke="none" font-family="Arial" font-size="24px" font-style="normal" font-weight="normal" text-decoration="none" x="400" y="240"></text><text fill="#eeeeee" stroke="none" font-family="Arial" font-size="24px" font-style="normal" font-weight="normal" text-decoration="none" x="400" y="270"></text><text fill="#eeeeee" stroke="none" font-family="Arial" font-size="24px" font-style="normal" font-weight="normal" text-decoration="none" x="400" y="300"></text><text fill="#eeeeee" stroke="none" font-family="Arial" font-size="24px" font-style="normal" font-weight="normal" text-decoration="none" x="400" y="330"></text><text fill="#eeeeee" stroke="none" font-family="Arial" font-size="24px" font-style="normal" font-weight="normal" text-decoration="none" x="400" y="360"></text><text fill="#eeeeee" stroke="none" font-family="Arial" font-size="24px" font-style="normal" font-weight="normal" text-decoration="none" x="400" y="390"></text><text fill="#eeeeee" stroke="none" font-family="Arial" font-size="24px" font-style="normal" font-weight="normal" text-decoration="none" x="400" y="420"></text><text fill="#eeeeee" stroke="none" font-family="Arial" font-size="24px" font-style="normal" font-weight="normal" text-decoration="none" x="400" y="450"></text><text fill="#eeeeee" stroke="none" font-family="Arial" font-size="24px" font-style="normal" font-weight="normal" text-decoration="none" x="400" y="480"></text><text fill="#eeeeee" stroke="none" font-family="Arial" font-size="24px" font-style="normal" font-weight="normal" text-decoration="none" x="400" y="510"></text><text fill="#eeeeee" stroke="none" font-family="Arial" font-size="24px" font-style="normal" font-weight="normal" text-decoration="none" x="400" y="540"></text><text fill="#eeeeee" stroke="none" font-family="Arial" font-size="24px" font-style="normal" font-weight="normal" text-decoration="none" x="400" y="570"></text><text fill="#eeeeee" stroke="none" font-family="Arial" font-size="24px" font-style="normal" font-weight="normal" text-decoration="none" x="400" y="600"></text><text fill="#eeeeee" stroke="none" font-family="Arial" font-size="24px" font-style="normal" font-weight="normal" text-decoration="none" x="600" y="0"></text><text fill="#eeeeee" stroke="none" font-family="Arial" font-size="24px" font-style="normal" font-weight="normal" text-decoration="none" x="600" y="30"></text><text fill="#eeeeee" stroke="none" font-family="Arial" font-size="24px" font-style="normal" font-weight="normal" text-decoration="none" x="600" y="60"></text><text fill="#eeeeee" stroke="none" font-family="Arial" font-size="24px" font-style="normal" font-weight="normal" text-decoration="none" x="600" y="90"></text><text fill="#eeeeee" stroke="none" font-family="Arial" font-size="24px" font-style="normal" font-weight="normal" text-decoration="none" x="600" y="120"></text><text fill="#eeeeee" stroke="none" font-family="Arial" font-size="24px" font-style="normal" font-weight="normal" text-decoration="none" x="600" y="150"></text><text fill="#eeeeee" stroke="none" font-family="Arial" font-size="24px" font-style="normal" font-weight="normal" text-decoration="none" x="600" y="180"></text><text fill="#eeeeee" stroke="none" font-family="Arial" font-size="24px" font-style="normal" font-weight="normal" text-decoration="none" x="600" y="210"></text><text fill="#eeeeee" stroke="none" font-family="Arial" font-size="24px" font-style="normal" font-weight="normal" text-decoration="none" x="600" y="240"></text><text fill="#eeeeee" stroke="none" font-family="Arial" font-size="24px" font-style="normal" font-weight="normal" text-decoration="none" x="600" y="270"></text><text fill="#eeeeee" stroke="none" font-family="Arial" font-size="24px" font-style="normal" font-weight="normal" text-decoration="none" x="600" y="300"></text><text fill="#eeeeee" stroke="none" font-family="Arial" font-size="24px" font-style="normal" font-weight="normal" text-decoration="none" x="600" y="330"></text><text fill="#eeeeee" stroke="none" font-family="Arial" font-size="24px" font-style="normal" font-weight="normal" text-decoration="none" x="600" y="360"></text><text fill="#eeeeee" stroke="none" font-family="Arial" font-size="24px" font-style="normal" font-weight="normal" text-decoration="none" x="600" y="390"></text><text fill="#eeeeee" stroke="none" font-family="Arial" font-size="24px" font-style="normal" font-weight="normal" text-decoration="none" x="600" y="420"></text><text fill="#eeeeee" stroke="none" font-family="Arial" font-size="24px" font-style="normal" font-weight="normal" text-decoration="none" x="600" y="450"></text><text fill="#eeeeee" stroke="none" font-family="Arial" font-size="24px" font-style="normal" font-weight="normal" text-decoration="none" x="600" y="480"></text><text fill="#eeeeee" stroke="none" font-family="Arial" font-size="24px" font-style="normal" font-weight="normal" text-decoration="none" x="600" y="510"></text><text fill="#eeeeee" stroke="none" font-family="Arial" font-size="24px" font-style="normal" font-weight="normal" text-decoration="none" x="600" y="540"></text><text fill="#eeeeee" stroke="none" font-family="Arial" font-size="24px" font-style="normal" font-weight="normal" text-decoration="none" x="600" y="570"></text><text fill="#eeeeee" stroke="none" font-family="Arial" font-size="24px" font-style="normal" font-weight="normal" text-decoration="none" x="600" y="600"></text><text fill="#eeeeee" stroke="none" font-family="Arial" font-size="24px" font-style="normal" font-weight="normal" text-decoration="none" x="800" y="0"></text><text fill="#eeeeee" stroke="none" font-family="Arial" font-size="24px" font-style="normal" font-weight="normal" text-decoration="none" x="800" y="30"></text><text fill="#eeeeee" stroke="none" font-family="Arial" font-size="24px" font-style="normal" font-weight="normal" text-decoration="none" x="800" y="60"></text><text fill="#eeeeee" stroke="none" font-family="Arial" font-size="24px" font-style="normal" font-weight="normal" text-decoration="none" x="800" y="90"></text><text fill="#eeeeee" stroke="none" font-family="Arial" font-size="24px" font-style="normal" font-weight="normal" text-decoration="none" x="800" y="120"></text><text fill="#eeeeee" stroke="none" font-family="Arial" font-size="24px" font-style="normal" font-weight="normal" text-decoration="none" x="800" y="150"></text><text fill="#eeeeee" stroke="none" font-family="Arial" font-size="24px" font-style="normal" font-weight="normal" text-decoration="none" x="800" y="180"></text><text fill="#eeeeee" stroke="none" font-family="Arial" font-size="24px" font-style="normal" font-weight="normal" text-decoration="none" x="800" y="210"></text><text fill="#eeeeee" stroke="none" font-family="Arial" font-size="24px" font-style="normal" font-weight="normal" text-decoration="none" x="800" y="240"></text><text fill="#eeeeee" stroke="none" font-family="Arial" font-size="24px" font-style="normal" font-weight="normal" text-decoration="none" x="800" y="270"></text><text fill="#eeeeee" stroke="none" font-family="Arial" font-size="24px" font-style="normal" font-weight="normal" text-decoration="none" x="800" y="300"></text><text fill="#eeeeee" stroke="none" font-family="Arial" font-size="24px" font-style="normal" font-weight="normal" text-decoration="none" x="800" y="330"></text><text fill="#eeeeee" stroke="none" font-family="Arial" font-size="24px" font-style="normal" font-weight="normal" text-decoration="none" x="800" y="360"></text><text fill="#eeeeee" stroke="none" font-family="Arial" font-size="24px" font-style="normal" font-weight="normal" text-decoration="none" x="800" y="390"></text><text fill="#eeeeee" stroke="none" font-family="Arial" font-size="24px" font-style="normal" font-weight="normal" text-decoration="none" x="800" y="420"></text><text fill="#eeeeee" stroke="none" font-family="Arial" font-size="24px" font-style="normal" font-weight="normal" text-decoration="none" x="800" y="450"></text><text fill="#eeeeee" stroke="none" font-family="Arial" font-size="24px" font-style="normal" font-weight="normal" text-decoration="none" x="800" y="480"></text><text fill="#eeeeee" stroke="none" font-family="Arial" font-size="24px" font-style="normal" font-weight="normal" text-decoration="none" x="800" y="510"></text><text fill="#eeeeee" stroke="none" font-family="Arial" font-size="24px" font-style="normal" font-weight="normal" text-decoration="none" x="800" y="540"></text><text fill="#eeeeee" stroke="none" font-family="Arial" font-size="24px" font-style="normal" font-weight="normal" text-decoration="none" x="800" y="570"></text><text fill="#eeeeee" stroke="none" font-family="Arial" font-size="24px" font-style="normal" font-weight="normal" text-decoration="none" x="800" y="600"></text><g transform="translate(-38,-46) scale(1,1)"><rect fill="#C0C0C0" stroke="none" x="267" y="63" width="177.2890625" height="39" opacity="0.2"/></g><g transform="translate(-38,-46) scale(1,1)"><rect fill="#ffffff" stroke="none" x="260" y="56" width="177.2890625" height="39"/></g><g transform="translate(-38,-46) scale(1,1)"><path fill="none" stroke="#000000" d="M 260 56 L 437.2890625 56 L 437.2890625 95 L 260 95 L 260 56 Z Z" stroke-miterlimit="10"/></g><g transform="translate(-38,-46) scale(1,1)"><g><path fill="none" stroke="none"/><text fill="#000000" stroke="none" font-family="Arial" font-size="13px" font-style="normal" font-weight="bold" text-decoration="none" x="272.094970703125" y="74">EquipmentInfoController</text></g></g><g transform="translate(-38,-46) scale(1,1)"><rect fill="#C0C0C0" stroke="none" x="267" y="156" width="177.2890625" height="39" opacity="0.2"/></g><g transform="translate(-38,-46) scale(1,1)"><rect fill="#ffffff" stroke="none" x="260" y="149" width="177.2890625" height="39"/></g><g transform="translate(-38,-46) scale(1,1)"><path fill="none" stroke="#000000" d="M 260 149 L 437.2890625 149 L 437.2890625 188 L 260 188 L 260 149 Z Z" stroke-miterlimit="10"/></g><g transform="translate(-38,-46) scale(1,1)"><g><path fill="none" stroke="none"/><text fill="#000000" stroke="none" font-family="Arial" font-size="13px" font-style="normal" font-weight="bold" text-decoration="none" x="281.11181640625" y="167">MaterialInfoController</text></g></g><g transform="translate(-38,-46) scale(1,1)"><rect fill="#C0C0C0" stroke="none" x="267" y="249" width="177.2890625" height="39" opacity="0.2"/></g><g transform="translate(-38,-46) scale(1,1)"><rect fill="#ffffff" stroke="none" x="260" y="242" width="177.2890625" height="39"/></g><g transform="translate(-38,-46) scale(1,1)"><path fill="none" stroke="#000000" d="M 260 242 L 437.2890625 242 L 437.2890625 281 L 260 281 L 260 242 Z Z" stroke-miterlimit="10"/></g><g transform="translate(-38,-46) scale(1,1)"><g><path fill="none" stroke="none"/><text fill="#000000" stroke="none" font-family="Arial" font-size="13px" font-style="normal" font-weight="bold" text-decoration="none" x="285.812255859375" y="260">RefineInfoController</text></g></g><g transform="translate(-38,-46) scale(1,1)"><rect fill="#C0C0C0" stroke="none" x="267" y="342" width="177.2890625" height="39" opacity="0.2"/></g><g transform="translate(-38,-46) scale(1,1)"><rect fill="#ffffff" stroke="none" x="260" y="335" width="177.2890625" height="39"/></g><g transform="translate(-38,-46) scale(1,1)"><path fill="none" stroke="#000000" d="M 260 335 L 437.2890625 335 L 437.2890625 374 L 260 374 L 260 335 Z Z" stroke-miterlimit="10"/></g><g transform="translate(-38,-46) scale(1,1)"><g><path fill="none" stroke="none"/><text fill="#000000" stroke="none" font-family="Arial" font-size="13px" font-style="normal" font-weight="bold" text-decoration="none" x="272.42822265625" y="353">RefineProcessController</text></g></g><g transform="translate(-38,-46) scale(1,1)"><rect fill="#C0C0C0" stroke="none" x="267" y="435" width="177.2890625" height="39" opacity="0.2"/></g><g transform="translate(-38,-46) scale(1,1)"><rect fill="#ffffff" stroke="none" x="260" y="428" width="177.2890625" height="39"/></g><g transform="translate(-38,-46) scale(1,1)"><path fill="none" stroke="#000000" d="M 260 428 L 437.2890625 428 L 437.2890625 467 L 260 467 L 260 428 Z Z" stroke-miterlimit="10"/></g><g transform="translate(-38,-46) scale(1,1)"><g><path fill="none" stroke="none"/><text fill="#000000" stroke="none" font-family="Arial" font-size="13px" font-style="normal" font-weight="bold" text-decoration="none" x="277.858642578125" y="446">RefineRangeController</text></g></g><g transform="translate(-38,-46) scale(1,1)"><rect fill="#C0C0C0" stroke="none" x="267" y="528" width="177.2890625" height="39" opacity="0.2"/></g><g transform="translate(-38,-46) scale(1,1)"><rect fill="#ffffff" stroke="none" x="260" y="521" width="177.2890625" height="39"/></g><g transform="translate(-38,-46) scale(1,1)"><path fill="none" stroke="#000000" d="M 260 521 L 437.2890625 521 L 437.2890625 560 L 260 560 L 260 521 Z Z" stroke-miterlimit="10"/></g><g transform="translate(-38,-46) scale(1,1)"><g><path fill="none" stroke="none"/><text fill="#000000" stroke="none" font-family="Arial" font-size="13px" font-style="normal" font-weight="bold" text-decoration="none" x="264.5" y="539">RefineSimulationController</text></g></g><g transform="translate(-38,-46) scale(1,1)"><rect fill="#C0C0C0" stroke="none" x="543" y="291" width="110.8671875" height="39" opacity="0.2"/></g><g transform="translate(-38,-46) scale(1,1)"><rect fill="#ffffff" stroke="none" x="536" y="284" width="110.8671875" height="39"/></g><g transform="translate(-38,-46) scale(1,1)"><path fill="none" stroke="#000000" d="M 536 284 L 646.8671875 284 L 646.8671875 323 L 536 323 L 536 284 Z Z" stroke-miterlimit="10"/></g><g transform="translate(-38,-46) scale(1,1)"><g><path fill="none" stroke="none"/><text fill="#000000" stroke="none" font-family="Arial" font-size="13px" font-style="normal" font-weight="bold" text-decoration="none" x="540.5" y="302">RefineUserStore</text></g></g><g transform="translate(-38,-46) scale(1,1)"><g><path fill="none" stroke="none"/><text fill="#000000" stroke="none" font-family="Arial" font-size="13px" font-style="normal" font-weight="normal" text-decoration="none" x="541.226806640625" y="317">(from Data.Store)</text></g></g><g transform="translate(-38,-46) scale(1,1)"><rect fill="#C0C0C0" stroke="none" x="299" y="621" width="113.7490234375" height="39" opacity="0.2"/></g><g transform="translate(-38,-46) scale(1,1)"><rect fill="#ffffff" stroke="none" x="292" y="614" width="113.7490234375" height="39"/></g><g transform="translate(-38,-46) scale(1,1)"><path fill="none" stroke="#000000" d="M 292 614 L 405.7490234375 614 L 405.7490234375 653 L 292 653 L 292 614 Z Z" stroke-miterlimit="10"/></g><g transform="translate(-38,-46) scale(1,1)"><g><path fill="none" stroke="none"/><text fill="#000000" stroke="none" font-family="Arial" font-size="13px" font-style="normal" font-weight="bold" text-decoration="none" x="296.5" y="632">RefineStatsStore</text></g></g><g transform="translate(-38,-46) scale(1,1)"><g><path fill="none" stroke="none"/><text fill="#000000" stroke="none" font-family="Arial" font-size="13px" font-style="normal" font-weight="normal" text-decoration="none" x="298.667724609375" y="647">(from Data.Store)</text></g></g><g transform="translate(-38,-46) scale(1,1)"><rect fill="#C0C0C0" stroke="none" x="767" y="291" width="113.76171875" height="39" opacity="0.2"/></g><g transform="translate(-38,-46) scale(1,1)"><rect fill="#ffffff" stroke="none" x="760" y="284" width="113.76171875" height="39"/></g><g transform="translate(-38,-46) scale(1,1)"><path fill="none" stroke="#000000" d="M 760 284 L 873.76171875 284 L 873.76171875 323 L 760 323 L 760 284 Z Z" stroke-miterlimit="10"/></g><g transform="translate(-38,-46) scale(1,1)"><g><path fill="none" stroke="none"/><text fill="#000000" stroke="none" font-family="Arial" font-size="13px" font-style="normal" font-weight="bold" text-decoration="none" x="764.5" y="302">RefinePriceStore</text></g></g><g transform="translate(-38,-46) scale(1,1)"><g><path fill="none" stroke="none"/><text fill="#000000" stroke="none" font-family="Arial" font-size="13px" font-style="normal" font-weight="normal" text-decoration="none" x="766.674072265625" y="317">(from Data.Store)</text></g></g><g transform="translate(-38,-46) scale(1,1)"><rect fill="#C0C0C0" stroke="none" x="55" y="291" width="92.0654296875" height="39" opacity="0.2"/></g><g transform="translate(-38,-46) scale(1,1)"><rect fill="#ffffff" stroke="none" x="48" y="284" width="92.0654296875" height="39"/></g><g transform="translate(-38,-46) scale(1,1)"><path fill="none" stroke="#000000" d="M 48 284 L 140.0654296875 284 L 140.0654296875 323 L 48 323 L 48 284 Z Z" stroke-miterlimit="10"/></g><g transform="translate(-38,-46) scale(1,1)"><g><path fill="none" stroke="none"/><text fill="#000000" stroke="none" font-family="Arial" font-size="13px" font-style="normal" font-weight="bold" text-decoration="none" x="83.197265625" y="302">API</text></g></g><g transform="translate(-38,-46) scale(1,1)"><g><path fill="none" stroke="none"/><text fill="#000000" stroke="none" font-family="Arial" font-size="13px" font-style="normal" font-weight="normal" text-decoration="none" x="52.5" y="317">(from Domain)</text></g></g><g transform="translate(-38,-46) scale(1,1)"><path fill="none" stroke="#000000" d="M 437 72 L 816 72 L 816 284" stroke-miterlimit="10"/></g><g transform="translate(-38,-46) scale(1,1)"><path fill="none" stroke="#000000" d="M 811.790482243984 273.83732514237585 L 816 284 L 820.209517756016 273.83732514237585" stroke-miterlimit="10"/></g><g transform="translate(-38,-46) scale(1,1)"><path fill="none" stroke="#000000" d="M 437 72 L 591 72 L 591 284" stroke-miterlimit="10"/></g><g transform="translate(-38,-46) scale(1,1)"><path fill="none" stroke="#000000" d="M 586.790482243984 273.83732514237585 L 591 284 L 595.209517756016 273.83732514237585" stroke-miterlimit="10"/></g><g transform="translate(-38,-46) scale(1,1)"><path fill="none" stroke="#000000" d="M 437 168 L 816 168 L 816 284" stroke-miterlimit="10"/></g><g transform="translate(-38,-46) scale(1,1)"><path fill="none" stroke="#000000" d="M 811.790482243984 273.83732514237585 L 816 284 L 820.209517756016 273.83732514237585" stroke-miterlimit="10"/></g><g transform="translate(-38,-46) scale(1,1)"><path fill="none" stroke="#000000" d="M 437 168 L 591 168 L 591 284" stroke-miterlimit="10"/></g><g transform="translate(-38,-46) scale(1,1)"><path fill="none" stroke="#000000" d="M 586.790482243984 273.83732514237585 L 591 284 L 595.209517756016 273.83732514237585" stroke-miterlimit="10"/></g><g transform="translate(-38,-46) scale(1,1)"><path fill="none" stroke="#000000" d="M 260 161 L 94 161 L 94 284" stroke-miterlimit="10"/></g><g transform="translate(-38,-46) scale(1,1)"><path fill="none" stroke="#000000" d="M 89.79048224398402 273.83732514237585 L 94 284 L 98.20951775601598 273.83732514237585" stroke-miterlimit="10"/></g><g transform="translate(-38,-46) scale(1,1)"><path fill="none" stroke="#000000" d="M 437 254 L 816 254 L 816 284" stroke-miterlimit="10"/></g><g transform="translate(-38,-46) scale(1,1)"><path fill="none" stroke="#000000" d="M 811.790482243984 273.83732514237585 L 816 284 L 820.209517756016 273.83732514237585" stroke-miterlimit="10"/></g><g transform="translate(-38,-46) scale(1,1)"><path fill="none" stroke="#000000" d="M 437 254 L 591 254 L 591 284" stroke-miterlimit="10"/></g><g transform="translate(-38,-46) scale(1,1)"><path fill="none" stroke="#000000" d="M 586.790482243984 273.83732514237585 L 591 284 L 595.209517756016 273.83732514237585" stroke-miterlimit="10"/></g><g transform="translate(-38,-46) scale(1,1)"><path fill="none" stroke="#000000" d="M 437 352 L 591 352 L 591 323" stroke-miterlimit="10"/></g><g transform="translate(-38,-46) scale(1,1)"><path fill="none" stroke="#000000" d="M 595.209517756016 333.16267485762415 L 591 323 L 586.790482243984 333.16267485762415" stroke-miterlimit="10"/></g><g transform="translate(-38,-46) scale(1,1)"><path fill="none" stroke="#000000" d="M 260 352 L 94 352 L 94 323" stroke-miterlimit="10"/></g><g transform="translate(-38,-46) scale(1,1)"><path fill="none" stroke="#000000" d="M 98.20951775601598 333.16267485762415 L 94 323 L 89.79048224398402 333.16267485762415" stroke-miterlimit="10"/></g><g transform="translate(-38,-46) scale(1,1)"><path fill="none" stroke="#000000" d="M 437 448 L 591 448 L 591 323" stroke-miterlimit="10"/></g><g transform="translate(-38,-46) scale(1,1)"><path fill="none" stroke="#000000" d="M 595.209517756016 333.16267485762415 L 591 323 L 586.790482243984 333.16267485762415" stroke-miterlimit="10"/></g><g transform="translate(-38,-46) scale(1,1)"><path fill="none" stroke="#000000" d="M 437 544 L 816 544 L 816 323" stroke-miterlimit="10"/></g><g transform="translate(-38,-46) scale(1,1)"><path fill="none" stroke="#000000" d="M 820.209517756016 333.16267485762415 L 816 323 L 811.790482243984 333.16267485762415" stroke-miterlimit="10"/></g><g transform="translate(-38,-46) scale(1,1)"><path fill="none" stroke="#000000" d="M 437 544 L 591 544 L 591 323" stroke-miterlimit="10"/></g><g transform="translate(-38,-46) scale(1,1)"><path fill="none" stroke="#000000" d="M 595.209517756016 333.16267485762415 L 591 323 L 586.790482243984 333.16267485762415" stroke-miterlimit="10"/></g><g transform="translate(-38,-46) scale(1,1)"><path fill="none" stroke="#000000" d="M 344 560 L 344 614" stroke-miterlimit="10"/></g><g transform="translate(-38,-46) scale(1,1)"><path fill="none" stroke="#000000" d="M 339.790482243984 603.8373251423759 L 344 614 L 348.209517756016 603.8373251423759" stroke-miterlimit="10"/></g><g transform="translate(-38,-46) scale(1,1)"><path fill="none" stroke="#000000" d="M 260 544 L 94 544 L 94 323" stroke-miterlimit="10"/></g><g transform="translate(-38,-46) scale(1,1)"><path fill="none" stroke="#000000" d="M 98.20951775601598 333.16267485762415 L 94 323 L 89.79048224398402 333.16267485762415" stroke-miterlimit="10"/></g></g></svg>