<svg version="1.1" xmlns="http://www.w3.org/2000/svg" xmlns:xlink="http://www.w3.org/1999/xlink" width="782.966796875" height="439"><defs/><g><text fill="#eeeeee" stroke="none" font-family="Arial" font-size="24px" font-style="normal" font-weight="normal" text-decoration="none" x="0" y="0"></text><text fill="#eeeeee" stroke="none" font-family="Arial" font-size="24px" font-style="normal" font-weight="normal" text-decoration="none" x="0" y="30"></text><text fill="#eeeeee" stroke="none" font-family="Arial" font-size="24px" font-style="normal" font-weight="normal" text-decoration="none" x="0" y="60"></text><text fill="#eeeeee" stroke="none" font-family="Arial" font-size="24px" font-style="normal" font-weight="normal" text-decoration="none" x="0" y="90"></text><text fill="#eeeeee" stroke="none" font-family="Arial" font-size="24px" font-style="normal" font-weight="normal" text-decoration="none" x="0" y="120"></text><text fill="#eeeeee" stroke="none" font-family="Arial" font-size="24px" font-style="normal" font-weight="normal" text-decoration="none" x="0" y="150"></text><text fill="#eeeeee" stroke="none" font-family="Arial" font-size="24px" font-style="normal" font-weight="normal" text-decoration="none" x="0" y="180"></text><text fill="#eeeeee" stroke="none" font-family="Arial" font-size="24px" font-style="normal" font-weight="normal" text-decoration="none" x="0" y="210"></text><text fill="#eeeeee" stroke="none" font-family="Arial" font-size="24px" font-style="normal" font-weight="normal" text-decoration="none" x="0" y="240"></text><text fill="#eeeeee" stroke="none" font-family="Arial" font-size="24px" font-style="normal" font-weight="normal" text-decoration="none" x="0" y="270"></text><text fill="#eeeeee" stroke="none" font-family="Arial" font-size="24px" font-style="normal" font-weight="normal" text-decoration="none" x="0" y="300"></text><text fill="#eeeeee" stroke="none" font-family="Arial" font-size="24px" font-style="normal" font-weight="normal" text-decoration="none" x="0" y="330"></text><text fill="#eeeeee" stroke="none" font-family="Arial" font-size="24px" font-style="normal" font-weight="normal" text-decoration="none" x="0" y="360"></text><text fill="#eeeeee" stroke="none" font-family="Arial" font-size="24px" font-style="normal" font-weight="normal" text-decoration="none" x="0" y="390"></text><text fill="#eeeeee" stroke="none" font-family="Arial" font-size="24px" font-style="normal" font-weight="normal" text-decoration="none" x="0" y="420"></text><text fill="#eeeeee" stroke="none" font-family="Arial" font-size="24px" font-style="normal" font-weight="normal" text-decoration="none" x="200" y="0"></text><text fill="#eeeeee" stroke="none" font-family="Arial" font-size="24px" font-style="normal" font-weight="normal" text-decoration="none" x="200" y="30"></text><text fill="#eeeeee" stroke="none" font-family="Arial" font-size="24px" font-style="normal" font-weight="normal" text-decoration="none" x="200" y="60"></text><text fill="#eeeeee" stroke="none" font-family="Arial" font-size="24px" font-style="normal" font-weight="normal" text-decoration="none" x="200" y="90"></text><text fill="#eeeeee" stroke="none" font-family="Arial" font-size="24px" font-style="normal" font-weight="normal" text-decoration="none" x="200" y="120"></text><text fill="#eeeeee" stroke="none" font-family="Arial" font-size="24px" font-style="normal" font-weight="normal" text-decoration="none" x="200" y="150"></text><text fill="#eeeeee" stroke="none" font-family="Arial" font-size="24px" font-style="normal" font-weight="normal" text-decoration="none" x="200" y="180"></text><text fill="#eeeeee" stroke="none" font-family="Arial" font-size="24px" font-style="normal" font-weight="normal" text-decoration="none" x="200" y="210"></text><text fill="#eeeeee" stroke="none" font-family="Arial" font-size="24px" font-style="normal" font-weight="normal" text-decoration="none" x="200" y="240"></text><text fill="#eeeeee" stroke="none" font-family="Arial" font-size="24px" font-style="normal" font-weight="normal" text-decoration="none" x="200" y="270"></text><text fill="#eeeeee" stroke="none" font-family="Arial" font-size="24px" font-style="normal" font-weight="normal" text-decoration="none" x="200" y="300"></text><text fill="#eeeeee" stroke="none" font-family="Arial" font-size="24px" font-style="normal" font-weight="normal" text-decoration="none" x="200" y="330"></text><text fill="#eeeeee" stroke="none" font-family="Arial" font-size="24px" font-style="normal" font-weight="normal" text-decoration="none" x="200" y="360"></text><text fill="#eeeeee" stroke="none" font-family="Arial" font-size="24px" font-style="normal" font-weight="normal" text-decoration="none" x="200" y="390"></text><text fill="#eeeeee" stroke="none" font-family="Arial" font-size="24px" font-style="normal" font-weight="normal" text-decoration="none" x="200" y="420"></text><text fill="#eeeeee" stroke="none" font-family="Arial" font-size="24px" font-style="normal" font-weight="normal" text-decoration="none" x="400" y="0"></text><text fill="#eeeeee" stroke="none" font-family="Arial" font-size="24px" font-style="normal" font-weight="normal" text-decoration="none" x="400" y="30"></text><text fill="#eeeeee" stroke="none" font-family="Arial" font-size="24px" font-style="normal" font-weight="normal" text-decoration="none" x="400" y="60"></text><text fill="#eeeeee" stroke="none" font-family="Arial" font-size="24px" font-style="normal" font-weight="normal" text-decoration="none" x="400" y="90"></text><text fill="#eeeeee" stroke="none" font-family="Arial" font-size="24px" font-style="normal" font-weight="normal" text-decoration="none" x="400" y="120"></text><text fill="#eeeeee" stroke="none" font-family="Arial" font-size="24px" font-style="normal" font-weight="normal" text-decoration="none" x="400" y="150"></text><text fill="#eeeeee" stroke="none" font-family="Arial" font-size="24px" font-style="normal" font-weight="normal" text-decoration="none" x="400" y="180"></text><text fill="#eeeeee" stroke="none" font-family="Arial" font-size="24px" font-style="normal" font-weight="normal" text-decoration="none" x="400" y="210"></text><text fill="#eeeeee" stroke="none" font-family="Arial" font-size="24px" font-style="normal" font-weight="normal" text-decoration="none" x="400" y="240"></text><text fill="#eeeeee" stroke="none" font-family="Arial" font-size="24px" font-style="normal" font-weight="normal" text-decoration="none" x="400" y="270"></text><text fill="#eeeeee" stroke="none" font-family="Arial" font-size="24px" font-style="normal" font-weight="normal" text-decoration="none" x="400" y="300"></text><text fill="#eeeeee" stroke="none" font-family="Arial" font-size="24px" font-style="normal" font-weight="normal" text-decoration="none" x="400" y="330"></text><text fill="#eeeeee" stroke="none" font-family="Arial" font-size="24px" font-style="normal" font-weight="normal" text-decoration="none" x="400" y="360"></text><text fill="#eeeeee" stroke="none" font-family="Arial" font-size="24px" font-style="normal" font-weight="normal" text-decoration="none" x="400" y="390"></text><text fill="#eeeeee" stroke="none" font-family="Arial" font-size="24px" font-style="normal" font-weight="normal" text-decoration="none" x="400" y="420"></text><text fill="#eeeeee" stroke="none" font-family="Arial" font-size="24px" font-style="normal" font-weight="normal" text-decoration="none" x="600" y="0"></text><text fill="#eeeeee" stroke="none" font-family="Arial" font-size="24px" font-style="normal" font-weight="normal" text-decoration="none" x="600" y="30"></text><text fill="#eeeeee" stroke="none" font-family="Arial" font-size="24px" font-style="normal" font-weight="normal" text-decoration="none" x="600" y="60"></text><text fill="#eeeeee" stroke="none" font-family="Arial" font-size="24px" font-style="normal" font-weight="normal" text-decoration="none" x="600" y="90"></text><text fill="#eeeeee" stroke="none" font-family="Arial" font-size="24px" font-style="normal" font-weight="normal" text-decoration="none" x="600" y="120"></text><text fill="#eeeeee" stroke="none" font-family="Arial" font-size="24px" font-style="normal" font-weight="normal" text-decoration="none" x="600" y="150"></text><text fill="#eeeeee" stroke="none" font-family="Arial" font-size="24px" font-style="normal" font-weight="normal" text-decoration="none" x="600" y="180"></text><text fill="#eeeeee" stroke="none" font-family="Arial" font-size="24px" font-style="normal" font-weight="normal" text-decoration="none" x="600" y="210"></text><text fill="#eeeeee" stroke="none" font-family="Arial" font-size="24px" font-style="normal" font-weight="normal" text-decoration="none" x="600" y="240"></text><text fill="#eeeeee" stroke="none" font-family="Arial" font-size="24px" font-style="normal" font-weight="normal" text-decoration="none" x="600" y="270"></text><text fill="#eeeeee" stroke="none" font-family="Arial" font-size="24px" font-style="normal" font-weight="normal" text-decoration="none" x="600" y="300"></text><text fill="#eeeeee" stroke="none" font-family="Arial" font-size="24px" font-style="normal" font-weight="normal" text-decoration="none" x="600" y="330"></text><text fill="#eeeeee" stroke="none" font-family="Arial" font-size="24px" font-style="normal" font-weight="normal" text-decoration="none" x="600" y="360"></text><text fill="#eeeeee" stroke="none" font-family="Arial" font-size="24px" font-style="normal" font-weight="normal" text-decoration="none" x="600" y="390"></text><text fill="#eeeeee" stroke="none" font-family="Arial" font-size="24px" font-style="normal" font-weight="normal" text-decoration="none" x="600" y="420"></text><g transform="translate(-78,-62) scale(1,1)"><rect fill="#C0C0C0" stroke="none" x="307" y="391" width="125.73974609375" height="77" opacity="0.2"/></g><g transform="translate(-78,-62) scale(1,1)"><rect fill="#ffffff" stroke="none" x="300" y="384" width="125.73974609375" height="77"/></g><g transform="translate(-78,-62) scale(1,1)"><path fill="none" stroke="#000000" d="M 300 384 L 425.73974609375 384 L 425.73974609375 461 L 300 461 L 300 384 Z Z" stroke-miterlimit="10"/></g><g transform="translate(-78,-62) scale(1,1)"><path fill="none" stroke="#000000" d="M 300 409 L 425.73974609375 409" stroke-miterlimit="10"/></g><g transform="translate(-78,-62) scale(1,1)"><g><path fill="none" stroke="none"/><text fill="#000000" stroke="none" font-family="Arial" font-size="13px" font-style="normal" font-weight="bold" text-decoration="none" x="317.7412109375" y="402">CustomButton</text></g></g><g transform="translate(-78,-62) scale(1,1)"><g><path fill="none" stroke="none"/><text fill="#000000" stroke="none" font-family="Arial" font-size="13px" font-style="normal" font-weight="normal" text-decoration="none" x="305" y="425">+label?: string</text></g></g><g transform="translate(-78,-62) scale(1,1)"><g><path fill="none" stroke="none"/><text fill="#000000" stroke="none" font-family="Arial" font-size="13px" font-style="normal" font-weight="normal" text-decoration="none" x="305" y="440">+disabled?: boolean</text></g></g><g transform="translate(-78,-62) scale(1,1)"><g><path fill="none" stroke="none"/><text fill="#000000" stroke="none" font-family="Arial" font-size="13px" font-style="normal" font-weight="normal" text-decoration="none" x="305" y="455">+onClick?</text></g></g><g transform="translate(-78,-62) scale(1,1)"><rect fill="#C0C0C0" stroke="none" x="399" y="207" width="192.93603515625" height="92" opacity="0.2"/></g><g transform="translate(-78,-62) scale(1,1)"><rect fill="#ffffff" stroke="none" x="392" y="200" width="192.93603515625" height="92"/></g><g transform="translate(-78,-62) scale(1,1)"><path fill="none" stroke="#000000" d="M 392 200 L 584.93603515625 200 L 584.93603515625 292 L 392 292 L 392 200 Z Z" stroke-miterlimit="10"/></g><g transform="translate(-78,-62) scale(1,1)"><path fill="none" stroke="#000000" d="M 392 225 L 584.93603515625 225" stroke-miterlimit="10"/></g><g transform="translate(-78,-62) scale(1,1)"><g><path fill="none" stroke="none"/><text fill="#000000" stroke="none" font-family="Arial" font-size="13px" font-style="normal" font-weight="bold" text-decoration="none" x="430.3330078125" y="218">CustomCombobox</text></g></g><g transform="translate(-78,-62) scale(1,1)"><g><path fill="none" stroke="none"/><text fill="#000000" stroke="none" font-family="Arial" font-size="13px" font-style="normal" font-weight="normal" text-decoration="none" x="397" y="241">+label: string</text></g></g><g transform="translate(-78,-62) scale(1,1)"><g><path fill="none" stroke="none"/><text fill="#000000" stroke="none" font-family="Arial" font-size="13px" font-style="normal" font-weight="normal" text-decoration="none" x="397" y="256">+data: Array&lt;ComponentData&gt;</text></g></g><g transform="translate(-78,-62) scale(1,1)"><g><path fill="none" stroke="none"/><text fill="#000000" stroke="none" font-family="Arial" font-size="13px" font-style="normal" font-weight="normal" text-decoration="none" x="397" y="271">+value: NonNullable&lt;unknown&gt;</text></g></g><g transform="translate(-78,-62) scale(1,1)"><g><path fill="none" stroke="none"/><text fill="#000000" stroke="none" font-family="Arial" font-size="13px" font-style="normal" font-weight="normal" text-decoration="none" x="397" y="286">+onChange?</text></g></g><g transform="translate(-78,-62) scale(1,1)"><rect fill="#C0C0C0" stroke="none" x="503" y="391" width="152.4443359375" height="92" opacity="0.2"/></g><g transform="translate(-78,-62) scale(1,1)"><rect fill="#ffffff" stroke="none" x="496" y="384" width="152.4443359375" height="92"/></g><g transform="translate(-78,-62) scale(1,1)"><path fill="none" stroke="#000000" d="M 496 384 L 648.4443359375 384 L 648.4443359375 476 L 496 476 L 496 384 Z Z" stroke-miterlimit="10"/></g><g transform="translate(-78,-62) scale(1,1)"><path fill="none" stroke="#000000" d="M 496 409 L 648.4443359375 409" stroke-miterlimit="10"/></g><g transform="translate(-78,-62) scale(1,1)"><g><path fill="none" stroke="none"/><text fill="#000000" stroke="none" font-family="Arial" font-size="13px" font-style="normal" font-weight="bold" text-decoration="none" x="529.9658203125" y="402">CustomSlider</text></g></g><g transform="translate(-78,-62) scale(1,1)"><g><path fill="none" stroke="none"/><text fill="#000000" stroke="none" font-family="Arial" font-size="13px" font-style="normal" font-weight="normal" text-decoration="none" x="501" y="425">+value?: Array&lt;number&gt;</text></g></g><g transform="translate(-78,-62) scale(1,1)"><g><path fill="none" stroke="none"/><text fill="#000000" stroke="none" font-family="Arial" font-size="13px" font-style="normal" font-weight="normal" text-decoration="none" x="501" y="440">+min?: number</text></g></g><g transform="translate(-78,-62) scale(1,1)"><g><path fill="none" stroke="none"/><text fill="#000000" stroke="none" font-family="Arial" font-size="13px" font-style="normal" font-weight="normal" text-decoration="none" x="501" y="455">+max?: number</text></g></g><g transform="translate(-78,-62) scale(1,1)"><g><path fill="none" stroke="none"/><text fill="#000000" stroke="none" font-family="Arial" font-size="13px" font-style="normal" font-weight="normal" text-decoration="none" x="501" y="470">+onChange?</text></g></g><g transform="translate(-78,-62) scale(1,1)"><rect fill="#C0C0C0" stroke="none" x="95" y="391" width="141.15185546875" height="107" opacity="0.2"/></g><g transform="translate(-78,-62) scale(1,1)"><rect fill="#ffffff" stroke="none" x="88" y="384" width="141.15185546875" height="107"/></g><g transform="translate(-78,-62) scale(1,1)"><path fill="none" stroke="#000000" d="M 88 384 L 229.15185546875 384 L 229.15185546875 491 L 88 491 L 88 384 Z Z" stroke-miterlimit="10"/></g><g transform="translate(-78,-62) scale(1,1)"><path fill="none" stroke="#000000" d="M 88 409 L 229.15185546875 409" stroke-miterlimit="10"/></g><g transform="translate(-78,-62) scale(1,1)"><g><path fill="none" stroke="none"/><text fill="#000000" stroke="none" font-family="Arial" font-size="13px" font-style="normal" font-weight="bold" text-decoration="none" x="92.5" y="402">CustomSwitchButton</text></g></g><g transform="translate(-78,-62) scale(1,1)"><g><path fill="none" stroke="none"/><text fill="#000000" stroke="none" font-family="Arial" font-size="13px" font-style="normal" font-weight="normal" text-decoration="none" x="93" y="425">+label: string</text></g></g><g transform="translate(-78,-62) scale(1,1)"><g><path fill="none" stroke="none"/><text fill="#000000" stroke="none" font-family="Arial" font-size="13px" font-style="normal" font-weight="normal" text-decoration="none" x="93" y="440">+selected: boolean</text></g></g><g transform="translate(-78,-62) scale(1,1)"><g><path fill="none" stroke="none"/><text fill="#000000" stroke="none" font-family="Arial" font-size="13px" font-style="normal" font-weight="normal" text-decoration="none" x="93" y="455">+disabled?: boolean</text></g></g><g transform="translate(-78,-62) scale(1,1)"><g><path fill="none" stroke="none"/><text fill="#000000" stroke="none" font-family="Arial" font-size="13px" font-style="normal" font-weight="normal" text-decoration="none" x="93" y="470">+visible?: boolean</text></g></g><g transform="translate(-78,-62) scale(1,1)"><g><path fill="none" stroke="none"/><text fill="#000000" stroke="none" font-family="Arial" font-size="13px" font-style="normal" font-weight="normal" text-decoration="none" x="93" y="485">+onChange?</text></g></g><g transform="translate(-78,-62) scale(1,1)"><rect fill="#C0C0C0" stroke="none" x="127" y="215" width="192.93603515625" height="77" opacity="0.2"/></g><g transform="translate(-78,-62) scale(1,1)"><rect fill="#ffffff" stroke="none" x="120" y="208" width="192.93603515625" height="77"/></g><g transform="translate(-78,-62) scale(1,1)"><path fill="none" stroke="#000000" d="M 120 208 L 312.93603515625 208 L 312.93603515625 285 L 120 285 L 120 208 Z Z" stroke-miterlimit="10"/></g><g transform="translate(-78,-62) scale(1,1)"><path fill="none" stroke="#000000" d="M 120 233 L 312.93603515625 233" stroke-miterlimit="10"/></g><g transform="translate(-78,-62) scale(1,1)"><g><path fill="none" stroke="none"/><text fill="#000000" stroke="none" font-family="Arial" font-size="13px" font-style="normal" font-weight="bold" text-decoration="none" x="150.51904296875" y="226">CustomToggleButton</text></g></g><g transform="translate(-78,-62) scale(1,1)"><g><path fill="none" stroke="none"/><text fill="#000000" stroke="none" font-family="Arial" font-size="13px" font-style="normal" font-weight="normal" text-decoration="none" x="125" y="249">+data: Array&lt;ComponentData&gt;</text></g></g><g transform="translate(-78,-62) scale(1,1)"><g><path fill="none" stroke="none"/><text fill="#000000" stroke="none" font-family="Arial" font-size="13px" font-style="normal" font-weight="normal" text-decoration="none" x="125" y="264">+value: NonNullable&lt;unknown&gt;</text></g></g><g transform="translate(-78,-62) scale(1,1)"><g><path fill="none" stroke="none"/><text fill="#000000" stroke="none" font-family="Arial" font-size="13px" font-style="normal" font-weight="normal" text-decoration="none" x="125" y="279">+onChange?</text></g></g><g transform="translate(-78,-62) scale(1,1)"><rect fill="#C0C0C0" stroke="none" x="726" y="391" width="131.966796875" height="92" opacity="0.2"/></g><g transform="translate(-78,-62) scale(1,1)"><rect fill="#ffffff" stroke="none" x="719" y="384" width="131.966796875" height="92"/></g><g transform="translate(-78,-62) scale(1,1)"><path fill="none" stroke="#000000" d="M 719 384 L 850.966796875 384 L 850.966796875 476 L 719 476 L 719 384 Z Z" stroke-miterlimit="10"/></g><g transform="translate(-78,-62) scale(1,1)"><path fill="none" stroke="#000000" d="M 719 409 L 850.966796875 409" stroke-miterlimit="10"/></g><g transform="translate(-78,-62) scale(1,1)"><g><path fill="none" stroke="none"/><text fill="#000000" stroke="none" font-family="Arial" font-size="13px" font-style="normal" font-weight="bold" text-decoration="none" x="732.3740234375" y="402">NumberTextField</text></g></g><g transform="translate(-78,-62) scale(1,1)"><g><path fill="none" stroke="none"/><text fill="#000000" stroke="none" font-family="Arial" font-size="13px" font-style="normal" font-weight="normal" text-decoration="none" x="724" y="425">+label: string</text></g></g><g transform="translate(-78,-62) scale(1,1)"><g><path fill="none" stroke="none"/><text fill="#000000" stroke="none" font-family="Arial" font-size="13px" font-style="normal" font-weight="normal" text-decoration="none" x="724" y="440">+value: number</text></g></g><g transform="translate(-78,-62) scale(1,1)"><g><path fill="none" stroke="none"/><text fill="#000000" stroke="none" font-family="Arial" font-size="13px" font-style="normal" font-weight="normal" text-decoration="none" x="724" y="455">+maxValue?: number</text></g></g><g transform="translate(-78,-62) scale(1,1)"><g><path fill="none" stroke="none"/><text fill="#000000" stroke="none" font-family="Arial" font-size="13px" font-style="normal" font-weight="normal" text-decoration="none" x="724" y="470">+onChange?</text></g></g><g transform="translate(-78,-62) scale(1,1)"><rect fill="#C0C0C0" stroke="none" x="239" y="79" width="192.93603515625" height="77" opacity="0.2"/></g><g transform="translate(-78,-62) scale(1,1)"><rect fill="#ffffff" stroke="none" x="232" y="72" width="192.93603515625" height="77"/></g><g transform="translate(-78,-62) scale(1,1)"><path fill="none" stroke="#000000" d="M 232 72 L 424.93603515625 72 L 424.93603515625 149 L 232 149 L 232 72 Z Z" stroke-miterlimit="10"/></g><g transform="translate(-78,-62) scale(1,1)"><path fill="none" stroke="#000000" d="M 232 97 L 424.93603515625 97" stroke-miterlimit="10"/></g><g transform="translate(-78,-62) scale(1,1)"><g><path fill="none" stroke="none"/><text fill="#000000" stroke="none" font-family="Arial" font-size="13px" font-style="normal" font-weight="bold" text-decoration="none" x="278.27392578125" y="90">ComponentData</text></g></g><g transform="translate(-78,-62) scale(1,1)"><g><path fill="none" stroke="none"/><text fill="#000000" stroke="none" font-family="Arial" font-size="13px" font-style="normal" font-weight="normal" text-decoration="none" x="237" y="113">+name: string</text></g></g><g transform="translate(-78,-62) scale(1,1)"><g><path fill="none" stroke="none"/><text fill="#000000" stroke="none" font-family="Arial" font-size="13px" font-style="normal" font-weight="normal" text-decoration="none" x="237" y="128">+value: NonNullable&lt;unknown&gt;</text></g></g><g transform="translate(-78,-62) scale(1,1)"><g><path fill="none" stroke="none"/><text fill="#000000" stroke="none" font-family="Arial" font-size="13px" font-style="normal" font-weight="normal" text-decoration="none" x="237" y="143">+disabled?: boolean</text></g></g><g transform="translate(-78,-62) scale(1,1)"><path fill="none" stroke="#000000" d="M 248 207 L 295 150" stroke-miterlimit="10"/></g><g transform="translate(-78,-62) scale(1,1)"><path fill="none" stroke="#000000" d="M 291.78250208607005 160.51892138832952 L 295 150 L 285.2868847621505 155.16288605106257" stroke-miterlimit="10"/></g><g transform="translate(-78,-62) scale(1,1)"><path fill="none" stroke="#000000" d="M 433 199 L 375 150" stroke-miterlimit="10"/></g><g transform="translate(-78,-62) scale(1,1)"><path fill="none" stroke="#000000" d="M 385.47974046688506 153.3429088750266 L 375 150 L 380.0465020147895 159.77408908362952" stroke-miterlimit="10"/></g></g></svg>