<svg version="1.1" xmlns="http://www.w3.org/2000/svg" xmlns:xlink="http://www.w3.org/1999/xlink" width="507.5126953125" height="140"><defs/><g><text fill="#eeeeee" stroke="none" font-family="Arial" font-size="24px" font-style="normal" font-weight="normal" text-decoration="none" x="0" y="0"></text><text fill="#eeeeee" stroke="none" font-family="Arial" font-size="24px" font-style="normal" font-weight="normal" text-decoration="none" x="0" y="30"></text><text fill="#eeeeee" stroke="none" font-family="Arial" font-size="24px" font-style="normal" font-weight="normal" text-decoration="none" x="0" y="60"></text><text fill="#eeeeee" stroke="none" font-family="Arial" font-size="24px" font-style="normal" font-weight="normal" text-decoration="none" x="0" y="90"></text><text fill="#eeeeee" stroke="none" font-family="Arial" font-size="24px" font-style="normal" font-weight="normal" text-decoration="none" x="0" y="120"></text><text fill="#eeeeee" stroke="none" font-family="Arial" font-size="24px" font-style="normal" font-weight="normal" text-decoration="none" x="200" y="0"></text><text fill="#eeeeee" stroke="none" font-family="Arial" font-size="24px" font-style="normal" font-weight="normal" text-decoration="none" x="200" y="30"></text><text fill="#eeeeee" stroke="none" font-family="Arial" font-size="24px" font-style="normal" font-weight="normal" text-decoration="none" x="200" y="60"></text><text fill="#eeeeee" stroke="none" font-family="Arial" font-size="24px" font-style="normal" font-weight="normal" text-decoration="none" x="200" y="90"></text><text fill="#eeeeee" stroke="none" font-family="Arial" font-size="24px" font-style="normal" font-weight="normal" text-decoration="none" x="200" y="120"></text><text fill="#eeeeee" stroke="none" font-family="Arial" font-size="24px" font-style="normal" font-weight="normal" text-decoration="none" x="400" y="0"></text><text fill="#eeeeee" stroke="none" font-family="Arial" font-size="24px" font-style="normal" font-weight="normal" text-decoration="none" x="400" y="30"></text><text fill="#eeeeee" stroke="none" font-family="Arial" font-size="24px" font-style="normal" font-weight="normal" text-decoration="none" x="400" y="60"></text><text fill="#eeeeee" stroke="none" font-family="Arial" font-size="24px" font-style="normal" font-weight="normal" text-decoration="none" x="400" y="90"></text><text fill="#eeeeee" stroke="none" font-family="Arial" font-size="24px" font-style="normal" font-weight="normal" text-decoration="none" x="400" y="120"></text><g transform="translate(-74,-89) scale(1,1)"><rect fill="#C0C0C0" stroke="none" x="446" y="121" width="132.5126953125" height="90" opacity="0.2"/></g><g transform="translate(-74,-89) scale(1,1)"><rect fill="#ffffff" stroke="none" x="439" y="114" width="132.5126953125" height="90"/></g><g transform="translate(-74,-89) scale(1,1)"><path fill="none" stroke="#000000" d="M 439 114 L 571.5126953125 114 L 571.5126953125 204 L 439 204 L 439 114 Z Z" stroke-miterlimit="10"/></g><g transform="translate(-74,-89) scale(1,1)"><path fill="none" stroke="#000000" d="M 439 152 L 571.5126953125 152" stroke-miterlimit="10"/></g><g transform="translate(-74,-89) scale(1,1)"><g><path fill="none" stroke="none"/><text fill="#000000" stroke="none" font-family="Arial" font-size="13px" font-style="normal" font-weight="normal" text-decoration="none" x="461.892333984375" y="130">«enumeration»</text></g></g><g transform="translate(-74,-89) scale(1,1)"><g><path fill="none" stroke="none"/><text fill="#000000" stroke="none" font-family="Arial" font-size="13px" font-style="normal" font-weight="bold" text-decoration="none" x="443.5" y="145">EquipmentCategory</text></g></g><g transform="translate(-74,-89) scale(1,1)"><g><path fill="none" stroke="none"/><text fill="#000000" stroke="none" font-family="Arial" font-size="13px" font-style="normal" font-weight="normal" text-decoration="none" x="444" y="168">Weapon</text></g></g><g transform="translate(-74,-89) scale(1,1)"><g><path fill="none" stroke="none"/><text fill="#000000" stroke="none" font-family="Arial" font-size="13px" font-style="normal" font-weight="normal" text-decoration="none" x="444" y="183">Armor</text></g></g><g transform="translate(-74,-89) scale(1,1)"><g><path fill="none" stroke="none"/><text fill="#000000" stroke="none" font-family="Arial" font-size="13px" font-style="normal" font-weight="normal" text-decoration="none" x="444" y="198">Shadow</text></g></g><g transform="translate(-74,-89) scale(1,1)"><rect fill="#C0C0C0" stroke="none" x="280" y="106" width="109.4072265625" height="120" opacity="0.2"/></g><g transform="translate(-74,-89) scale(1,1)"><rect fill="#ffffff" stroke="none" x="273" y="99" width="109.4072265625" height="120"/></g><g transform="translate(-74,-89) scale(1,1)"><path fill="none" stroke="#000000" d="M 273 99 L 382.4072265625 99 L 382.4072265625 219 L 273 219 L 273 99 Z Z" stroke-miterlimit="10"/></g><g transform="translate(-74,-89) scale(1,1)"><path fill="none" stroke="#000000" d="M 273 137 L 382.4072265625 137" stroke-miterlimit="10"/></g><g transform="translate(-74,-89) scale(1,1)"><g><path fill="none" stroke="none"/><text fill="#000000" stroke="none" font-family="Arial" font-size="13px" font-style="normal" font-weight="normal" text-decoration="none" x="284.339599609375" y="115">«enumeration»</text></g></g><g transform="translate(-74,-89) scale(1,1)"><g><path fill="none" stroke="none"/><text fill="#000000" stroke="none" font-family="Arial" font-size="13px" font-style="normal" font-weight="bold" text-decoration="none" x="277.5" y="130">EquipmentLevel</text></g></g><g transform="translate(-74,-89) scale(1,1)"><g><path fill="none" stroke="none"/><text fill="#000000" stroke="none" font-family="Arial" font-size="13px" font-style="normal" font-weight="normal" text-decoration="none" x="278" y="153">Level1</text></g></g><g transform="translate(-74,-89) scale(1,1)"><g><path fill="none" stroke="none"/><text fill="#000000" stroke="none" font-family="Arial" font-size="13px" font-style="normal" font-weight="normal" text-decoration="none" x="278" y="168">Level2</text></g></g><g transform="translate(-74,-89) scale(1,1)"><g><path fill="none" stroke="none"/><text fill="#000000" stroke="none" font-family="Arial" font-size="13px" font-style="normal" font-weight="normal" text-decoration="none" x="278" y="183">Level3</text></g></g><g transform="translate(-74,-89) scale(1,1)"><g><path fill="none" stroke="none"/><text fill="#000000" stroke="none" font-family="Arial" font-size="13px" font-style="normal" font-weight="normal" text-decoration="none" x="278" y="198">Level4</text></g></g><g transform="translate(-74,-89) scale(1,1)"><g><path fill="none" stroke="none"/><text fill="#000000" stroke="none" font-family="Arial" font-size="13px" font-style="normal" font-weight="normal" text-decoration="none" x="278" y="213">Level5</text></g></g><g transform="translate(-74,-89) scale(1,1)"><rect fill="#C0C0C0" stroke="none" x="91" y="129" width="132.525390625" height="75" opacity="0.2"/></g><g transform="translate(-74,-89) scale(1,1)"><rect fill="#ffffff" stroke="none" x="84" y="122" width="132.525390625" height="75"/></g><g transform="translate(-74,-89) scale(1,1)"><path fill="none" stroke="#000000" d="M 84 122 L 216.525390625 122 L 216.525390625 197 L 84 197 L 84 122 Z Z" stroke-miterlimit="10"/></g><g transform="translate(-74,-89) scale(1,1)"><path fill="none" stroke="#000000" d="M 84 160 L 216.525390625 160" stroke-miterlimit="10"/></g><g transform="translate(-74,-89) scale(1,1)"><g><path fill="none" stroke="none"/><text fill="#000000" stroke="none" font-family="Arial" font-size="13px" font-style="normal" font-weight="normal" text-decoration="none" x="106.898681640625" y="138">«enumeration»</text></g></g><g transform="translate(-74,-89) scale(1,1)"><g><path fill="none" stroke="none"/><text fill="#000000" stroke="none" font-family="Arial" font-size="13px" font-style="normal" font-weight="bold" text-decoration="none" x="88.5" y="153">ProbabilityCategory</text></g></g><g transform="translate(-74,-89) scale(1,1)"><g><path fill="none" stroke="none"/><text fill="#000000" stroke="none" font-family="Arial" font-size="13px" font-style="normal" font-weight="normal" text-decoration="none" x="89" y="176">Normal</text></g></g><g transform="translate(-74,-89) scale(1,1)"><g><path fill="none" stroke="none"/><text fill="#000000" stroke="none" font-family="Arial" font-size="13px" font-style="normal" font-weight="normal" text-decoration="none" x="89" y="191">Special</text></g></g></g></svg>