<svg version="1.1" xmlns="http://www.w3.org/2000/svg" xmlns:xlink="http://www.w3.org/1999/xlink" width="713.96630859375" height="171"><defs/><g><text fill="#eeeeee" stroke="none" font-family="Arial" font-size="24px" font-style="normal" font-weight="normal" text-decoration="none" x="0" y="0"></text><text fill="#eeeeee" stroke="none" font-family="Arial" font-size="24px" font-style="normal" font-weight="normal" text-decoration="none" x="0" y="30"></text><text fill="#eeeeee" stroke="none" font-family="Arial" font-size="24px" font-style="normal" font-weight="normal" text-decoration="none" x="0" y="60"></text><text fill="#eeeeee" stroke="none" font-family="Arial" font-size="24px" font-style="normal" font-weight="normal" text-decoration="none" x="0" y="90"></text><text fill="#eeeeee" stroke="none" font-family="Arial" font-size="24px" font-style="normal" font-weight="normal" text-decoration="none" x="0" y="120"></text><text fill="#eeeeee" stroke="none" font-family="Arial" font-size="24px" font-style="normal" font-weight="normal" text-decoration="none" x="0" y="150"></text><text fill="#eeeeee" stroke="none" font-family="Arial" font-size="24px" font-style="normal" font-weight="normal" text-decoration="none" x="200" y="0"></text><text fill="#eeeeee" stroke="none" font-family="Arial" font-size="24px" font-style="normal" font-weight="normal" text-decoration="none" x="200" y="30"></text><text fill="#eeeeee" stroke="none" font-family="Arial" font-size="24px" font-style="normal" font-weight="normal" text-decoration="none" x="200" y="60"></text><text fill="#eeeeee" stroke="none" font-family="Arial" font-size="24px" font-style="normal" font-weight="normal" text-decoration="none" x="200" y="90"></text><text fill="#eeeeee" stroke="none" font-family="Arial" font-size="24px" font-style="normal" font-weight="normal" text-decoration="none" x="200" y="120"></text><text fill="#eeeeee" stroke="none" font-family="Arial" font-size="24px" font-style="normal" font-weight="normal" text-decoration="none" x="200" y="150"></text><text fill="#eeeeee" stroke="none" font-family="Arial" font-size="24px" font-style="normal" font-weight="normal" text-decoration="none" x="400" y="0"></text><text fill="#eeeeee" stroke="none" font-family="Arial" font-size="24px" font-style="normal" font-weight="normal" text-decoration="none" x="400" y="30"></text><text fill="#eeeeee" stroke="none" font-family="Arial" font-size="24px" font-style="normal" font-weight="normal" text-decoration="none" x="400" y="60"></text><text fill="#eeeeee" stroke="none" font-family="Arial" font-size="24px" font-style="normal" font-weight="normal" text-decoration="none" x="400" y="90"></text><text fill="#eeeeee" stroke="none" font-family="Arial" font-size="24px" font-style="normal" font-weight="normal" text-decoration="none" x="400" y="120"></text><text fill="#eeeeee" stroke="none" font-family="Arial" font-size="24px" font-style="normal" font-weight="normal" text-decoration="none" x="400" y="150"></text><text fill="#eeeeee" stroke="none" font-family="Arial" font-size="24px" font-style="normal" font-weight="normal" text-decoration="none" x="600" y="0"></text><text fill="#eeeeee" stroke="none" font-family="Arial" font-size="24px" font-style="normal" font-weight="normal" text-decoration="none" x="600" y="30"></text><text fill="#eeeeee" stroke="none" font-family="Arial" font-size="24px" font-style="normal" font-weight="normal" text-decoration="none" x="600" y="60"></text><text fill="#eeeeee" stroke="none" font-family="Arial" font-size="24px" font-style="normal" font-weight="normal" text-decoration="none" x="600" y="90"></text><text fill="#eeeeee" stroke="none" font-family="Arial" font-size="24px" font-style="normal" font-weight="normal" text-decoration="none" x="600" y="120"></text><text fill="#eeeeee" stroke="none" font-family="Arial" font-size="24px" font-style="normal" font-weight="normal" text-decoration="none" x="600" y="150"></text><g transform="translate(-118,-142) scale(1,1)"><path fill="#C0C0C0" stroke="none" d="M 190.483154296875 258.5 C 190.483154296875 252.1487248 195.631879096875 247 201.983154296875 247 C 208.334429496875 247 213.483154296875 252.1487248 213.483154296875 258.5 C 213.483154296875 264.8512752 208.334429496875 270 201.983154296875 270 C 195.631879096875 270 190.483154296875 264.8512752 190.483154296875 258.5 Z" opacity="0.2"/></g><g transform="translate(-118,-142) scale(1,1)"><path fill="#ffffff" stroke="none" d="M 183.483154296875 251.5 C 183.483154296875 245.1487248 188.631879096875 240 194.983154296875 240 C 201.334429496875 240 206.483154296875 245.1487248 206.483154296875 251.5 C 206.483154296875 257.8512752 201.334429496875 263 194.983154296875 263 C 188.631879096875 263 183.483154296875 257.8512752 183.483154296875 251.5 Z"/></g><g transform="translate(-118,-142) scale(1,1)"><path fill="none" stroke="#000000" d="M 183.483154296875 251.5 C 183.483154296875 245.1487248 188.631879096875 240 194.983154296875 240 C 201.334429496875 240 206.483154296875 245.1487248 206.483154296875 251.5 C 206.483154296875 257.8512752 201.334429496875 263 194.983154296875 263 C 188.631879096875 263 183.483154296875 257.8512752 183.483154296875 251.5 Z" stroke-miterlimit="10"/></g><g transform="translate(-118,-142) scale(1,1)"><g><path fill="none" stroke="none"/><text fill="#000000" stroke="none" font-family="Arial" font-size="13px" font-style="normal" font-weight="bold" text-decoration="none" x="142.24365234375" y="281">RefineUserProps</text></g></g><g transform="translate(-118,-142) scale(1,1)"><g><path fill="none" stroke="none"/><text fill="#000000" stroke="none" font-family="Arial" font-size="13px" font-style="normal" font-weight="normal" text-decoration="none" x="132.5" y="296">(from Core.Simulator)</text></g></g><g transform="translate(-118,-142) scale(1,1)"><path fill="#C0C0C0" stroke="none" d="M 470.483154296875 258.5 C 470.483154296875 252.1487248 475.631879096875 247 481.983154296875 247 C 488.334429496875 247 493.483154296875 252.1487248 493.483154296875 258.5 C 493.483154296875 264.8512752 488.334429496875 270 481.983154296875 270 C 475.631879096875 270 470.483154296875 264.8512752 470.483154296875 258.5 Z" opacity="0.2"/></g><g transform="translate(-118,-142) scale(1,1)"><path fill="#ffffff" stroke="none" d="M 463.483154296875 251.5 C 463.483154296875 245.1487248 468.631879096875 240 474.983154296875 240 C 481.334429496875 240 486.483154296875 245.1487248 486.483154296875 251.5 C 486.483154296875 257.8512752 481.334429496875 263 474.983154296875 263 C 468.631879096875 263 463.483154296875 257.8512752 463.483154296875 251.5 Z"/></g><g transform="translate(-118,-142) scale(1,1)"><path fill="none" stroke="#000000" d="M 463.483154296875 251.5 C 463.483154296875 245.1487248 468.631879096875 240 474.983154296875 240 C 481.334429496875 240 486.483154296875 245.1487248 486.483154296875 251.5 C 486.483154296875 257.8512752 481.334429496875 263 474.983154296875 263 C 468.631879096875 263 463.483154296875 257.8512752 463.483154296875 251.5 Z" stroke-miterlimit="10"/></g><g transform="translate(-118,-142) scale(1,1)"><g><path fill="none" stroke="none"/><text fill="#000000" stroke="none" font-family="Arial" font-size="13px" font-style="normal" font-weight="bold" text-decoration="none" x="420.802734375" y="281">RefineStatsProps</text></g></g><g transform="translate(-118,-142) scale(1,1)"><g><path fill="none" stroke="none"/><text fill="#000000" stroke="none" font-family="Arial" font-size="13px" font-style="normal" font-weight="normal" text-decoration="none" x="412.5" y="296">(from Core.Simulator)</text></g></g><g transform="translate(-118,-142) scale(1,1)"><path fill="#C0C0C0" stroke="none" d="M 750.483154296875 258.5 C 750.483154296875 252.1487248 755.631879096875 247 761.983154296875 247 C 768.334429496875 247 773.483154296875 252.1487248 773.483154296875 258.5 C 773.483154296875 264.8512752 768.334429496875 270 761.983154296875 270 C 755.631879096875 270 750.483154296875 264.8512752 750.483154296875 258.5 Z" opacity="0.2"/></g><g transform="translate(-118,-142) scale(1,1)"><path fill="#ffffff" stroke="none" d="M 743.483154296875 251.5 C 743.483154296875 245.1487248 748.631879096875 240 754.983154296875 240 C 761.334429496875 240 766.483154296875 245.1487248 766.483154296875 251.5 C 766.483154296875 257.8512752 761.334429496875 263 754.983154296875 263 C 748.631879096875 263 743.483154296875 257.8512752 743.483154296875 251.5 Z"/></g><g transform="translate(-118,-142) scale(1,1)"><path fill="none" stroke="#000000" d="M 743.483154296875 251.5 C 743.483154296875 245.1487248 748.631879096875 240 754.983154296875 240 C 761.334429496875 240 766.483154296875 245.1487248 766.483154296875 251.5 C 766.483154296875 257.8512752 761.334429496875 263 754.983154296875 263 C 748.631879096875 263 743.483154296875 257.8512752 743.483154296875 251.5 Z" stroke-miterlimit="10"/></g><g transform="translate(-118,-142) scale(1,1)"><g><path fill="none" stroke="none"/><text fill="#000000" stroke="none" font-family="Arial" font-size="13px" font-style="normal" font-weight="bold" text-decoration="none" x="700.79638671875" y="281">RefinePriceProps</text></g></g><g transform="translate(-118,-142) scale(1,1)"><g><path fill="none" stroke="none"/><text fill="#000000" stroke="none" font-family="Arial" font-size="13px" font-style="normal" font-weight="normal" text-decoration="none" x="692.5" y="296">(from Core.Simulator)</text></g></g><g transform="translate(-118,-142) scale(1,1)"><rect fill="#C0C0C0" stroke="none" x="146" y="159" width="110.8671875" height="24" opacity="0.2"/></g><g transform="translate(-118,-142) scale(1,1)"><rect fill="#ffffff" stroke="none" x="139" y="152" width="110.8671875" height="24"/></g><g transform="translate(-118,-142) scale(1,1)"><path fill="none" stroke="#000000" d="M 139 152 L 249.8671875 152 L 249.8671875 176 L 139 176 L 139 152 Z Z" stroke-miterlimit="10"/></g><g transform="translate(-118,-142) scale(1,1)"><g><path fill="none" stroke="none"/><text fill="#000000" stroke="none" font-family="Arial" font-size="13px" font-style="normal" font-weight="bold" text-decoration="none" x="143.5" y="170">RefineUserStore</text></g></g><g transform="translate(-118,-142) scale(1,1)"><rect fill="#C0C0C0" stroke="none" x="425" y="159" width="113.7490234375" height="24" opacity="0.2"/></g><g transform="translate(-118,-142) scale(1,1)"><rect fill="#ffffff" stroke="none" x="418" y="152" width="113.7490234375" height="24"/></g><g transform="translate(-118,-142) scale(1,1)"><path fill="none" stroke="#000000" d="M 418 152 L 531.7490234375 152 L 531.7490234375 176 L 418 176 L 418 152 Z Z" stroke-miterlimit="10"/></g><g transform="translate(-118,-142) scale(1,1)"><g><path fill="none" stroke="none"/><text fill="#000000" stroke="none" font-family="Arial" font-size="13px" font-style="normal" font-weight="bold" text-decoration="none" x="422.5" y="170">RefineStatsStore</text></g></g><g transform="translate(-118,-142) scale(1,1)"><rect fill="#C0C0C0" stroke="none" x="704" y="159" width="113.76171875" height="24" opacity="0.2"/></g><g transform="translate(-118,-142) scale(1,1)"><rect fill="#ffffff" stroke="none" x="697" y="152" width="113.76171875" height="24"/></g><g transform="translate(-118,-142) scale(1,1)"><path fill="none" stroke="#000000" d="M 697 152 L 810.76171875 152 L 810.76171875 176 L 697 176 L 697 152 Z Z" stroke-miterlimit="10"/></g><g transform="translate(-118,-142) scale(1,1)"><g><path fill="none" stroke="none"/><text fill="#000000" stroke="none" font-family="Arial" font-size="13px" font-style="normal" font-weight="bold" text-decoration="none" x="701.5" y="170">RefinePriceStore</text></g></g><g transform="translate(-118,-142) scale(1,1)"><path fill="none" stroke="#000000" d="M 194 177 L 194 240" stroke-miterlimit="10"/></g><g transform="translate(-118,-142) scale(1,1)"><path fill="none" stroke="#000000" d="M 474 177 L 474 240" stroke-miterlimit="10"/></g><g transform="translate(-118,-142) scale(1,1)"><path fill="none" stroke="#000000" d="M 753 177 L 754 240" stroke-miterlimit="10"/></g></g></svg>